<?xml version="1.0" encoding="UTF-8"?><svg xmlns="http://www.w3.org/2000/svg" xmlns:xlink="http://www.w3.org/1999/xlink"><symbol viewBox="0 0 24 24" id="activity" xmlns="http://www.w3.org/2000/svg"><title>activity</title><g fill="none" fill-rule="evenodd"><path fill-opacity=".2" fill="#66D5FF" d="M2 2h20v20H2z"/><path d="M22 2L2 22" stroke="#C1C0C1" stroke-width=".02" stroke-linecap="square"/><circle stroke="#C1C0C1" stroke-width=".02" cx="12" cy="12" r="9.99"/><circle stroke="#C1C0C1" stroke-width=".02" cx="12" cy="12" r="3.99"/><circle stroke="#CCD2D6" stroke-width=".02" cx="5" cy="5" r="2"/><circle stroke="#CCD2D6" stroke-width=".02" cx="19" cy="5" r="2"/><circle stroke="#CCD2D6" stroke-width=".02" cx="5" cy="19" r="2"/><circle stroke="#CCD2D6" stroke-width=".02" cx="19" cy="19" r="2"/><path d="M2 2l20 20" stroke="#C1C0C1" stroke-width=".02" stroke-linecap="square"/><rect stroke="#C1C0C1" stroke-width=".02" x="4.01" y="2.01" width="15.98" height="19.98" rx="2"/><rect stroke="#C1C0C1" stroke-width=".02" x="3.01" y="3.01" width="17.98" height="17.98" rx="2"/><rect stroke="#C1C0C1" stroke-width=".02" transform="rotate(90 12 12)" x="4.01" y="2.01" width="15.98" height="19.98" rx="2"/></g></symbol><symbol viewBox="0 0 24 24" id="add-cart" xmlns="http://www.w3.org/2000/svg"><title>add-cart</title><path d="M8 16h8a1 1 0 0 1 0 2H7a1 1 0 0 1-1-1V4H5a1 1 0 1 1 0-2h2a1 1 0 0 1 1 1v9h8.775L18 7V5.001c1.145 0 2 .894 2 1.999 0 .146-.017.291-.05.434l-1.151 5c-.21.915-1.052 1.566-2.024 1.566H8.073L8 13.999V16zm-.5 6a1.5 1.5 0 1 1 0-3 1.5 1.5 0 0 1 0 3zm9 0a1.5 1.5 0 1 1 0-3 1.5 1.5 0 0 1 0 3zM14 5h1a1 1 0 0 1 0 2h-1v1a1 1 0 0 1-2 0V7h-1a1 1 0 0 1 0-2h1V4a1 1 0 0 1 2 0v1z" fill="#000" fill-rule="evenodd"/></symbol><symbol viewBox="0 0 24 24" id="align-bottom" xmlns="http://www.w3.org/2000/svg"><title>align-bottom</title><path d="M4.8 19h14.4c.442 0 .8.448.8 1s-.358 1-.8 1H4.8c-.442 0-.8-.448-.8-1s.358-1 .8-1zM11 5v12H7V5a2 2 0 1 1 4 0zm6 4v8h-4V9a2 2 0 1 1 4 0z" fill="#000" fill-rule="evenodd"/></symbol><symbol viewBox="0 0 24 24" id="align-center" xmlns="http://www.w3.org/2000/svg"><title>align-center</title><path d="M11 13v-2H6.286C5.023 11 4 10.105 4 9s1.023-2 2.286-2H11V3a1 1 0 0 1 2 0v4h4.714C18.977 7 20 7.895 20 9s-1.023 2-2.286 2H13v2h3a2 2 0 1 1 0 4h-3v4a1 1 0 0 1-2 0v-4H8a2 2 0 1 1 0-4h3z" fill="#000" fill-rule="evenodd"/></symbol><symbol viewBox="0 0 24 24" id="align-left" xmlns="http://www.w3.org/2000/svg"><title>align-left</title><path d="M7 21a1 1 0 0 1-2 0V3a1 1 0 1 1 2 0v18zM9 5h8a2 2 0 1 1 0 4H9V5zm0 7h6a2 2 0 1 1 0 4H9v-4z" fill="#000" fill-rule="evenodd"/></symbol><symbol viewBox="0 0 24 24" id="align-right" xmlns="http://www.w3.org/2000/svg"><title>align-right</title><path d="M17 21a1 1 0 0 1-2 0V3a1 1 0 0 1 2 0v18zM5 9a2 2 0 1 1 0-4h8v4H5zm2 7a2 2 0 1 1 0-4h6v4H7z" fill="#000" fill-rule="evenodd"/></symbol><symbol viewBox="0 0 24 24" id="align-top" xmlns="http://www.w3.org/2000/svg"><title>align-top</title><path d="M4.8 3h14.4c.442 0 .8.448.8 1s-.358 1-.8 1H4.8C4.358 5 4 4.552 4 4s.358-1 .8-1zM11 19a2 2 0 1 1-4 0V7h4v12zm6-4a2 2 0 1 1-4 0V7h4v8z" fill="#000" fill-rule="evenodd"/></symbol><symbol viewBox="0 0 24 24" id="align-vertically" xmlns="http://www.w3.org/2000/svg"><title>align-vertically</title><path d="M17 13v2a2 2 0 1 1-4 0v-2h-2v4.714C11 18.977 10.105 20 9 20s-2-1.023-2-2.286V13H3a1 1 0 0 1 0-2h4V6.286C7 5.023 7.895 4 9 4s2 1.023 2 2.286V11h2V9a2 2 0 1 1 4 0v2h4a1 1 0 0 1 0 2h-4z" fill="#000" fill-rule="evenodd"/></symbol><symbol viewBox="0 0 24 24" id="angry" xmlns="http://www.w3.org/2000/svg"><title>angry</title><path d="M7 13A6 6 0 1 0 7 1a6 6 0 0 0 0 12zm0 1A7 7 0 1 1 7 0a7 7 0 0 1 0 14zm0-5c-2.003 0-2.003 2-2.003 2H6s0-1 1-1 1 1 1 1h.997S9.003 9 7 9zm2.8-3.6A1 1 0 1 1 8 6V5l3-1v1l-1.2.4zm-5.6 0A1 1 0 1 0 6 6V5L3 4v1l1.2.4z" fill="#000" fill-rule="evenodd"/></symbol><symbol viewBox="0 0 24 24" id="app-menu" xmlns="http://www.w3.org/2000/svg"><title>app-menu</title><path d="M16 16h4v4h-4v-4zm-6 0h4v4h-4v-4zm-6 0h4v4H4v-4zm12-6h4v4h-4v-4zm-6 0h4v4h-4v-4zm-6 0h4v4H4v-4zm12-6h4v4h-4V4zm-6 0h4v4h-4V4zM4 4h4v4H4V4z" fill="#000" fill-rule="evenodd"/></symbol><symbol viewBox="0 0 24 24" id="arrow-down" xmlns="http://www.w3.org/2000/svg"><title>arrow-down</title><path d="M6 7l6 6 6-6 2 2-8 8-8-8z" fill="#000" fill-rule="evenodd"/></symbol><symbol viewBox="0 0 24 24" id="arrow-left" xmlns="http://www.w3.org/2000/svg"><title>arrow-left</title><path d="M15 4l2 2-6 6 6 6-2 2-8-8z" fill="#000" fill-rule="evenodd"/></symbol><symbol viewBox="0 0 24 24" id="arrow-right" xmlns="http://www.w3.org/2000/svg"><title>arrow-right</title><path d="M9.005 4l8 8-8 8L7 18l6.005-6L7 6z" fill="#000" fill-rule="evenodd"/></symbol><symbol viewBox="0 0 24 24" id="arrow-up" xmlns="http://www.w3.org/2000/svg"><title>arrow-up</title><path d="M4 15l8-8 8 8-2 2-6-6-6 6z" fill="#000" fill-rule="evenodd"/></symbol><symbol viewBox="0 0 24 24" id="artboard" xmlns="http://www.w3.org/2000/svg"><title>artboard</title><path d="M6 16V8H4a1 1 0 1 1 0-2h2V4a1 1 0 1 1 2 0v2h8V4a1 1 0 0 1 2 0v2h2a1 1 0 0 1 0 2h-2v8h2a1 1 0 0 1 0 2h-2v2a1 1 0 0 1-2 0v-2H8v2a1 1 0 0 1-2 0v-2H4a1 1 0 0 1 0-2h2zm2 0h8V8H8v8z" fill="#000" fill-rule="evenodd"/></symbol><symbol viewBox="0 0 24 24" id="audio-player" xmlns="http://www.w3.org/2000/svg"><title>audio-player</title><path d="M18 20a2 2 0 0 1-2 2H8a2 2 0 0 1-2-2V4a2 2 0 0 1 2-2h8a2 2 0 0 1 2 2v16zm-6 0a4 4 0 1 0 0-8 4 4 0 0 0 0 8zM8 4v6h8V4H8zm4 14a2 2 0 1 0 0-4 2 2 0 0 0 0 4z" fill="#000" fill-rule="evenodd"/></symbol><symbol viewBox="0 0 24 24" id="backward" xmlns="http://www.w3.org/2000/svg"><title>backward</title><path d="M12 12c0-.107.023-.216.072-.316a.617.617 0 0 1 .221-.253l6.86-4.35c.276-.174.623-.06.775.254a.725.725 0 0 1 .072.316v8.698c0 .36-.255.651-.57.651a.516.516 0 0 1-.277-.082l-6.86-4.349A.671.671 0 0 1 12 12v4.35c0 .36-.255.651-.57.651a.516.516 0 0 1-.277-.082l-6.86-4.349c-.275-.174-.374-.57-.221-.885a.617.617 0 0 1 .221-.253l6.86-4.35c.276-.174.623-.06.775.254a.725.725 0 0 1 .072.316V12z" fill="#000" fill-rule="evenodd"/></symbol><symbol viewBox="0 0 24 24" id="bar" xmlns="http://www.w3.org/2000/svg"><title>bar</title><path d="M3 16h18v2H3v-2zm0-5h18v2H3v-2zm0-5h18v2H3V6z" fill="#000" fill-rule="evenodd"/></symbol><symbol viewBox="0 0 24 24" id="bar-chart" xmlns="http://www.w3.org/2000/svg"><title>bar-chart</title><path d="M17 5h2v14h-2V5zm-4 4h2v10h-2V9zM9 7h2v12H9V7zm-4 4h2v8H5v-8z" fill="#000" fill-rule="evenodd"/></symbol><symbol viewBox="0 0 24 24" id="beer" xmlns="http://www.w3.org/2000/svg"><title>beer</title><path d="M17 16v3c0 1.1-.9 2-2 2H5c-1.1 0-2-.9-2-2V5a2 2 0 0 1 2-2h10a2 2 0 0 1 2 2v2h2a2 2 0 0 1 2 2v5a2 2 0 0 1-2 2h-2zM5 5v3h10V5H5zm0 5v9h10v-9H5zm4 6a1 1 0 0 1-2 0v-3a1 1 0 0 1 2 0v3zm4 0a1 1 0 0 1-2 0v-3a1 1 0 0 1 2 0v3zm4-7h2v5h-2V9z" fill="#000" fill-rule="evenodd"/></symbol><symbol viewBox="0 0 24 24" id="bell" xmlns="http://www.w3.org/2000/svg"><title>bell</title><path d="M15 18v1a3 3 0 0 1-6 0v-1H5c-.55 0-1-.45-1-1s.45-1 1-1h1v-6a6.002 6.002 0 0 1 5-5.917V3a1 1 0 0 1 2 0v1.083c2.838.476 5 2.944 5 5.917v6h1c.55 0 1 .45 1 1s-.45 1-1 1h-4zm-7-2h8v-6a4 4 0 1 0-8 0v6zm4 4a1 1 0 0 0 1-1v-1h-2v1a1 1 0 0 0 1 1z" fill="#000" fill-rule="evenodd"/></symbol><symbol viewBox="0 0 24 24" id="birthday-cake" xmlns="http://www.w3.org/2000/svg"><title>birthday-cake</title><path d="M17 10a4 4 0 0 1 4 4v5a2 2 0 0 1-2 2H5a2 2 0 0 1-2-2v-5a4 4 0 0 1 4-4V7h2v3h2V7h2v3h2V7h2v3zM7 12a2 2 0 0 0-2 2v1h14v-1a2 2 0 0 0-2-2H7zm-2 5v2h14v-2H5zM7 4a1 1 0 0 0 1-1 1 1 0 0 1 1 1v1a1 1 0 1 1-2 0V4zm4 0a1 1 0 0 0 1-1 1 1 0 0 1 1 1v1a1 1 0 0 1-2 0V4zm4 0a1 1 0 0 0 1-1 1 1 0 0 1 1 1v1a1 1 0 0 1-2 0V4z" fill="#000" fill-rule="nonzero"/></symbol><symbol viewBox="0 0 24 24" id="bold" xmlns="http://www.w3.org/2000/svg"><title>bold</title><path d="M5 20V4c0-1.1.9-2 2-2h5c3 0 5.966 1.4 6 4.919 0 1.838-.931 3.73-2.532 4.324v.135c2.033.514 3.532 2.027 3.532 4.73 0 1.022-.203 1.905-.573 2.653C17.337 20.96 15.09 22 12 22H7c-1.1 0-2-.9-2-2zm3-1h4c2.566 0 4-1.2 4-3s-1.408-3-4-3H8v6zm0-9h3c2.388 0 4-.85 4-2.55C15 5.75 13.5 5 10.996 5H8v5z" fill="#000" fill-rule="evenodd"/></symbol><symbol viewBox="0 0 24 24" id="bolt" xmlns="http://www.w3.org/2000/svg"><title>bolt</title><path d="M18 2h-8L6 13h4l-2 9 9-13h-4.995z" fill="#000" fill-rule="evenodd"/></symbol><symbol viewBox="0 0 24 24" id="book" xmlns="http://www.w3.org/2000/svg"><title>book</title><path d="M13 16.006l7-.047V5.992l-5.17.007-1.814 1.814L13 16.006zm-2-8.193L9.179 6.038 4 6.003v9.956l7 .047V7.813zm-1-3.77L12 6l2-2 5.997-.008A2 2 0 0 1 22 5.989v9.97a2 2 0 0 1-1.986 2L14 18l-1.996 2L10 18l-6.014-.041a2 2 0 0 1-1.986-2V6.003a2 2 0 0 1 2-2l6 .04z" fill="#000" fill-rule="nonzero"/></symbol><symbol viewBox="0 0 24 24" id="bookmark" xmlns="http://www.w3.org/2000/svg"><title>bookmark</title><path d="M18 4H6v14.764l6-3 6 3V4zM6 2h12a2 2 0 0 1 2 2v18l-8-4-8 4V4a2 2 0 0 1 2-2zm8 4h2v6h-2V6z" fill="#000" fill-rule="nonzero"/></symbol><symbol viewBox="0 0 24 24" id="browser" xmlns="http://www.w3.org/2000/svg"><title>browser</title><path d="M4 10v8h16v-8H4zm0-4v2h2V6H4zm4 0v2h12V6H8zM4 4h16a2 2 0 0 1 2 2v12a2 2 0 0 1-2 2H4a2 2 0 0 1-2-2V6a2 2 0 0 1 2-2z" fill="#000" fill-rule="nonzero"/></symbol><symbol viewBox="0 0 24 24" id="brush" xmlns="http://www.w3.org/2000/svg"><title>brush</title><path d="M5.261 16.011A2 2 0 0 0 7.99 18.74 2.5 2.5 0 0 1 5.5 21H3v-2.5a2.5 2.5 0 0 1 2.261-2.489zM19 3c1.1 0 2 1.006 2 2L8 18l-2-2L19 3z" fill="#000" fill-rule="evenodd"/></symbol><symbol viewBox="0 0 24 24" id="bug" xmlns="http://www.w3.org/2000/svg"><title>bug</title><path d="M6 15H4a1 1 0 0 1 0-2h2v-1.337a1 1 0 0 1-1-.249L3.586 10A1 1 0 0 1 5 8.586l1.136 1.136a6.007 6.007 0 0 1 2.665-3.8L7.586 4.708A1 1 0 0 1 9 3.293l1.823 1.822a6.029 6.029 0 0 1 2.354 0L15 3.293a1 1 0 0 1 1.414 1.414L15.2 5.923a6.007 6.007 0 0 1 2.665 3.8L19 8.585A1 1 0 0 1 20.414 10L19 11.414a1 1 0 0 1-1 .25V13h2a1 1 0 0 1 0 2h-2c0 .483-.057.953-.165 1.404a1 1 0 0 1 1.165.182L20.414 18A1 1 0 0 1 19 19.414L17.586 18a.997.997 0 0 1-.216-.321A6 6 0 0 1 12 21a6 6 0 0 1-5.37-3.321.997.997 0 0 1-.216.321L5 19.414A1 1 0 1 1 3.586 18L5 16.586a1 1 0 0 1 1.165-.182A6.016 6.016 0 0 1 6 15zm9.874-5H8.126a4.002 4.002 0 0 1 7.748 0zm0 6a4.002 4.002 0 0 1-7.748 0h7.748z" fill="#000" fill-rule="evenodd"/></symbol><symbol viewBox="0 0 24 24" id="building" xmlns="http://www.w3.org/2000/svg"><title>building</title><path d="M6 2h12a2 2 0 0 1 2 2v18H4V4a2 2 0 0 1 2-2zm0 18h4v-4h4v4h4V4H6v16zm7-14h3v3h-3V6zm-5 5h3v3H8v-3zm5 0h3v3h-3v-3zM8 6h3v3H8V6z" fill="#000" fill-rule="nonzero"/></symbol><symbol viewBox="0 0 24 24" id="cage" xmlns="http://www.w3.org/2000/svg"><title>cage</title><defs><path d="M14 4.341c2.33.824 4 3.047 4 5.659v9h.5a1.5 1.5 0 0 1 0 3h-13a1.5 1.5 0 0 1 0-3H6v-9a6.002 6.002 0 0 1 4-5.659V4a2 2 0 1 1 4 0v.341zM16 11v3h-3v-3h3zm0-2h-3V6a4.183 4.183 0 0 1 3 3zm-8 2h3v3H8v-3zm0-2a4.183 4.183 0 0 1 3-3v3H8zm8 7v3h-3v-3h3zm-8 0h3v3H8v-3z" id="bea"/></defs><g fill="none" fill-rule="evenodd"><use fill="#FFF" xlink:href="#bea"/><path stroke="#000" stroke-width="2" d="M13.667 5.284L13 5.05V4a1 1 0 0 0-2 0v1.049l-.667.235A5.002 5.002 0 0 0 7 10v10H5.5a.5.5 0 1 0 0 1h13a.5.5 0 1 0 0-1H17V10a5.002 5.002 0 0 0-3.333-4.716zM17 10v5h-5v-5h5zm.29 0H12V4.71l1.25.322c1.82.468 3.25 1.899 3.718 3.719L17.29 10zM7 10h5v5H7v-5zm.032-1.25a5.183 5.183 0 0 1 3.719-3.718L12 4.71V10H6.71l.322-1.25zM17 15v5h-5v-5h5zM7 15h5v5H7v-5z"/></g></symbol><symbol viewBox="0 0 24 24" id="calendar" xmlns="http://www.w3.org/2000/svg"><title>calendar</title><path d="M8 4h8V2h2v2h1a2 2 0 0 1 2 2v14a2 2 0 0 1-2 2H5a2 2 0 0 1-2-2V6a2 2 0 0 1 2-2h1V2h2v2zM5 8v12h14V8H5zm2 3h2v2H7v-2zm4 0h2v2h-2v-2zm4 0h2v2h-2v-2zm0 4h2v2h-2v-2zm-4 0h2v2h-2v-2zm-4 0h2v2H7v-2z" fill="#000" fill-rule="evenodd"/></symbol><symbol viewBox="0 0 24 24" id="camera" xmlns="http://www.w3.org/2000/svg"><title>camera</title><path d="M5 21a2 2 0 0 1-2-2V5a2 2 0 0 1 2-2h14a2 2 0 0 1 2 2v14a2 2 0 0 1-2 2H5zM17 5v2h2V5h-2zm-5 12a5 5 0 1 0 0-10 5 5 0 0 0 0 10zm0-2a3 3 0 1 0 0-6 3 3 0 0 0 0 6z" fill="#000" fill-rule="evenodd"/></symbol><symbol viewBox="0 0 24 24" id="cart" xmlns="http://www.w3.org/2000/svg"><title>cart</title><path d="M8 16h8a1 1 0 0 1 0 2H7a1 1 0 0 1-1-1V4H5a1 1 0 1 1 0-2h2a1 1 0 0 1 1 1v2.001L8.073 5h9.854C19.072 5 20 5.895 20 7c0 .146-.017.291-.05.434l-1.151 5c-.21.915-1.052 1.566-2.024 1.566H8.073L8 13.999V16zm-.5 6a1.5 1.5 0 1 1 0-3 1.5 1.5 0 0 1 0 3zm9 0a1.5 1.5 0 1 1 0-3 1.5 1.5 0 0 1 0 3zM8 7v5h8.831L18 7H8z" fill="#000" fill-rule="evenodd"/></symbol><symbol viewBox="0 0 24 24" id="check" xmlns="http://www.w3.org/2000/svg"><title>check</title><path d="M6 10l-2 2 6 6L20 8l-2-2-8 8z" fill="#000" fill-rule="evenodd"/></symbol><symbol viewBox="0 0 24 24" id="check-circle" xmlns="http://www.w3.org/2000/svg"><title>check-circle</title><path d="M12 22C6.477 22 2 17.523 2 12S6.477 2 12 2s10 4.477 10 10-4.477 10-10 10zM8 10l-2 2 5 5 7-7-2-2-5 5-3-3z" fill="#000" fill-rule="nonzero"/></symbol><symbol viewBox="0 0 24 24" id="check-circle-o" xmlns="http://www.w3.org/2000/svg"><title>check-circle-o</title><path d="M12 20a8 8 0 1 0 0-16 8 8 0 0 0 0 16zm0 2C6.477 22 2 17.523 2 12S6.477 2 12 2s10 4.477 10 10-4.477 10-10 10zM8 10l-2 2 5 5 7-7-2-2-5 5-3-3z" fill="#000" fill-rule="nonzero"/></symbol><symbol viewBox="0 0 24 24" id="check-verified" xmlns="http://www.w3.org/2000/svg"><title>check-verified</title><path d="M4.252 14H4a2 2 0 1 1 0-4h.252c.189-.734.48-1.427.856-2.064l-.18-.179a2 2 0 1 1 2.83-2.828l.178.179A7.952 7.952 0 0 1 10 4.252V4a2 2 0 1 1 4 0v.252c.734.189 1.427.48 2.064.856l.179-.18a2 2 0 1 1 2.828 2.83l-.179.178c.377.637.667 1.33.856 2.064H20a2 2 0 1 1 0 4h-.252a7.952 7.952 0 0 1-.856 2.064l.18.179a2 2 0 1 1-2.83 2.828l-.178-.179a7.952 7.952 0 0 1-2.064.856V20a2 2 0 1 1-4 0v-.252a7.952 7.952 0 0 1-2.064-.856l-.179.18a2 2 0 1 1-2.828-2.83l.179-.178A7.952 7.952 0 0 1 4.252 14zM9 10l-2 2 4 4 6-6-2-2-4 4-2-2z" fill="#000" fill-rule="evenodd"/></symbol><symbol viewBox="0 0 24 24" id="clock" xmlns="http://www.w3.org/2000/svg"><title>clock</title><path d="M12 22C6.477 22 2 17.523 2 12S6.477 2 12 2s10 4.477 10 10-4.477 10-10 10zm8-10a8 8 0 1 0-16 0 8 8 0 0 0 16 0zm-4-1a1 1 0 0 1 0 2h-3c-1.1 0-2-.9-2-2V7a1 1 0 0 1 2 0v4h3z" fill="#000" fill-rule="evenodd"/></symbol><symbol viewBox="0 0 24 24" id="close" xmlns="http://www.w3.org/2000/svg"><title>close</title><path d="M10.657 12.071L5 6.414 6.414 5l5.657 5.657L17.728 5l1.414 1.414-5.657 5.657 5.657 5.657-1.414 1.414-5.657-5.657-5.657 5.657L5 17.728z" fill="#000" fill-rule="evenodd"/></symbol><symbol viewBox="0 0 24 24" id="cloud" xmlns="http://www.w3.org/2000/svg"><title>cloud</title><path d="M12.713 9.72l-1.073 1.542-1.606-.975A2 2 0 0 0 7 12v2H5a1 1 0 0 0 0 2h11a4 4 0 1 0-3.287-6.28zM16 6a6 6 0 1 1 0 12H5a3 3 0 0 1 0-6 4 4 0 0 1 6.071-3.423A5.993 5.993 0 0 1 16 6z" fill="#000" fill-rule="nonzero"/></symbol><symbol viewBox="0 0 24 24" id="cocktail" xmlns="http://www.w3.org/2000/svg"><title>cocktail</title><path d="M13 19h3a1 1 0 0 1 0 2H8a1 1 0 0 1 0-2h3v-6.75L4.8 7.6A2 2 0 0 1 4 6V5a2 2 0 0 1 2-2h12a2 2 0 0 1 2 2v1a2 2 0 0 1-.8 1.6L13 12.25V19zM6 5v1l6 4 6-4V5H6z" fill="#000" fill-rule="nonzero"/></symbol><symbol viewBox="0 0 24 24" id="code" xmlns="http://www.w3.org/2000/svg"><title>code</title><path d="M21.004 11.657l-5.657 5.657-1.414-1.415 4.242-4.242-4.242-4.243L15.347 6l5.657 5.657zm-15.176 0l4.243 4.242-1.414 1.415L3 11.657 8.657 6l1.414 1.414-4.243 4.243z" fill="#000" fill-rule="evenodd"/></symbol><symbol viewBox="0 0 14 14" id="codepen" xmlns="http://www.w3.org/2000/svg"><title>codepen</title><path d="M14 9.133a.592.592 0 0 1-.005.079l-.005.025-.01.05-.01.03-.016.044-.013.03a.736.736 0 0 1-.02.04l-.018.027a.538.538 0 0 1-.076.095c-.008.008-.015.016-.024.023a.568.568 0 0 1-.034.03l-.027.02-.01.007L7.334 13.9a.6.6 0 0 1-.668 0L.268 9.633l-.01-.007a.565.565 0 0 1-.061-.05l-.024-.023-.03-.033a.495.495 0 0 1-.063-.09.703.703 0 0 1-.02-.04l-.014-.029a.608.608 0 0 1-.016-.044l-.01-.03-.01-.05-.004-.025A.593.593 0 0 1 0 9.132V4.868c0-.026.002-.053.006-.078 0-.01.003-.018.004-.026l.01-.05a.504.504 0 0 1 .026-.074.716.716 0 0 1 .097-.16l.03-.032.024-.024a.584.584 0 0 1 .061-.049l.01-.007L6.666.1a.601.601 0 0 1 .668 0l6.398 4.266.01.007.027.02.034.03c.009.007.016.015.024.023a.514.514 0 0 1 .076.095l.018.028a.597.597 0 0 1 .02.04c.004.01.01.02.013.03l.016.043.01.03.01.05.005.026a.584.584 0 0 1 .005.078v4.266zM1.203 5.993v2.014L2.708 7 1.203 5.993zm5.195-1.461V1.726L1.685 4.868 3.79 6.276l2.608-1.744zm5.917.336L7.602 1.726v2.806l2.608 1.744 2.105-1.408zM1.685 9.132l4.713 3.142V9.468L3.79 7.724 1.685 9.132zm5.917.336v2.806l4.713-3.142-2.105-1.408-2.608 1.744zM7 5.577L4.872 7 7 8.423 9.128 7 7 5.577zm5.797 2.43V5.993L11.292 7l1.505 1.007z" fill="#050101" fill-rule="evenodd"/></symbol><symbol viewBox="0 0 24 24" id="coffee" xmlns="http://www.w3.org/2000/svg"><title>coffee</title><path d="M4 17h16a1 1 0 0 1 0 2H4a1 1 0 0 1 0-2zM17 7h1a2 2 0 1 1 0 4h-1c-.033 0-.067 0-.1-.002A5.002 5.002 0 0 1 12 15h-2a5 5 0 0 1-5-5V7a2 2 0 0 1 2-2h8a2 2 0 0 1 2 2zM7 7v3a3 3 0 0 0 3 3h2a3 3 0 0 0 3-3V7H7z" fill="#000" fill-rule="evenodd"/></symbol><symbol viewBox="0 0 24 24" id="columns" xmlns="http://www.w3.org/2000/svg"><title>columns</title><path d="M4 4h16a2 2 0 0 1 2 2v12a2 2 0 0 1-2 2H4a2 2 0 0 1-2-2V6a2 2 0 0 1 2-2zm12 2v12h4V6h-4zM4 6v12h4V6H4zm6 0v12h4V6h-4z" fill="#000" fill-rule="nonzero"/></symbol><symbol viewBox="0 0 24 24" id="comment" xmlns="http://www.w3.org/2000/svg"><title>comment</title><path d="M7.268 18.732L5 21v-4.157c-1.25-1.46-2-3.319-2-5.343C3 6.806 7.03 3 12 3s9 3.806 9 8.5-4.03 8.5-9 8.5a9.352 9.352 0 0 1-4.732-1.268z" fill="#000" fill-rule="evenodd"/></symbol><symbol viewBox="0 0 24 24" id="comment-o" xmlns="http://www.w3.org/2000/svg"><title>comment-o</title><path d="M5 21v-4.157c-1.25-1.46-2-3.319-2-5.343C3 6.806 7.03 3 12 3s9 3.806 9 8.5-4.03 8.5-9 8.5a9.352 9.352 0 0 1-4.732-1.268L5 21zm7-3c3.866 0 7-2.91 7-6.5S15.866 5 12 5s-7 2.91-7 6.5S8.134 18 12 18z" fill="#000" fill-rule="nonzero"/></symbol><symbol viewBox="0 0 24 24" id="commenting" xmlns="http://www.w3.org/2000/svg"><title>commenting</title><path d="M5 21v-4.157c-1.25-1.46-2-3.319-2-5.343C3 6.806 7.03 3 12 3s9 3.806 9 8.5-4.03 8.5-9 8.5a9.352 9.352 0 0 1-4.732-1.268L5 21zm7-3c3.866 0 7-2.91 7-6.5S15.866 5 12 5s-7 2.91-7 6.5S8.134 18 12 18zm-2.5-5a1.5 1.5 0 1 1 0-3 1.5 1.5 0 0 1 0 3zm5 0a1.5 1.5 0 1 1 0-3 1.5 1.5 0 0 1 0 3z" fill="#000" fill-rule="nonzero"/></symbol><symbol viewBox="0 0 24 24" id="comments" xmlns="http://www.w3.org/2000/svg"><title>comments</title><path d="M4.368 14.632L3 16v-2.8A5.64 5.64 0 0 1 2 10c0-3.314 2.91-6 6.5-6 3.254 0 5.95 2.207 6.425 5.088A6.57 6.57 0 0 1 16 9c3.314 0 6 2.462 6 5.5 0 1.125-.368 2.17-1 3.041V20l-1.225-1.225A6.32 6.32 0 0 1 16 20c-2.825 0-5.194-1.79-5.831-4.2-.533.13-1.092.2-1.669.2a6.81 6.81 0 0 1-4.132-1.368zM8.5 14c2.52 0 4.5-1.828 4.5-4 0-2.172-1.98-4-4.5-4S4 7.828 4 10c0 2.172 1.98 4 4.5 4zm3.546 1.03C12.336 16.687 13.972 18 16 18c2.24 0 4-1.6 4-3.5S18.24 11 16 11c-.389 0-.763.048-1.117.138-.338 1.626-1.387 3.018-2.837 3.891z" fill="#000" fill-rule="evenodd"/></symbol><symbol viewBox="0 0 24 24" id="compress" xmlns="http://www.w3.org/2000/svg"><title>compress</title><path d="M18 12h-6V6l2 2 3-3 2 2-3 3 2 2zM6 12h6v6l-2-2-3 3-2-2 3-3-2-2z" fill="#000" fill-rule="evenodd"/></symbol><symbol viewBox="0 0 24 24" id="credit-card" xmlns="http://www.w3.org/2000/svg"><title>credit-card</title><path d="M4 4h16a2 2 0 0 1 2 2v12a2 2 0 0 1-2 2H4a2 2 0 0 1-2-2V6a2 2 0 0 1 2-2zm0 2v3h16V6H4zm0 5v7h16v-7H4zm2 3v2h4v-2H6zm6 0v2h4v-2h-4z" fill="#000" fill-rule="nonzero"/></symbol><symbol viewBox="0 0 24 24" id="crop" xmlns="http://www.w3.org/2000/svg"><title>crop</title><path d="M16 20v-2H8c-1.1 0-2-.9-2-2V8H4a1 1 0 1 1 0-2h2V4a1 1 0 1 1 2 0v2h9l2-2 1 1-2 2v9h2a1 1 0 0 1 0 2h-2v2a1 1 0 0 1-2 0zm0-4V9l-7 7h7zM8 8v7l7-7H8z" fill="#000" fill-rule="evenodd"/></symbol><symbol viewBox="0 0 24 24" id="cry" xmlns="http://www.w3.org/2000/svg"><title>cry</title><path d="M7 13A6 6 0 1 0 7 1a6 6 0 0 0 0 12zm0 1A7 7 0 1 1 7 0a7 7 0 0 1 0 14zm2-3a2 2 0 1 0-4 0h1s0-1 1-1 1 1 1 1h1zm1-1s-1 .015-1-1c0-1.003 1-2 1-2s1 .985 1 2c0 1-1 1-1 1zM9 7a1 1 0 1 0 0-2 1 1 0 0 0 0 2zM5 7a1 1 0 1 0 0-2 1 1 0 0 0 0 2z" fill="#000" fill-rule="evenodd"/></symbol><symbol viewBox="0 0 24 24" id="cutlery" xmlns="http://www.w3.org/2000/svg"><title>cutlery</title><path d="M9 13v8a1 1 0 0 1-2 0v-8a2 2 0 0 1-2-2V4a2 2 0 0 1 2-2v6h2V2a2 2 0 0 1 2 2v7a2 2 0 0 1-2 2zm9-9v17a1 1 0 0 1-2 0v-6h-1a2 2 0 0 1-2-2V4a2 2 0 0 1 2-2h1a2 2 0 0 1 2 2z" fill="#000" fill-rule="evenodd"/></symbol><symbol viewBox="0 0 24 24" id="delete-link" xmlns="http://www.w3.org/2000/svg"><title>delete-link</title><path d="M11 9H7a3 3 0 0 0 0 6h4v2H7A5 5 0 0 1 7 7h4v2zm2 6h4a3 3 0 0 0 0-6h-4V7h4a5 5 0 0 1 0 10h-4v-2zm0-4h2a1 1 0 0 1 0 2h-2v-2zm-4 0h2v2H9a1 1 0 0 1 0-2z" fill="#000" fill-rule="nonzero"/></symbol><symbol viewBox="0 0 24 24" id="desktop" xmlns="http://www.w3.org/2000/svg"><title>desktop</title><path d="M13 18h2a1 1 0 0 1 0 2H9a1 1 0 0 1 0-2h2v-2H4a2 2 0 0 1-2-2V6a2 2 0 0 1 2-2h16a2 2 0 0 1 2 2v8a2 2 0 0 1-2 2h-7v2zM4 6v8h16V6H4z" fill="#000" fill-rule="evenodd"/></symbol><symbol viewBox="0 0 24 24" id="diamond" xmlns="http://www.w3.org/2000/svg"><title>diamond</title><path d="M12 17.876l6.626-7.952L16.164 5H7.836L5.374 9.924 12 17.876zM6.6 3h10.8l3.6 7.2L12 21 3 10.2 6.6 3z" fill="#000" fill-rule="nonzero"/></symbol><symbol viewBox="0 0 24 24" id="difference" xmlns="http://www.w3.org/2000/svg"><title>difference</title><path d="M15 15v4a2 2 0 0 1-2 2H5a2 2 0 0 1-2-2v-8a2 2 0 0 1 2-2h4V5a2 2 0 0 1 2-2h8a2 2 0 0 1 2 2v8a2 2 0 0 1-2 2h-4zm-4-6h4v4h4V5h-8v4zm-6 2v8h8v-4H9v-4H5z" fill="#000" fill-rule="evenodd"/></symbol><symbol viewBox="0 0 24 24" id="disabled" xmlns="http://www.w3.org/2000/svg"><title>disabled</title><path d="M12 22c5.523 0 10-4.477 10-10S17.523 2 12 2 2 6.477 2 12s4.477 10 10 10zm-4.906-3.68L18.32 7.094A8 8 0 0 1 7.094 18.32zM5.68 16.906A8 8 0 0 1 16.906 5.68L5.68 16.906z" fill="#000" fill-rule="evenodd"/></symbol><symbol viewBox="0 0 24 24" id="disappointed" xmlns="http://www.w3.org/2000/svg"><title>disappointed</title><path d="M7 13A6 6 0 1 0 7 1a6 6 0 0 0 0 12zm0 1A7 7 0 1 1 7 0a7 7 0 0 1 0 14zm0-5c-2.003 0-2.003 2-2.003 2H6s0-1 1-1 1 1 1 1h.997S9.003 9 7 9zm2.935-3.355a1 1 0 1 1-1.47-.49L8 5V4l3 1v1l-1.065-.355zm-4.4-.49a1 1 0 1 1-1.47.49L3 6V5l3-1v1l-.465.155z" fill="#000" fill-rule="evenodd"/></symbol><symbol viewBox="0 0 24 24" id="distribute-horizontally" xmlns="http://www.w3.org/2000/svg"><title>distribute-horizontally</title><path d="M7 21a1 1 0 0 1-2 0V3a1 1 0 1 1 2 0v18zm12 0a1 1 0 0 1-2 0V3a1 1 0 0 1 2 0v18zm-5-4a2 2 0 1 1-4 0V7a2 2 0 1 1 4 0v10z" fill="#000" fill-rule="evenodd"/></symbol><symbol viewBox="0 0 24 24" id="distribute-vertically" xmlns="http://www.w3.org/2000/svg"><title>distribute-vertically</title><path d="M7 10h10a2 2 0 1 1 0 4H7a2 2 0 1 1 0-4zm-4 7h18a1 1 0 0 1 0 2H3a1 1 0 0 1 0-2zM3 5h18a1 1 0 0 1 0 2H3a1 1 0 1 1 0-2z" fill="#000" fill-rule="evenodd"/></symbol><symbol viewBox="0 0 24 24" id="document" xmlns="http://www.w3.org/2000/svg"><title>document</title><path d="M15 4H6v16h12V7h-3V4zM6 2h10l4 4v14a2 2 0 0 1-2 2H6a2 2 0 0 1-2-2V4a2 2 0 0 1 2-2zm2 9h8v2H8v-2zm0 4h8v2H8v-2z" fill="#000" fill-rule="nonzero"/></symbol><symbol viewBox="0 0 24 24" id="download" xmlns="http://www.w3.org/2000/svg"><title>download</title><path d="M5 19h14a1 1 0 0 1 0 2H5a1 1 0 0 1 0-2zm8-5.825l3.243-3.242 1.414 1.414L12 17.004l-5.657-5.657 1.414-1.414L11 13.175V2h2v11.175z" fill="#000" fill-rule="evenodd"/></symbol><symbol viewBox="0 0 24 24" id="drop-down" xmlns="http://www.w3.org/2000/svg"><title>drop-down</title><path d="M5 8l7 8 7-8z" fill="#000" fill-rule="evenodd"/></symbol><symbol viewBox="0 0 24 24" id="drop-left" xmlns="http://www.w3.org/2000/svg"><title>drop-left</title><path d="M16 5l-8 7 8 7z" fill="#000" fill-rule="evenodd"/></symbol><symbol viewBox="0 0 24 24" id="drop-right" xmlns="http://www.w3.org/2000/svg"><title>drop-right</title><path d="M8 5v14l8-7z" fill="#000" fill-rule="evenodd"/></symbol><symbol viewBox="0 0 24 24" id="drop-up" xmlns="http://www.w3.org/2000/svg"><title>drop-up</title><path d="M12 8l7 8H5z" fill="#000" fill-rule="evenodd"/></symbol><symbol viewBox="0 0 24 24" id="edit" xmlns="http://www.w3.org/2000/svg"><title>edit</title><path d="M5 20h14a1 1 0 0 1 0 2H5a1 1 0 0 1 0-2zm-1-5L14 5l3 3L7 18H4v-3zM15 4l2-2 3 3-2.001 2.001L15 4z" fill="#000" fill-rule="evenodd"/></symbol><symbol viewBox="0 0 24 24" id="eject" xmlns="http://www.w3.org/2000/svg"><title>eject</title><path d="M7 16h10a1 1 0 0 1 0 2H7a1 1 0 0 1 0-2zm5.973-9.565l4.83 6.048c.359.448.214 1.054-.324 1.353a1.34 1.34 0 0 1-.648.164H7.169C6.523 14 6 13.563 6 13.024c0-.193.068-.381.196-.541l4.831-6.048c.358-.449 1.084-.57 1.622-.271.128.071.238.163.324.27z" fill="#000" fill-rule="evenodd"/></symbol><symbol viewBox="0 0 24 24" id="elipsis-h" xmlns="http://www.w3.org/2000/svg"><title>elipsis-h</title><path d="M18 14a2 2 0 1 1 0-4 2 2 0 0 1 0 4zM6 14a2 2 0 1 1 0-4 2 2 0 0 1 0 4zm6 0a2 2 0 1 1 0-4 2 2 0 0 1 0 4z" fill="#000" fill-rule="evenodd"/></symbol><symbol viewBox="0 0 24 24" id="elipsis-v" xmlns="http://www.w3.org/2000/svg"><title>elipsis-v</title><path d="M12 20a2 2 0 1 1 0-4 2 2 0 0 1 0 4zm0-6a2 2 0 1 1 0-4 2 2 0 0 1 0 4zm0-6a2 2 0 1 1 0-4 2 2 0 0 1 0 4z" fill="#000" fill-rule="evenodd"/></symbol><symbol viewBox="0 0 24 24" id="equalizer" xmlns="http://www.w3.org/2000/svg"><title>equalizer</title><path d="M13.17 7a3.001 3.001 0 0 1 5.66 0H21a1 1 0 0 1 0 2h-2.17a3.001 3.001 0 0 1-5.66 0H3a1 1 0 1 1 0-2h10.17zm-8 8a3.001 3.001 0 0 1 5.66 0H21a1 1 0 0 1 0 2H10.83a3.001 3.001 0 0 1-5.66 0H3a1 1 0 0 1 0-2h2.17zM16 9a1 1 0 1 0 0-2 1 1 0 0 0 0 2zm-8 8a1 1 0 1 0 0-2 1 1 0 0 0 0 2z" fill="#000" fill-rule="evenodd"/></symbol><symbol viewBox="0 0 24 24" id="eraser" xmlns="http://www.w3.org/2000/svg"><title>eraser</title><path d="M18 4v16a2 2 0 0 1-2 2H8a2 2 0 0 1-2-2V4a2 2 0 0 1 2-2h8a2 2 0 0 1 2 2zM8 4v4h8V4H8z" fill="#000" fill-rule="evenodd"/></symbol><symbol viewBox="0 0 24 24" id="expand" xmlns="http://www.w3.org/2000/svg"><title>expand</title><path d="M14 4h6v6l-2-2-4 4-2-2 4-4-2-2zm-4 16H4v-6l2 2 4-4 2 2-4 4 2 2z" fill="#000" fill-rule="evenodd"/></symbol><symbol viewBox="0 0 24 24" id="export" xmlns="http://www.w3.org/2000/svg"><title>export</title><path d="M13 5.828V17h-2V5.828L7.757 9.071 6.343 7.657 12 2l5.657 5.657-1.414 1.414L13 5.828zM4 16h2v4h12v-4h2v4c0 1.1-.9 2-2 2H6c-1.1 0-2-.963-2-2v-4z" fill="#000" fill-rule="evenodd"/></symbol><symbol viewBox="0 0 24 24" id="eye" xmlns="http://www.w3.org/2000/svg"><title>eye</title><path d="M2 12c.945-4.564 5.063-8 10-8s9.055 3.436 10 8c-.945 4.564-5.063 8-10 8s-9.055-3.436-10-8zm10 5a5 5 0 1 0 0-10 5 5 0 0 0 0 10zm0-2a3 3 0 1 0 0-6 3 3 0 0 0 0 6z" fill="#000" fill-rule="evenodd"/></symbol><symbol viewBox="0 0 14 14" id="facebook" xmlns="http://www.w3.org/2000/svg"><title>facebook</title><path d="M9.607 14V8.58h1.82l.273-2.113H9.607v-1.35c0-.611.17-1.028 1.047-1.028h1.12v-1.89a14.974 14.974 0 0 0-1.631-.083c-1.613 0-2.718.984-2.718 2.792v1.559H5.601v2.113h1.824V14H.773A.773.773 0 0 1 0 13.227V.773C0 .346.346 0 .773 0h12.454c.427 0 .773.346.773.773v12.454a.773.773 0 0 1-.773.773h-3.62z" fill="#000" fill-rule="evenodd"/></symbol><symbol viewBox="0 0 24 24" id="fast-backward" xmlns="http://www.w3.org/2000/svg"><title>fast-backward</title><path d="M5 12c0-.107.023-.216.072-.316a.617.617 0 0 1 .221-.253l6.86-4.35c.276-.174.623-.06.775.254a.725.725 0 0 1 .072.316V12c0-.106.023-.215.072-.315a.617.617 0 0 1 .221-.253l6.86-4.35c.276-.174.623-.06.775.254a.725.725 0 0 1 .072.316v8.698c0 .36-.255.651-.57.651a.516.516 0 0 1-.277-.082l-6.86-4.349A.671.671 0 0 1 13 12v4.35c0 .36-.255.651-.57.651a.516.516 0 0 1-.277-.082l-6.86-4.349A.671.671 0 0 1 5 12V16c0 .552-.5 1-1 1s-1-.448-1-1V8a1 1 0 1 1 2 0v4z" fill="#000" fill-rule="evenodd"/></symbol><symbol viewBox="0 0 24 24" id="fast-forward" xmlns="http://www.w3.org/2000/svg"><title>fast-forward</title><path d="M19 12c0 .228-.106.45-.293.57l-6.86 4.348a.516.516 0 0 1-.277.082c-.315 0-.57-.291-.57-.651v-4.35c0 .23-.106.451-.293.57l-6.86 4.35A.516.516 0 0 1 3.57 17c-.315 0-.57-.291-.57-.651V7.651c0-.11.025-.22.072-.316.152-.314.5-.428.775-.253l6.86 4.349c.093.059.17.147.221.253.049.1.072.209.072.315V7.651c0-.11.025-.22.072-.316.152-.314.5-.428.775-.253l6.86 4.349c.093.059.17.147.221.253.049.1.072.209.072.315V8a1 1 0 0 1 2 0v8c0 .552-.5 1-1 1s-1-.448-1-1v-4z" fill="#000" fill-rule="nonzero"/></symbol><symbol viewBox="0 0 24 24" id="feather" xmlns="http://www.w3.org/2000/svg"><title>feather</title><g fill="none" fill-rule="evenodd"><path fill-opacity=".2" fill="#66D5FF" d="M2 2h20v20H2z"/><path d="M22 2L2 22" stroke="#C1C0C1" stroke-width=".02" stroke-linecap="square"/><circle stroke="#C1C0C1" stroke-width=".02" cx="12" cy="12" r="9.99"/><circle stroke="#C1C0C1" stroke-width=".02" cx="12" cy="12" r="3.99"/><circle stroke="#CCD2D6" stroke-width=".02" cx="5" cy="5" r="2"/><circle stroke="#CCD2D6" stroke-width=".02" cx="19" cy="5" r="2"/><circle stroke="#CCD2D6" stroke-width=".02" cx="5" cy="19" r="2"/><circle stroke="#CCD2D6" stroke-width=".02" cx="19" cy="19" r="2"/><path d="M2 2l20 20" stroke="#C1C0C1" stroke-width=".02" stroke-linecap="square"/><rect stroke="#C1C0C1" stroke-width=".02" x="4.01" y="2.01" width="15.98" height="19.98" rx="2"/><rect stroke="#C1C0C1" stroke-width=".02" x="3.01" y="3.01" width="17.98" height="17.98" rx="2"/><rect stroke="#C1C0C1" stroke-width=".02" transform="rotate(90 12 12)" x="4.01" y="2.01" width="15.98" height="19.98" rx="2"/><path d="M20.716 3C19.763 10.123 14.123 15.763 7 16.716 7.953 9.593 13.593 3.953 20.716 3z" fill="#D8D8D8"/><path fill="#D8D8D8" d="M11.485 11l1.414 1.415L4.414 20.9 3 19.486z"/></g></symbol><symbol viewBox="0 0 24 24" id="feed" xmlns="http://www.w3.org/2000/svg"><title>feed</title><path d="M18 19h-2.038C16 12.618 10.382 7 4 7.038V5c7.732 0 14 6.268 14 14zm-4 0h-2.055C12 14.828 8.172 11 4 11.055V9c5.523 0 10 4.477 10 10zm-8 0a2 2 0 1 1 0-4 2 2 0 0 1 0 4z" fill="#000" fill-rule="evenodd"/></symbol><symbol viewBox="0 0 24 24" id="file" xmlns="http://www.w3.org/2000/svg"><title>file</title><path d="M6 2h10l4 4v14a2 2 0 0 1-2 2H6a2 2 0 0 1-2-2V4a2 2 0 0 1 2-2zm9.172 2H6v16h12V6.828h-2.828V4z" fill="#000" fill-rule="evenodd"/></symbol><symbol viewBox="0 0 24 24" id="file-audio" xmlns="http://www.w3.org/2000/svg"><title>file-audio</title><path d="M6 2h10l4 4v14a2 2 0 0 1-2 2H6a2 2 0 0 1-2-2V4a2 2 0 0 1 2-2zm9.172 2H6v16h12V6.828h-2.828V4zM15 14.085V11h-4v5.5a1.5 1.5 0 1 1-1-1.415V10a1 1 0 0 1 1-1h4a1 1 0 0 1 1 1v5.5a1.5 1.5 0 1 1-1-1.415z" fill="#000" fill-rule="evenodd"/></symbol><symbol viewBox="0 0 24 24" id="file-excel" xmlns="http://www.w3.org/2000/svg"><title>file-excel</title><path d="M6 2h10l4 4v14a2 2 0 0 1-2 2H6a2 2 0 0 1-2-2V4a2 2 0 0 1 2-2zm9 2H6v16h12V7h-3V4zm-8 8h3l2 2 2-2h3l-3 3 3 3h-3l-2-2-2 2H7l3-3-3-3z" fill="#000" fill-rule="evenodd"/></symbol><symbol viewBox="0 0 24 24" id="file-image" xmlns="http://www.w3.org/2000/svg"><title>file-image</title><path d="M6 2h10l4 4v14a2 2 0 0 1-2 2H6a2 2 0 0 1-2-2V4a2 2 0 0 1 2-2zm9.172 2H6v16h12V6.828h-2.828V4zM15 14a1 1 0 1 1 0-2 1 1 0 0 1 0 2zm-7 2l3.07-3L14 16l1-1 1 1v2H8v-2z" fill="#000" fill-rule="evenodd"/></symbol><symbol viewBox="0 0 24 24" id="file-movie" xmlns="http://www.w3.org/2000/svg"><title>file-movie</title><path d="M6 2h10l4 4v14a2 2 0 0 1-2 2H6a2 2 0 0 1-2-2V4a2 2 0 0 1 2-2zm9.172 2H6v16h12V6.828h-2.828V4zM12 13a1 1 0 0 1 1 1v3a1 1 0 0 1-1 1H9a1 1 0 0 1-1-1v-3a1 1 0 0 1 1-1h3zm1 2.5l3-1.5v3l-3-1.5z" fill="#000" fill-rule="evenodd"/></symbol><symbol viewBox="0 0 24 24" id="file-powerpoint" xmlns="http://www.w3.org/2000/svg"><title>file-powerpoint</title><path d="M6 2h10l4 4v14a2 2 0 0 1-2 2H6a2 2 0 0 1-2-2V4a2 2 0 0 1 2-2zm9.172 2H6v16h12V6.828h-2.828V4zM10 16v2H8v-8h5a3 3 0 0 1 0 6h-3zm0-4v2h3a1 1 0 0 0 0-2h-3z" fill="#000" fill-rule="evenodd"/></symbol><symbol viewBox="0 0 24 24" id="file-word" xmlns="http://www.w3.org/2000/svg"><title>file-word</title><path d="M6 2h10l4 4v14a2 2 0 0 1-2 2H6a2 2 0 0 1-2-2V4a2 2 0 0 1 2-2zm9 2H6v16h12V7h-3V4zm-8 8h2l1 3 1-3h2l1 3 1-3h2l-2 6h-2l-1-3-1 3H9l-2-6z" fill="#000" fill-rule="evenodd"/></symbol><symbol viewBox="0 0 24 24" id="file-zip" xmlns="http://www.w3.org/2000/svg"><title>file-zip</title><path d="M6 2h10l4 4v14a2 2 0 0 1-2 2H6a2 2 0 0 1-2-2V4a2 2 0 0 1 2-2zm9.172 2H6v16h12V6.828h-2.828V4zM8 4h2v2H8V4zm2 2h2v2h-2V6zM8 8h2v2H8V8zm2 2h2v2h-2v-2zm-1 4l1-1 1 1v4H9v-4z" fill="#000" fill-rule="evenodd"/></symbol><symbol viewBox="0 0 24 24" id="filter" xmlns="http://www.w3.org/2000/svg"><title>filter</title><path d="M13 12v8l-2 2V12h-.003L4 7V4a2 2 0 0 1 2-2h12a2 2 0 0 1 2 2v3l-7 5zM6 5.971L11.638 10h.721L18 5.97V4H6v1.971z" fill="#000" fill-rule="nonzero"/></symbol><symbol viewBox="0 0 24 24" id="flag" xmlns="http://www.w3.org/2000/svg"><title>flag</title><path d="M6 12v9a1 1 0 0 1-2 0V4c0-1.1.9-2 2-2h6c1.1 0 1.999.9 1.999 2H18a2 2 0 0 1 2 2v6a2 2 0 0 1-2 2h-5a2 2 0 0 1-1.997-2H6zm0-8v6h7v2h5.002V6H12V4H6z" fill="#000" fill-rule="evenodd"/></symbol><symbol viewBox="0 0 24 24" id="folder" xmlns="http://www.w3.org/2000/svg"><title>folder</title><path d="M11 5h8a2 2 0 0 1 2 2v12a2 2 0 0 1-2 2H5a2 2 0 0 1-2-2V5c0-1.1.9-2 2-2h4l2 2zM5 7v12h14V7H5z" fill="#000" fill-rule="nonzero"/></symbol><symbol viewBox="0 0 24 24" id="folder-open" xmlns="http://www.w3.org/2000/svg"><title>folder-open</title><path d="M11 5h8a2 2 0 0 1 2 2v12a2 2 0 0 1-2 2H5a2 2 0 0 1-2-2V5c0-1.1.9-2 2-2h4l2 2zm-2 6v8h10v-8H9zM5 7v12h2V9h12V7H5z" fill="#000" fill-rule="nonzero"/></symbol><symbol viewBox="0 0 24 24" id="fork" xmlns="http://www.w3.org/2000/svg"><title>fork</title><path d="M9 7.83V12h3a3 3 0 0 0 3-3V7.83a3.001 3.001 0 1 1 2 0V9a5 5 0 0 1-5 5H9v2.17a3.001 3.001 0 1 1-2 0V7.83a3.001 3.001 0 1 1 2 0zM8 20a1 1 0 1 0 0-2 1 1 0 0 0 0 2zm8-14a1 1 0 1 0 0-2 1 1 0 0 0 0 2zM8 6a1 1 0 1 0 0-2 1 1 0 0 0 0 2z" fill="#000" fill-rule="evenodd"/></symbol><symbol viewBox="0 0 24 24" id="forward" xmlns="http://www.w3.org/2000/svg"><title>forward</title><path d="M12 12V7.65c0-.11.025-.22.072-.316.152-.314.5-.428.775-.253l6.86 4.349c.093.059.17.147.221.253.153.314.054.71-.221.885l-6.86 4.35a.516.516 0 0 1-.277.081c-.315 0-.57-.291-.57-.651v-4.35c0 .23-.106.451-.293.57l-6.86 4.35A.516.516 0 0 1 4.57 17c-.315 0-.57-.291-.57-.651V7.651c0-.11.025-.22.072-.316.152-.314.5-.428.775-.253l6.86 4.349c.093.059.17.147.221.253.049.1.072.209.072.315z" fill="#000" fill-rule="nonzero"/></symbol><symbol viewBox="0 0 24 24" id="frowing" xmlns="http://www.w3.org/2000/svg"><title>frowing</title><path d="M8.5 12a1.5 1.5 0 1 0 0-3 1.5 1.5 0 0 0 0 3zm6.5 5a3 3 0 0 0-6 0h1s.317-2 2-2 1.996 2 1.996 2H15zm.5-5a1.5 1.5 0 1 0 0-3 1.5 1.5 0 0 0 0 3zM12 20a8 8 0 1 0 0-16 8 8 0 0 0 0 16zm0 2C6.477 22 2 17.523 2 12S6.477 2 12 2s10 4.477 10 10-4.477 10-10 10z" fill="#000" fill-rule="evenodd"/></symbol><symbol viewBox="0 0 24 24" id="gamepad" xmlns="http://www.w3.org/2000/svg"><title>gamepad</title><path d="M13 15h-2a5 5 0 1 1-4-8h10a5 5 0 1 1-4 8zm-5-4v-1a1 1 0 1 0-2 0v1H5a1 1 0 0 0 0 2h1v1a1 1 0 0 0 2 0v-1h1a1 1 0 0 0 0-2H8zm9 0a1 1 0 1 0 0-2 1 1 0 0 0 0 2zm-1 3a1 1 0 1 0 0-2 1 1 0 0 0 0 2zm3-1a1 1 0 1 0 0-2 1 1 0 0 0 0 2z" fill="#000" fill-rule="evenodd"/></symbol><symbol viewBox="0 0 24 24" id="gear" xmlns="http://www.w3.org/2000/svg"><title>gear</title><path d="M11 19.938a7.96 7.96 0 0 1-3.906-1.618l-1.458 1.458-1.414-1.414 1.458-1.458A7.96 7.96 0 0 1 4.062 13H2v-2h2.062A7.96 7.96 0 0 1 5.68 7.094L4.222 5.636l1.414-1.414L7.094 5.68A7.96 7.96 0 0 1 11 4.062V2h2v2.062a7.96 7.96 0 0 1 3.906 1.618l1.458-1.458 1.414 1.414-1.458 1.458A7.96 7.96 0 0 1 19.938 11H22v2h-2.062a7.96 7.96 0 0 1-1.618 3.906l1.458 1.458-1.414 1.414-1.458-1.458A7.96 7.96 0 0 1 13 19.938V22h-2v-2.062zM12 18a6 6 0 1 0 0-12 6 6 0 0 0 0 12z" fill="#000" fill-rule="nonzero"/></symbol><symbol viewBox="0 0 24 24" id="gift" xmlns="http://www.w3.org/2000/svg"><title>gift</title><path d="M19 12v8a2 2 0 0 1-2 2H7a2 2 0 0 1-2-2v-8a2 2 0 0 1-2-2V8a2 2 0 0 1 2-2h1.17A3 3 0 1 1 12 5a3 3 0 1 1 5.83 1H19a2 2 0 0 1 2 2v2a2 2 0 0 1-2 2zm-8-4H5v2h6V8zm2 0v2h6V8h-6zm-6 4v8h10v-8H7zm2-6h1V5a1 1 0 1 0-1 1zm6 0a1 1 0 1 0-1-1v1h1z" fill="#000" fill-rule="evenodd"/></symbol><symbol viewBox="0 0 14 14" id="git" xmlns="http://www.w3.org/2000/svg"><title>git</title><path d="M13.736 6.376L7.623.264a.902.902 0 0 0-1.275 0L5.08 1.534l1.61 1.61a1.07 1.07 0 0 1 1.356 1.365L9.597 6.06a1.073 1.073 0 1 1-.642.605L7.506 5.218v3.809a1.073 1.073 0 1 1-.882-.031V5.15a1.072 1.072 0 0 1-.582-1.407L4.455 2.158.264 6.348a.902.902 0 0 0 0 1.275l6.113 6.113a.902.902 0 0 0 1.275 0l6.084-6.084a.902.902 0 0 0 0-1.276" fill="#000" fill-rule="evenodd"/></symbol><symbol viewBox="0 0 14 14" id="github" xmlns="http://www.w3.org/2000/svg"><title>github</title><path d="M7 0C3.132 0 0 3.132 0 7a6.995 6.995 0 0 0 4.786 6.641c.35.062.482-.149.482-.332 0-.166-.01-.718-.01-1.304-1.758.324-2.213-.429-2.353-.823-.079-.2-.42-.822-.717-.988-.246-.132-.596-.455-.01-.464.552-.009.946.508 1.077.717.63 1.06 1.636.762 2.039.578.061-.455.245-.761.446-.936-1.558-.175-3.185-.779-3.185-3.457 0-.76.271-1.39.717-1.88-.07-.176-.314-.893.07-1.856 0 0 .587-.183 1.925.718a6.495 6.495 0 0 1 1.75-.236c.595 0 1.19.078 1.75.236 1.34-.91 1.926-.718 1.926-.718.385.963.14 1.68.07 1.855.446.49.717 1.111.717 1.881 0 2.687-1.636 3.282-3.194 3.457.254.218.473.638.473 1.295 0 .936-.009 1.688-.009 1.925 0 .184.131.402.481.332A7.011 7.011 0 0 0 14 7c0-3.868-3.133-7-7-7z" fill="#000" fill-rule="evenodd"/></symbol><symbol viewBox="0 0 14 12" id="github-alt" xmlns="http://www.w3.org/2000/svg"><title>github-alt</title><path d="M12.863 2.922c.113-.28.48-1.391-.114-2.896 0 0-.919-.29-3.01 1.137C8.864.918 7.927.883 7 .883c-.928 0-1.864.035-2.739.28C2.17-.272 1.251.026 1.251.026c-.595 1.505-.227 2.616-.113 2.896C.427 3.683 0 4.663 0 5.853c0 4.506 2.914 5.521 6.982 5.521 4.07 0 7.018-1.015 7.018-5.52 0-1.19-.429-2.17-1.137-2.932zM7 10.517c-2.888 0-5.232-.131-5.232-2.931 0-.665.332-1.295.892-1.812.936-.857 2.537-.402 4.34-.402 1.811 0 3.395-.455 4.34.402.569.517.893 1.138.893 1.812 0 2.79-2.346 2.93-5.233 2.93zM4.804 6.133c-.578 0-1.05.7-1.05 1.558 0 .857.472 1.566 1.05 1.566.577 0 1.05-.7 1.05-1.566 0-.867-.473-1.558-1.05-1.558zm4.392 0c-.577 0-1.05.691-1.05 1.558 0 .866.473 1.566 1.05 1.566.578 0 1.05-.7 1.05-1.566 0-.867-.463-1.558-1.05-1.558z" fill="#000" fill-rule="evenodd"/></symbol><symbol viewBox="0 0 24 24" id="globe" xmlns="http://www.w3.org/2000/svg"><title>globe</title><path d="M2 12C2 6.477 6.477 2 12 2s10 4.477 10 10-4.477 10-10 10S2 17.523 2 12zm2 0a8 8 0 1 0 16 0 8 8 0 0 0-16 0zm4.252-1.552c.243-.508.643-1.948.932-1.948.288 0 .183.723.441.786.217.053.05-.323.653-.39s1.26.302 1.26.302.712.177 1.369 0c0 0-.347-.526.078-.698.424-.172 1.002.464 1.023.875.021.411-.944.687-.944.687l.944.567s.277-.878.867-.887c.525-.01 1.183.95.875 1.383-.308.433-.506.135-.506.135s-.94.952-1.236 1.123c-.295.17-.708 0-.708 0s-.175.324 0 .473c.355.366 1.277.73 1.277.73s2.835.461 2.923 1.039c.088.578-2.256 3.5-2.625 3.5H14c-.357-.63.577-2.644.577-2.644s-.48-.532-.577-.856c-.096-.324.186-.894.186-.894l-1.279-.589s-.68 0-1.017-.267c-.337-.267-.515-1.75-.515-1.75l-1.22-.894s-1.06 1.346-1.405 1.174c-.346-.172-.74-.45-.498-.957zm6.57-2.098c-.844 0-2.875-1.074-2.534-1.65 0-.826 2.135-.702 2.593-.702.458 0 1.58.354 2.203.85.623.495-.263 1.203-.572 1.502-.31.3-.845 0-1.69 0z" fill="#000" fill-rule="evenodd"/></symbol><symbol viewBox="0 0 14 14" id="google" xmlns="http://www.w3.org/2000/svg"><title>google</title><path d="M6.993 8.33V5.726h6.552c.098.441.175.854.175 1.435C13.72 11.158 11.039 14 7 14c-3.864 0-7-3.136-7-7s3.136-7 7-7c1.89 0 3.472.693 4.683 1.827L9.695 3.759C9.191 3.283 8.309 2.723 7 2.723c-2.317 0-4.207 1.925-4.207 4.284S4.683 11.291 7 11.291c2.681 0 3.668-1.855 3.85-2.954H6.993V8.33z" fill="#000" fill-rule="nonzero"/></symbol><symbol viewBox="0 0 14 9" id="google-plus" xmlns="http://www.w3.org/2000/svg"><title>google-plus</title><path d="M4.455 3.818H8.66c.038.223.07.446.07.738 0 2.546-1.706 4.353-4.276 4.353A4.451 4.451 0 0 1 0 4.455 4.451 4.451 0 0 1 4.455 0a4.27 4.27 0 0 1 2.984 1.165L6.23 2.329c-.33-.318-.91-.687-1.775-.687-1.521 0-2.762 1.26-2.762 2.813 0 1.552 1.24 2.812 2.762 2.812 1.762 0 2.424-1.266 2.526-1.922H4.455V3.818zm9.545 0v1.273h-1.273v1.273h-1.272V5.09h-1.273V3.818h1.273V2.545h1.272v1.273H14z" fill="#000" fill-rule="evenodd"/></symbol><symbol viewBox="0 0 24 24" id="hash" xmlns="http://www.w3.org/2000/svg"><title>hash</title><path d="M10 15h4V9h-4v6zm0 2v3a1 1 0 0 1-2 0v-3H5a1 1 0 0 1 0-2h3V9H5a1 1 0 1 1 0-2h3V4a1 1 0 1 1 2 0v3h4V4a1 1 0 0 1 2 0v3h3a1 1 0 0 1 0 2h-3v6h3a1 1 0 0 1 0 2h-3v3a1 1 0 0 1-2 0v-3h-4z" fill="#000" fill-rule="evenodd"/></symbol><symbol viewBox="0 0 24 24" id="headphone" xmlns="http://www.w3.org/2000/svg"><title>headphone</title><path d="M19 13a2 2 0 0 1 2 2v4a2 2 0 1 1-4 0v-9a5 5 0 0 0-10 0v9a2 2 0 1 1-4 0v-4a2 2 0 0 1 2-2v-3a7 7 0 1 1 14 0v3z" fill="#000" fill-rule="evenodd"/></symbol><symbol viewBox="0 0 24 24" id="heart" xmlns="http://www.w3.org/2000/svg"><title>heart</title><path d="M12 20c-2.205-.48-9-4.24-9-11a5 5 0 0 1 9-3 5 5 0 0 1 9 3c0 6.76-6.795 10.52-9 11z" fill="#000" fill-rule="evenodd"/></symbol><symbol viewBox="0 0 24 24" id="heart-o" xmlns="http://www.w3.org/2000/svg"><title>heart-o</title><path d="M12 20c-2.205-.48-9-4.24-9-11a5 5 0 0 1 9-3 5 5 0 0 1 9 3c0 6.76-6.795 10.52-9 11zm0-2c3.12-.93 7-4.805 7-9a3 3 0 0 0-3-3c-1.305 0-2.638.833-4 2.5C10.638 6.833 9.305 6 8 6a3 3 0 0 0-3 3c0 4.195 3.88 8.07 7 9z" fill="#000" fill-rule="evenodd"/></symbol><symbol viewBox="0 0 24 24" id="home" xmlns="http://www.w3.org/2000/svg"><title>home</title><defs><path d="M12 3l7.874 6.3A3 3 0 0 1 21 11.641V19a2 2 0 0 1-2 2h-3.5a2 2 0 0 1-2-2v-2.35a1 1 0 0 0-1-1h-1.001a1 1 0 0 0-1 1V19a2 2 0 0 1-2 2H5a2 2 0 0 1-2-2v-7.839A2 2 0 0 1 3.75 9.6L12 3z" id="eha"/></defs><g fill="none" fill-rule="evenodd"><use fill="#FFF" xlink:href="#eha"/><path stroke="#000" stroke-width="2" d="M12 4.28l-7.625 6.1a1 1 0 0 0-.375.781V19a1 1 0 0 0 1 1h3.499a1 1 0 0 0 1-1v-2.35a2 2 0 0 1 2-2H12.5a2 2 0 0 1 2 2V19a1 1 0 0 0 1 1H19a1 1 0 0 0 1-1v-7.358a2 2 0 0 0-.75-1.562L12 4.28z"/></g></symbol><symbol viewBox="0 0 24 24" id="import" xmlns="http://www.w3.org/2000/svg"><title>import</title><path d="M13 13.175l3.243-3.242 1.414 1.414L12 17.004l-5.657-5.657 1.414-1.414L11 13.175V2h2v11.175zM4 16h2v4h12v-4h2v4c0 1.1-.9 2-2 2H6c-1.1 0-2-.963-2-2v-4z" fill="#000" fill-rule="evenodd"/></symbol><symbol viewBox="0 0 24 24" id="info" xmlns="http://www.w3.org/2000/svg"><title>info</title><path d="M12 20a8 8 0 1 0 0-16 8 8 0 0 0 0 16zm0 2C6.477 22 2 17.523 2 12S6.477 2 12 2s10 4.477 10 10-4.477 10-10 10zm-1-11v6h2v-6h-2zm0-4h2v2h-2V7z" fill="#000" fill-rule="nonzero"/></symbol><symbol viewBox="0 0 24 24" id="insert-link" xmlns="http://www.w3.org/2000/svg"><title>insert-link</title><path d="M11 9H7a3 3 0 0 0 0 6h4v2H7A5 5 0 0 1 7 7h4v2zm2 6h4a3 3 0 0 0 0-6h-4V7h4a5 5 0 0 1 0 10h-4v-2zm-4-4h6a1 1 0 0 1 0 2H9a1 1 0 0 1 0-2z" fill="#000" fill-rule="nonzero"/></symbol><symbol viewBox="0 0 14 14" id="instagram" xmlns="http://www.w3.org/2000/svg"><title>instagram</title><path d="M7 0C5.099 0 4.86.008 4.114.042c-.745.034-1.254.152-1.7.326-.46.178-.85.418-1.24.807-.388.389-.628.78-.807 1.24-.173.445-.29.954-.325 1.699C.008 4.86 0 5.099 0 7c0 1.901.008 2.14.042 2.886.034.745.152 1.254.325 1.7.18.46.419.85.808 1.24.389.388.78.628 1.24.807.445.173.954.29 1.699.325.747.034.985.042 2.886.042 1.901 0 2.14-.008 2.886-.042.745-.034 1.254-.152 1.7-.325.46-.18.85-.419 1.24-.808.388-.389.628-.78.807-1.24.173-.445.29-.954.325-1.699C13.992 9.14 14 8.901 14 7c0-1.901-.008-2.14-.042-2.886-.034-.745-.152-1.254-.325-1.7a3.431 3.431 0 0 0-.808-1.24 3.43 3.43 0 0 0-1.24-.806C11.14.194 10.631.076 9.886.042 9.14.008 8.901 0 7 0m0 1.261c1.87 0 2.09.007 2.829.041.682.031 1.053.145 1.3.241.326.127.56.279.804.524.245.245.397.478.524.805.096.246.21.617.24 1.3.035.738.042.959.042 2.828 0 1.87-.007 2.09-.041 2.829-.031.682-.145 1.053-.241 1.3a2.17 2.17 0 0 1-.524.804 2.169 2.169 0 0 1-.805.524c-.246.096-.617.21-1.3.24-.737.035-.959.042-2.828.042-1.87 0-2.09-.007-2.829-.041-.682-.031-1.053-.145-1.3-.241a2.168 2.168 0 0 1-.804-.524 2.169 2.169 0 0 1-.524-.805c-.096-.246-.21-.617-.24-1.3C1.267 9.09 1.26 8.87 1.26 7c0-1.87.007-2.09.041-2.829.031-.682.145-1.053.241-1.3.127-.326.279-.56.524-.804.245-.245.478-.397.805-.524.246-.096.617-.21 1.3-.241.738-.034.959-.04 2.828-.04m0 8.071a2.333 2.333 0 1 1 0-4.666 2.333 2.333 0 0 1 0 4.666m0-5.928a3.595 3.595 0 1 0 0 7.19 3.595 3.595 0 0 0 0-7.19m4.577-.142a.84.84 0 1 1-1.68 0 .84.84 0 0 1 1.68 0" fill="#000" fill-rule="evenodd"/></symbol><symbol viewBox="0 0 24 24" id="intersect" xmlns="http://www.w3.org/2000/svg"><title>intersect</title><path d="M15 15v4a2 2 0 0 1-2 2H5a2 2 0 0 1-2-2v-8a2 2 0 0 1 2-2h4V5a2 2 0 0 1 2-2h8a2 2 0 0 1 2 2v8a2 2 0 0 1-2 2h-4zm-5-1h4v-4h-4v4z" fill="#000" fill-rule="evenodd"/></symbol><symbol viewBox="0 0 24 24" id="italic" xmlns="http://www.w3.org/2000/svg"><title>italic</title><path d="M8.97 19L12.72 5H10a1 1 0 1 1 0-2h8a1 1 0 0 1 0 2h-3.208L11.04 19H14a1 1 0 0 1 0 2H6a1 1 0 0 1 0-2h2.97z" fill="#000" fill-rule="evenodd"/></symbol><symbol viewBox="0 0 24 24" id="key" xmlns="http://www.w3.org/2000/svg"><title>key</title><path d="M11.9 11H22v4.004c0 .546-.45.996-1 .996s-1-.45-1-.996V13h-2v2c0 .55-.45 1-1 1s-1-.45-1-1v-2h-4.1A5.002 5.002 0 0 1 2 12a5 5 0 0 1 9.9-1zM7 15a3 3 0 1 0 0-6 3 3 0 0 0 0 6z" fill="#000" fill-rule="nonzero"/></symbol><symbol viewBox="0 0 24 24" id="keyboard" xmlns="http://www.w3.org/2000/svg"><title>keyboard</title><path d="M2 8a2 2 0 0 1 2-2h16a2 2 0 0 1 2 2v8a2 2 0 0 1-2 2H4a2 2 0 0 1-2-2V8zm15 6v2h3v-2h-3zm-3 0v2h2v-2h-2zm-7 0v2h6v-2H7zm-3 0v2h2v-2H4zm14-3v2h2v-2h-2zm-3 0v2h2v-2h-2zm-3 0v2h2v-2h-2zm-3 0v2h2v-2H9zm-5 0v2h4v-2H4zm12-3v2h4V8h-4zm-3 0v2h2V8h-2zm-3 0v2h2V8h-2zM7 8v2h2V8H7zM4 8v2h2V8H4z" fill="#000" fill-rule="evenodd"/></symbol><symbol viewBox="0 0 24 24" id="kitchen-cooker" xmlns="http://www.w3.org/2000/svg"><title>kitchen-cooker</title><path d="M4.268 20H4a2 2 0 0 1-2-2V6a2 2 0 0 1 2-2h16a2 2 0 0 1 2 2v12a2 2 0 0 1-2 2h-.268a2 2 0 0 1-3.464 0H7.732a2 2 0 0 1-3.464 0zM4 6v12h16V6H4zm2 6h12v4H6v-4zm0-4h5v2H6V8zm4 5v1h4v-1h-4zm4-3a1 1 0 1 1 0-2 1 1 0 0 1 0 2zm3 0a1 1 0 1 1 0-2 1 1 0 0 1 0 2z" fill="#000" fill-rule="nonzero"/></symbol><symbol viewBox="0 0 24 24" id="laptop" xmlns="http://www.w3.org/2000/svg"><title>laptop</title><path d="M21 20H3a1 1 0 0 1 0-2h18a1 1 0 0 1 0 2zM5 6v8h14V6H5zm0-2h14a2 2 0 0 1 2 2v8a2 2 0 0 1-2 2H5a2 2 0 0 1-2-2V6a2 2 0 0 1 2-2z" fill="#000" fill-rule="nonzero"/></symbol><symbol viewBox="0 0 24 24" id="layer" xmlns="http://www.w3.org/2000/svg"><title>layer</title><path d="M6 8l6 3 6-3-6-3-6 3zm6.489-4.884l7.993 4.076c.486.248.661.81.391 1.257a.97.97 0 0 1-.39.359l-7.994 4.076a1.086 1.086 0 0 1-.978 0L3.518 8.808c-.486-.248-.661-.81-.391-1.257a.97.97 0 0 1 .39-.359l7.994-4.076c.304-.155.674-.155.978 0zm0 13.766a1.07 1.07 0 0 1-.978 0l-7.993-4.147c-.486-.252-.661-.824-.391-1.278a.976.976 0 0 1 .39-.365.818.818 0 0 1 .755 0l7.24 3.755c.303.158.673.158.977 0l7.239-3.755a.818.818 0 0 1 .754 0c.486.252.661.824.391 1.278a.976.976 0 0 1-.39.365l-7.994 4.147zm0 4a1.07 1.07 0 0 1-.978 0l-7.993-4.147c-.486-.252-.661-.824-.391-1.278a.976.976 0 0 1 .39-.365.818.818 0 0 1 .755 0l7.24 3.755c.303.158.673.158.977 0l7.239-3.755a.818.818 0 0 1 .754 0c.486.252.661.824.391 1.278a.976.976 0 0 1-.39.365l-7.994 4.147z" fill="#000" fill-rule="nonzero"/></symbol><symbol viewBox="0 0 24 24" id="layout" xmlns="http://www.w3.org/2000/svg"><title>layout</title><path d="M4 4h16a2 2 0 0 1 2 2v12a2 2 0 0 1-2 2H4a2 2 0 0 1-2-2V6a2 2 0 0 1 2-2zm0 2v5h4V6H4zm0 7v5h4v-5H4zm6-7v12h10V6H10z" fill="#000" fill-rule="nonzero"/></symbol><symbol viewBox="0 0 24 24" id="line-chart" xmlns="http://www.w3.org/2000/svg"><title>line-chart</title><path d="M5.823 14.177a2 2 0 1 1-1-1l2.354-2.354a2 2 0 1 1 3.646 0l2.354 2.354a1.993 1.993 0 0 1 1.646 0l3.354-3.354a2 2 0 1 1 1 1l-3.354 3.354a2 2 0 1 1-3.646 0l-2.354-2.354a1.993 1.993 0 0 1-1.646 0l-2.354 2.354z" fill="#000" fill-rule="evenodd"/></symbol><symbol viewBox="0 0 24 24" id="link" xmlns="http://www.w3.org/2000/svg"><title>link</title><path d="M11.874 11h.252c.444-1.725 2.01-3 3.874-3h2a4 4 0 1 1 0 8h-2a4.002 4.002 0 0 1-3.874-3h-.252A4.002 4.002 0 0 1 8 16H6a4 4 0 1 1 0-8h2a4.002 4.002 0 0 1 3.874 3zm-2.124.031A2 2 0 0 0 8 10H6a2 2 0 1 0 0 4h2a2 2 0 0 0 1.75-1.031 1 1 0 0 1 0-1.938zM14 12.97A2 2 0 0 0 15.75 14h2a2 2 0 1 0 0-4h-2A2 2 0 0 0 14 11.031a1 1 0 0 1 0 1.938z" fill="#000" fill-rule="evenodd"/></symbol><symbol viewBox="0 0 24 24" id="link-external" xmlns="http://www.w3.org/2000/svg"><title>link-external</title><path d="M5 11v8h8v-8H5zm0-2h8a2 2 0 0 1 2 2v8a2 2 0 0 1-2 2H5a2 2 0 0 1-2-2v-8a2 2 0 0 1 2-2zm16-6v8h-2V5h-6V3h8z" fill="#000" fill-rule="nonzero"/></symbol><symbol viewBox="0 0 24 24" id="list-bullet" xmlns="http://www.w3.org/2000/svg"><title>list-bullet</title><path d="M10 4h10a1 1 0 0 1 0 2H10a1 1 0 1 1 0-2zm0 7h10a1 1 0 0 1 0 2H10a1 1 0 0 1 0-2zm0 7h10a1 1 0 0 1 0 2H10a1 1 0 0 1 0-2zM5 7a2 2 0 1 1 0-4 2 2 0 0 1 0 4zm0 7a2 2 0 1 1 0-4 2 2 0 0 1 0 4zm0 7a2 2 0 1 1 0-4 2 2 0 0 1 0 4z" fill="#000" fill-rule="evenodd"/></symbol><symbol viewBox="0 0 24 24" id="list-order" xmlns="http://www.w3.org/2000/svg"><title>list-order</title><path d="M10 4h10a1 1 0 0 1 0 2H10a1 1 0 1 1 0-2zm0 7h10a1 1 0 0 1 0 2H10a1 1 0 0 1 0-2zm0 7h10a1 1 0 0 1 0 2H10a1 1 0 0 1 0-2zM4.5 4a.5.5 0 0 1 0-1h1c.28 0 .5.22.5.5v3a.5.5 0 0 1-1 0V4.015L4.5 4zm0 6h2c.28 0 .5.22.5.5v.5l-1.7 2h1.2c.28 0 .5.22.5.5s-.224.5-.5.5h-2c-.28 0-.5-.22-.5-.5V13l1.7-2H4.5c-.28 0-.5-.22-.5-.5s.199-.5.5-.5zm2 11h-2a.5.5 0 1 1 0-1H6v-.5H4.5a.5.5 0 1 1 0-1H6V18H4.5a.5.5 0 1 1 0-1h2a.5.5 0 0 1 .5.5v3a.5.5 0 0 1-.5.5z" fill="#000" fill-rule="evenodd"/></symbol><symbol viewBox="0 0 24 24" id="list-task" xmlns="http://www.w3.org/2000/svg"><title>list-task</title><path d="M9 13h10a1 1 0 0 1 0 2H9a1 1 0 0 1 0-2zm0 4h10a1 1 0 0 1 0 2H9a1 1 0 0 1 0-2zm6-8h4a1 1 0 0 1 0 2h-4a1 1 0 0 1 0-2zm-7.257 1.914L4 7.172l1.414-1.415 2.329 2.329L12.828 3l1.415 1.414-6.5 6.5z" fill="#000" fill-rule="evenodd"/></symbol><symbol viewBox="0 0 24 24" id="location" xmlns="http://www.w3.org/2000/svg"><title>location</title><defs><path d="M12 21c3.314 0 6-8.138 6-11.647C18 5.844 15.314 3 12 3S6 5.844 6 9.353 8.686 21 12 21z" id="faa"/></defs><g fill="none" fill-rule="evenodd"><use fill="#FFF" xlink:href="#faa"/><path stroke="#000" stroke-width="2" d="M12 20c2.093 0 5-6.621 5-10.647C17 6.384 14.748 4 12 4S7 6.384 7 9.353C7 13.379 9.907 20 12 20z"/><circle fill="#000" cx="12" cy="9" r="2"/></g></symbol><symbol viewBox="0 0 24 24" id="lock" xmlns="http://www.w3.org/2000/svg"><title>lock</title><path d="M7 10V7a5 5 0 1 1 10 0v3h1a2 2 0 0 1 2 2v8a2 2 0 0 1-2 2H6a2 2 0 0 1-2-2v-8a2 2 0 0 1 2-2h1zm-1 2v8h12v-8H6zm3-2h6V7a3 3 0 0 0-6 0v3zm5 4h2v4h-2v-4z" fill="#000" fill-rule="evenodd"/></symbol><symbol viewBox="0 0 24 24" id="login" xmlns="http://www.w3.org/2000/svg"><title>login</title><path d="M9.586 11L7.05 8.464 8.464 7.05l4.95 4.95-4.95 4.95-1.414-1.414L9.586 13H3v-2h6.586zM11 3h8c1.1 0 2 .9 2 2v14c0 1.1-.9 2-2 2h-8v-2h8V5h-8V3z" fill="#000" fill-rule="evenodd"/></symbol><symbol viewBox="0 0 24 24" id="logout" xmlns="http://www.w3.org/2000/svg"><title>logout</title><path d="M3 5c0-1.1.9-2 2-2h8v2H5v14h8v2H5c-1.1 0-2-.9-2-2V5zm14.176 6L14.64 8.464l1.414-1.414 4.95 4.95-4.95 4.95-1.414-1.414L17.176 13H10.59v-2h6.586z" fill="#000" fill-rule="evenodd"/></symbol><symbol viewBox="0 0 24 24" id="loop" xmlns="http://www.w3.org/2000/svg"><title>loop</title><defs><path d="M6.876 15.124A6.002 6.002 0 0 0 17.658 14h2.09a8.003 8.003 0 0 1-14.316 2.568L3 19v-6h6l-2.124 2.124zm10.249-6.249A6.004 6.004 0 0 0 6.34 10H4.25a8.005 8.005 0 0 1 14.32-2.57L21 5v6h-6l2.125-2.125z" id="fea"/></defs><g fill="none" fill-rule="evenodd"><use fill="#FFF" xlink:href="#fea"/><path stroke="#000" stroke-width="2" d="M8.74 18.196a6.987 6.987 0 0 0 .004.003zM18.326 15a7 7 0 0 0 .275-.667L17.66 15h.667zm.001 0h1.421l-.968-1.25a6.967 6.967 0 0 1-.453 1.25zM4 16.586l-1.707 1.707L4 19v-2.414zM4 14v-1l-1 1h1zm2.586 0H9l-.707-1.707L6.586 14zm5.817-8.989zM12 5zM5.672 9a7 7 0 0 0-.275.667L6.34 9h-.668zm-.001 0H4.25l.968 1.25c.113-.436.265-.854.453-1.25zM20 7.414l1.707-1.707L20 5v2.414zM20 10v1l1-1h-1zm-2.586 0H15l.707 1.707L17.414 10z"/></g></symbol><symbol viewBox="0 0 24 24" id="magic" xmlns="http://www.w3.org/2000/svg"><title>magic</title><g fill="none" fill-rule="evenodd"><path fill-opacity=".2" fill="#66D5FF" d="M2 2h20v20H2z"/><path d="M22 2L2 22" stroke="#C1C0C1" stroke-width=".02" stroke-linecap="square"/><circle stroke="#C1C0C1" stroke-width=".02" cx="12" cy="12" r="9.99"/><circle stroke="#C1C0C1" stroke-width=".02" cx="12" cy="12" r="3.99"/><circle stroke="#CCD2D6" stroke-width=".02" cx="5" cy="5" r="2"/><circle stroke="#CCD2D6" stroke-width=".02" cx="19" cy="5" r="2"/><circle stroke="#CCD2D6" stroke-width=".02" cx="5" cy="19" r="2"/><circle stroke="#CCD2D6" stroke-width=".02" cx="19" cy="19" r="2"/><path d="M2 2l20 20" stroke="#C1C0C1" stroke-width=".02" stroke-linecap="square"/><rect stroke="#C1C0C1" stroke-width=".02" x="4.01" y="2.01" width="15.98" height="19.98" rx="2"/><rect stroke="#C1C0C1" stroke-width=".02" x="3.01" y="3.01" width="17.98" height="17.98" rx="2"/><rect stroke="#C1C0C1" stroke-width=".02" transform="rotate(90 12 12)" x="4.01" y="2.01" width="15.98" height="19.98" rx="2"/><path fill="#000" d="M4.929 6.343L6.343 4.93l12.728 12.728-1.414 1.414zM11 5h1v1h-1z"/></g></symbol><symbol viewBox="0 0 24 24" id="mail" xmlns="http://www.w3.org/2000/svg"><title>mail</title><path d="M4 10v8h16v-8l-8 3-8-3zm0-4v2l8 3 8-3V6H4zm0-2h16a2 2 0 0 1 2 2v12a2 2 0 0 1-2 2H4a2 2 0 0 1-2-2V6a2 2 0 0 1 2-2z" fill="#000" fill-rule="nonzero"/></symbol><symbol viewBox="0 0 24 24" id="map" xmlns="http://www.w3.org/2000/svg"><title>map</title><path d="M9 17l6 1.955V7.045L9 5v12zM3 5l6-2 6 2 6-2v16l-6 2-6-2-6 2V5z" fill="#000" fill-rule="nonzero"/></symbol><symbol viewBox="0 0 24 24" id="mask" xmlns="http://www.w3.org/2000/svg"><title>mask</title><path d="M5 3h14a2 2 0 0 1 2 2v14a2 2 0 0 1-2 2H5a2 2 0 0 1-2-2V5a2 2 0 0 1 2-2zm14 16c0-7.732-6.268-14-14-14v14h14z" fill="#000" fill-rule="evenodd"/></symbol><symbol viewBox="0 0 24 24" id="medal" xmlns="http://www.w3.org/2000/svg"><title>medal</title><defs><path d="M12 22a7 7 0 1 1 0-14 7 7 0 0 1 0 14zm0-14a1 1 0 1 1 0-2 1 1 0 0 1 0 2zM9 2h2v4c-1.1 0-2-.9-2-2V2zm4 0h2v2c0 1.1-.9 2-2 2V2z" id="fja"/></defs><g fill="none" fill-rule="evenodd"><use fill="#FFF" xlink:href="#fja"/><path stroke="#000" stroke-width="2" d="M12 21a6 6 0 1 0 0-12 6 6 0 0 0 0 12zM10 3v3l1-1c-.548 0-1-.452-1-1V3zm0 0V2L9 3h2l-1-1v1zm4 0v1c0 .548-.452 1-1 1l1 1V3zm0 0V2l-1 1h2l-1-1v1z"/></g></symbol><symbol viewBox="0 0 24 24" id="megaphone" xmlns="http://www.w3.org/2000/svg"><title>megaphone</title><path d="M4 8l.04 2.117L19.5 6.065A1.997 1.997 0 0 1 22 8V16a1.995 1.995 0 0 1-2.5 1.934L4 13.882V16a1 1 0 0 1-2 0V8a1 1 0 1 1 2 0zm2 3.664v.68L20 16V8L6 11.664z" fill="#000" fill-rule="nonzero"/></symbol><symbol viewBox="0 0 24 24" id="mention" xmlns="http://www.w3.org/2000/svg"><title>mention</title><path d="M21 12a3.5 3.5 0 0 1-5.909 2.539A4 4 0 1 1 14 8.535V8h2v4a1.5 1.5 0 0 0 3 0 7 7 0 1 0-3.392 6h3.1A9 9 0 1 1 21 12zm-9 2a2 2 0 1 0 0-4 2 2 0 0 0 0 4z" fill="#000" fill-rule="nonzero"/></symbol><symbol viewBox="0 0 14 14" id="messanger" xmlns="http://www.w3.org/2000/svg"><title>messanger</title><path d="M7.66 8.69L5.868 6.828 2.416 8.737 6.2 4.72l1.792 1.862 3.452-1.909L7.66 8.69zM6.93 0C3.103 0 0 2.901 0 6.48c0 2.036 1.004 3.853 2.575 5.04V14l2.364-1.31c.631.176 1.3.27 1.991.27 3.827 0 6.93-2.9 6.93-6.48C13.86 2.901 10.757 0 6.93 0z" fill="#000" fill-rule="evenodd"/></symbol><symbol viewBox="0 0 24 24" id="minus" xmlns="http://www.w3.org/2000/svg"><title>minus</title><path d="M4 11h16a1 1 0 0 1 0 2H4a1 1 0 0 1 0-2z" fill="#000" fill-rule="evenodd"/></symbol><symbol viewBox="0 0 24 24" id="mobile" xmlns="http://www.w3.org/2000/svg"><title>mobile</title><path d="M8 2h8a2 2 0 0 1 2 2v16a2 2 0 0 1-2 2H8a2 2 0 0 1-2-2V4a2 2 0 0 1 2-2zm0 2v15h8V4H8z" fill="#000" fill-rule="nonzero"/></symbol><symbol viewBox="0 0 24 24" id="money" xmlns="http://www.w3.org/2000/svg"><title>money</title><path d="M4 5h16a2 2 0 0 1 2 2v10a2 2 0 0 1-2 2H4a2 2 0 0 1-2-2V7a2 2 0 0 1 2-2zm14 2H6a2 2 0 0 1-2 2v6a2 2 0 0 1 2 2h12a2 2 0 0 1 2-2V9a2 2 0 0 1-2-2zM8 9h2v6H8V9zm6 4a1 1 0 1 0 0-2 1 1 0 0 0 0 2zm0 2a3 3 0 1 1 0-6 3 3 0 0 1 0 6z" fill="#000" fill-rule="nonzero"/></symbol><symbol viewBox="0 0 24 24" id="moon" xmlns="http://www.w3.org/2000/svg"><title>moon</title><path d="M12.97 3a8.02 8.02 0 0 0-4.054 7c0 4.418 3.522 8 7.866 8 1.146 0 2.236-.25 3.218-.698C18.39 19.544 15.787 21 12.849 21 7.962 21 4 16.97 4 12s3.962-9 8.849-9h.12z" fill="#000" fill-rule="evenodd"/></symbol><symbol viewBox="0 0 24 24" id="mouse" xmlns="http://www.w3.org/2000/svg"><title>mouse</title><path d="M12 4a4 4 0 0 0-4 4v8a4 4 0 1 0 8 0V8a4 4 0 0 0-4-4zm0-2a6 6 0 0 1 6 6v8a6 6 0 1 1-12 0V8a6 6 0 0 1 6-6zm1 8a1 1 0 0 1-2 0V7a1 1 0 0 1 2 0v3z" fill="#000" fill-rule="nonzero"/></symbol><symbol viewBox="0 0 24 24" id="music" xmlns="http://www.w3.org/2000/svg"><title>music</title><path d="M20 4v13a3 3 0 1 1-2-2.83V6h-8v13a3 3 0 1 1-2-2.83V4a2 2 0 0 1 2-2h8a2 2 0 0 1 2 2z" fill="#000" fill-rule="evenodd"/></symbol><symbol viewBox="0 0 24 24" id="open-mouth" xmlns="http://www.w3.org/2000/svg"><title>open-mouth</title><path d="M7 13A6 6 0 1 0 7 1a6 6 0 0 0 0 12zm0 1A7 7 0 1 1 7 0a7 7 0 0 1 0 14zm0-2a2 2 0 1 0 0-4 2 2 0 0 0 0 4zm2-6a1 1 0 1 0 0-2 1 1 0 0 0 0 2zM5 6a1 1 0 1 0 0-2 1 1 0 0 0 0 2z" fill="#000" fill-rule="evenodd"/></symbol><symbol viewBox="0 0 24 24" id="palette" xmlns="http://www.w3.org/2000/svg"><title>palette</title><path d="M10.525 21.892a4 4 0 0 0-6.77-4.232A9.954 9.954 0 0 1 2 12C2 6.477 6.477 2 12 2s10 4.477 10 10-4.477 10-10 10c-.501 0-.994-.037-1.475-.108zM9 9a2 2 0 1 0 0-4 2 2 0 0 0 0 4zm6 0a2 2 0 1 0 0-4 2 2 0 0 0 0 4zm3 5a2 2 0 1 0 0-4 2 2 0 0 0 0 4zM6 14a2 2 0 1 0 0-4 2 2 0 0 0 0 4zm9 5a2 2 0 1 0 0-4 2 2 0 0 0 0 4z" fill="#000" fill-rule="evenodd"/></symbol><symbol viewBox="0 0 24 24" id="paper-plane" xmlns="http://www.w3.org/2000/svg"><title>paper-plane</title><g fill="none" fill-rule="evenodd"><path fill-opacity=".2" fill="#66D5FF" d="M2 2h20v20H2z"/><path d="M22 2L2 22" stroke="#C1C0C1" stroke-width=".02" stroke-linecap="square"/><circle stroke="#C1C0C1" stroke-width=".02" cx="12" cy="12" r="9.99"/><circle stroke="#C1C0C1" stroke-width=".02" cx="12" cy="12" r="3.99"/><circle stroke="#CCD2D6" stroke-width=".02" cx="5" cy="5" r="2"/><circle stroke="#CCD2D6" stroke-width=".02" cx="19" cy="5" r="2"/><circle stroke="#CCD2D6" stroke-width=".02" cx="5" cy="19" r="2"/><circle stroke="#CCD2D6" stroke-width=".02" cx="19" cy="19" r="2"/><path d="M2 2l20 20" stroke="#C1C0C1" stroke-width=".02" stroke-linecap="square"/><rect stroke="#C1C0C1" stroke-width=".02" x="4.01" y="2.01" width="15.98" height="19.98" rx="2"/><rect stroke="#C1C0C1" stroke-width=".02" x="3.01" y="3.01" width="17.98" height="17.98" rx="2"/><rect stroke="#C1C0C1" stroke-width=".02" transform="rotate(90 12 12)" x="4.01" y="2.01" width="15.98" height="19.98" rx="2"/></g></symbol><symbol viewBox="0 0 24 24" id="pause" xmlns="http://www.w3.org/2000/svg"><title>pause</title><path d="M10 18a1 1 0 0 1-1 1H8a1 1 0 0 1-1-1V6a1 1 0 0 1 1-1h1a1 1 0 0 1 1 1v12zm7 0a1 1 0 0 1-1 1h-1a1 1 0 0 1-1-1V6a1 1 0 0 1 1-1h1a1 1 0 0 1 1 1v12z" fill="#000" fill-rule="evenodd"/></symbol><symbol viewBox="0 0 24 24" id="pencil" xmlns="http://www.w3.org/2000/svg"><title>pencil</title><path d="M3 18L15 6l3 3L6 21H3v-3zM16 5l2-2 3 3-2.001 2.001L16 5z" fill="#000" fill-rule="evenodd"/></symbol><symbol viewBox="0 0 24 24" id="phone" xmlns="http://www.w3.org/2000/svg"><title>phone</title><path d="M4.024 9L4 8.931C3.46 7.384 3 5.27 3 4c0-.55.45-1 1-1h3a2 2 0 0 1 2 2v2a2 2 0 0 1-2 2h-.837A16.054 16.054 0 0 0 15 17.837V17a2 2 0 0 1 2-2h2a2 2 0 0 1 2 2v3c0 .45-.55 1-1 1-1.725 0-3.44-.456-5-1-5.114-1.832-9.168-5.886-10.976-11z" fill="#000" fill-rule="evenodd"/></symbol><symbol viewBox="0 0 24 24" id="picture" xmlns="http://www.w3.org/2000/svg"><title>picture</title><path d="M4 6v12h16V6H4zm0-2h16a2 2 0 0 1 2 2v12a2 2 0 0 1-2 2H4a2 2 0 0 1-2-2V6a2 2 0 0 1 2-2zm3.5 7a1.5 1.5 0 1 0 0-3 1.5 1.5 0 0 0 0 3zM7 14l2-2 2 2 4-4 3 3v3H7v-2z" fill="#000" fill-rule="nonzero"/></symbol><symbol viewBox="0 0 24 24" id="picture-square" xmlns="http://www.w3.org/2000/svg"><title>picture-square</title><path d="M5 5v14h14V5H5zm0-2h14a2 2 0 0 1 2 2v14a2 2 0 0 1-2 2H5a2 2 0 0 1-2-2V5a2 2 0 0 1 2-2zm3.5 7a1.5 1.5 0 1 0 0-3 1.5 1.5 0 0 0 0 3zM7 14l2-2 2 2 3-3 3 3v3H7v-3z" fill="#000" fill-rule="nonzero"/></symbol><symbol viewBox="0 0 24 24" id="pie-chart" xmlns="http://www.w3.org/2000/svg"><title>pie-chart</title><path d="M12 22C6.477 22 2 17.523 2 12S6.477 2 12 2s10 4.477 10 10-4.477 10-10 10zm0-18a8 8 0 1 0 8 8h-8V4z" fill="#000" fill-rule="evenodd"/></symbol><symbol viewBox="0 0 14 14" id="pinterest" xmlns="http://www.w3.org/2000/svg"><title>pinterest</title><path d="M7 0a7 7 0 0 0-2.551 13.518c-.061-.554-.117-1.403.024-2.008.127-.546.82-3.48.82-3.48s-.208-.419-.208-1.038c0-.974.564-1.7 1.266-1.7.597 0 .886.448.886.985 0 .6-.382 1.499-.58 2.331-.165.697.35 1.265 1.037 1.265 1.244 0 2.2-1.312 2.2-3.205 0-1.676-1.204-2.848-2.924-2.848-1.991 0-3.16 1.494-3.16 3.038 0 .601.231 1.246.52 1.597a.21.21 0 0 1 .05.2l-.196.795c-.03.127-.1.155-.233.093-.875-.407-1.421-1.685-1.421-2.712 0-2.208 1.604-4.235 4.625-4.235 2.428 0 4.315 1.73 4.315 4.042 0 2.413-1.52 4.354-3.632 4.354-.71 0-1.376-.368-1.605-.804l-.436 1.664c-.158.608-.584 1.37-.87 1.836A7 7 0 1 0 7 0" fill="#000" fill-rule="evenodd"/></symbol><symbol viewBox="0 0 24 24" id="pizza" xmlns="http://www.w3.org/2000/svg"><title>pizza</title><path d="M12 22C6.477 22 2 17.523 2 12S6.477 2 12 2s10 4.477 10 10-4.477 10-10 10zm0-2a8 8 0 1 0 0-16 8 8 0 0 0 0 16zm-5-5h2v2l-2-2zm10 0l-2 2v-2h2zM9 7v2H7l2-2zm6 0l2 2h-2V7zm-2.5 2a1.5 1.5 0 1 0 0-3 1.5 1.5 0 0 0 0 3zm-5 4a1.5 1.5 0 1 0 0-3 1.5 1.5 0 0 0 0 3zm9 1a1.5 1.5 0 1 0 0-3 1.5 1.5 0 0 0 0 3zM12 13a1 1 0 1 0 0-2 1 1 0 0 0 0 2zm-.5 5a1.5 1.5 0 1 0 0-3 1.5 1.5 0 0 0 0 3z" fill="#000" fill-rule="evenodd"/></symbol><symbol viewBox="0 0 24 24" id="play" xmlns="http://www.w3.org/2000/svg"><title>play</title><path d="M6 5.912c0-.155.037-.307.107-.443.23-.44.75-.599 1.163-.354l10.29 6.088c.14.083.255.206.332.355.23.44.08.995-.332 1.239L7.27 18.885a.814.814 0 0 1-.415.115C6.383 19 6 18.592 6 18.089V5.912z" fill="#000" fill-rule="nonzero"/></symbol><symbol viewBox="0 0 24 24" id="plug" xmlns="http://www.w3.org/2000/svg"><title>plug</title><path d="M17 11v2h3a1 1 0 0 1 0 2h-3.268A2 2 0 0 1 15 16h-3a4.002 4.002 0 0 1-3.876-3.008A1.01 1.01 0 0 1 8 13H4a1 1 0 0 1 0-2h4c.042 0 .083.003.124.008A4.002 4.002 0 0 1 12 8h3a2 2 0 0 1 1.732 1H20a1 1 0 0 1 0 2h-3z" fill="#000" fill-rule="evenodd"/></symbol><symbol viewBox="0 0 24 24" id="plus" xmlns="http://www.w3.org/2000/svg"><title>plus</title><path d="M13 13v7a1 1 0 0 1-2 0v-7H4a1 1 0 0 1 0-2h7V4a1 1 0 0 1 2 0v7h7a1 1 0 0 1 0 2h-7z" fill="#000" fill-rule="evenodd"/></symbol><symbol viewBox="0 0 14 13" id="pocket" xmlns="http://www.w3.org/2000/svg"><title>pocket</title><path d="M13.931.836A1.274 1.274 0 0 0 12.738 0H1.269A1.276 1.276 0 0 0 0 1.27v4.225l.048.84c.203 1.91 1.195 3.58 2.73 4.744l.083.063.018.012a6.928 6.928 0 0 0 2.737 1.21 7.072 7.072 0 0 0 2.68.02l.154-.03a.183.183 0 0 0 .045-.017 6.935 6.935 0 0 0 2.627-1.183l.018-.013c.028-.02.056-.04.083-.062 1.534-1.165 2.526-2.835 2.729-4.745l.048-.84V1.27c0-.146-.018-.291-.069-.434zm-2.964 4.401L7.674 8.396a.96.96 0 0 1-1.329 0L3.051 5.237a.96.96 0 1 1 1.33-1.385l2.628 2.52 2.63-2.52a.96.96 0 0 1 1.328 1.385z" fill="#000" fill-rule="nonzero"/></symbol><symbol viewBox="0 0 24 24" id="pot" xmlns="http://www.w3.org/2000/svg"><title>pot</title><path d="M20 11v7a2 2 0 0 1-2 2H6a2 2 0 0 1-2-2v-7H3a1 1 0 0 1 0-2h18a1 1 0 0 1 0 2h-1zM6 11v7h12v-7H6zm5-5V5a1 1 0 0 1 2 0v1h6a1 1 0 0 1 0 2H5a1 1 0 1 1 0-2h6z" fill="#000" fill-rule="evenodd"/></symbol><symbol viewBox="0 0 24 24" id="print" xmlns="http://www.w3.org/2000/svg"><title>print</title><path d="M7 11V4a2 2 0 0 1 2-2h6a2 2 0 0 1 2 2v7h1a2 2 0 0 1 2 2v3c0 1.1-.9 2-2 2h-1v2a2 2 0 0 1-2 2H9a2 2 0 0 1-2-2v-2H6c-1.1 0-2-.9-2-2v-3a2 2 0 0 1 2-2h1zm2-7v7h6V4H9zm5 9v2h2v-2h-2zm-5 5v2h6v-2H9z" fill="#000" fill-rule="evenodd"/></symbol><symbol viewBox="0 0 24 24" id="prototype" xmlns="http://www.w3.org/2000/svg"><title>prototype</title><path d="M9 12H6.732a2 2 0 1 1 0-2H9V5a2 2 0 0 1 2-2h8a2 2 0 0 1 2 2v14a2 2 0 0 1-2 2h-8a2 2 0 0 1-2-2v-7zm2 0v7h8V5h-8v5h2.268a2 2 0 1 1 0 2H11z" fill="#000" fill-rule="evenodd"/></symbol><symbol viewBox="0 0 24 24" id="question" xmlns="http://www.w3.org/2000/svg"><title>question</title><path d="M12 22C6.477 22 2 17.523 2 12S6.477 2 12 2s10 4.477 10 10-4.477 10-10 10zm0-2a8 8 0 1 0 0-16 8 8 0 0 0 0 16zm-1-4h2v2h-2v-2zm0-1.992s2-.008 2 0C13 13.006 16 12 16 10c0-2.21-1.773-4-3.991-4A4 4 0 0 0 8 10h2c0-1.1.9-2 2-2s2 .9 2 2c0 .9-3 2.367-3 4.008z" fill="#000" fill-rule="evenodd"/></symbol><symbol viewBox="0 0 24 24" id="quote-left" xmlns="http://www.w3.org/2000/svg"><title>quote-left</title><path d="M7 21a4 4 0 0 1-4-4c0-1.473 1.333-6.14 4-14h2L7 13a4 4 0 1 1 0 8zm10 0a4 4 0 0 1-4-4c0-1.473 1.333-6.14 4-14h2l-2 10a4 4 0 1 1 0 8z" fill="#000" fill-rule="evenodd"/></symbol><symbol viewBox="0 0 24 24" id="quote-right" xmlns="http://www.w3.org/2000/svg"><title>quote-right</title><path d="M17 11a4 4 0 1 1 4-4c0 1.473-1.333 6.14-4 14h-2l2-10zM7 11a4 4 0 1 1 4-4c0 1.473-1.333 6.14-4 14H5l2-10z" fill="#000" fill-rule="evenodd"/></symbol><symbol viewBox="0 0 24 24" id="rage" xmlns="http://www.w3.org/2000/svg"><title>rage</title><path d="M8.5 12a1.5 1.5 0 1 0 0-3 1.5 1.5 0 0 0 0 3zm6.5 5a3 3 0 0 0-6 0h1s.317-2 2-2 1.996 2 1.996 2H15zm.5-5a1.5 1.5 0 0 0 1.5-1.5V9c-.828 0-3 .672-3 1.5a1.5 1.5 0 0 0 1.5 1.5zM12 20a8 8 0 1 0 0-16 8 8 0 0 0 0 16zm0 2C6.477 22 2 17.523 2 12S6.477 2 12 2s10 4.477 10 10-4.477 10-10 10z" fill="#000" fill-rule="evenodd"/></symbol><symbol viewBox="0 0 24 24" id="random" xmlns="http://www.w3.org/2000/svg"><title>random</title><path d="M4 17a1 1 0 0 1 0-2h2l3-3-3-3H4a1.001 1.001 0 0 1 0-2h3l4 4 4-4h2V5l4 3.001L17 11V9h-1l-3 3 3 3h1v-2l4 3-4 3v-2h-2l-4-4-4 4H4z" fill="#000" fill-rule="evenodd"/></symbol><symbol viewBox="0 0 24 24" id="remove-cart" xmlns="http://www.w3.org/2000/svg"><title>remove-cart</title><path d="M8 16h8a1 1 0 0 1 0 2H7a1 1 0 0 1-1-1V4H5a1 1 0 1 1 0-2h2a1 1 0 0 1 1 1v9h8.775L18 7V5.001c1.145 0 2 .894 2 1.999 0 .146-.017.291-.05.434l-1.151 5c-.21.915-1.052 1.566-2.024 1.566H8.073L8 13.999V16zm-.5 6a1.5 1.5 0 1 1 0-3 1.5 1.5 0 0 1 0 3zm9 0a1.5 1.5 0 1 1 0-3 1.5 1.5 0 0 1 0 3zM15 5a1 1 0 0 1 0 2h-4a1 1 0 0 1 0-2h4z" fill="#000" fill-rule="evenodd"/></symbol><symbol viewBox="0 0 24 24" id="rocket" xmlns="http://www.w3.org/2000/svg"><title>rocket</title><path d="M16.274 19.274C15.602 20.877 14.801 22 14 22h-4c-.8 0-1.602-1.123-2.274-2.726L5 22l-1-1v-4l2.383-2.383C6.14 13.325 6 12.057 6 11c0-4 3-9 6-9s6 5 6 9c0 1.058-.14 2.325-.383 3.617L20 17v4l-1 1-2.726-2.726zM12 20h-1.615a3.136 3.136 0 0 1-.179-.249c-.347-.532-.72-1.365-1.059-2.383C8.455 15.29 8 12.755 8 11c0-3.198 2.444-7 4-7s4 3.802 4 7c0 1.755-.455 4.291-1.147 6.368-.34 1.018-.712 1.85-1.06 2.383a3.136 3.136 0 0 1-.178.249H12zm0-8a2 2 0 1 0 0-4 2 2 0 0 0 0 4z" fill="#000" fill-rule="evenodd"/></symbol><symbol viewBox="0 0 24 24" id="scale" xmlns="http://www.w3.org/2000/svg"><title>scale</title><path d="M10.874 17.998A4.002 4.002 0 0 1 3 17a4.002 4.002 0 0 1 3.002-3.874A5.001 5.001 0 0 1 9.03 8.404a6 6 0 1 1 6.567 6.567 5.001 5.001 0 0 1-4.723 3.027zm.252-9.996a5 5 0 0 1 4.872 4.872A4.002 4.002 0 0 0 15 5a4.002 4.002 0 0 0-3.874 3.002zm-.253 7.995a3 3 0 1 0-2.87-2.87 4.007 4.007 0 0 1 2.87 2.87zM7 19a2 2 0 1 0 0-4 2 2 0 0 0 0 4z" fill="#000" fill-rule="evenodd"/></symbol><symbol viewBox="0 0 24 24" id="search" xmlns="http://www.w3.org/2000/svg"><title>search</title><path d="M16.325 14.899l5.38 5.38a1.008 1.008 0 0 1-1.427 1.426l-5.38-5.38a8 8 0 1 1 1.426-1.426zM10 16a6 6 0 1 0 0-12 6 6 0 0 0 0 12z" fill="#000" fill-rule="evenodd"/></symbol><symbol viewBox="0 0 24 24" id="search-minus" xmlns="http://www.w3.org/2000/svg"><title>search-minus</title><path d="M16.325 14.899l5.38 5.38a1.008 1.008 0 0 1-1.427 1.426l-5.38-5.38a8 8 0 1 1 1.426-1.426zM10 16a6 6 0 1 0 0-12 6 6 0 0 0 0 12zm-3-5a1 1 0 0 1 0-2h6a1 1 0 0 1 0 2H7z" fill="#000" fill-rule="evenodd"/></symbol><symbol viewBox="0 0 24 24" id="search-plus" xmlns="http://www.w3.org/2000/svg"><title>search-plus</title><path d="M16.325 14.899l5.38 5.38a1.008 1.008 0 0 1-1.427 1.426l-5.38-5.38a8 8 0 1 1 1.426-1.426zM10 16a6 6 0 1 0 0-12 6 6 0 0 0 0 12zm3-5h-2v2a1 1 0 0 1-2 0v-2H7a1 1 0 0 1 0-2h2V7a1 1 0 1 1 2 0v2h2a1 1 0 0 1 0 2z" fill="#000" fill-rule="evenodd"/></symbol><symbol viewBox="0 0 24 24" id="share" xmlns="http://www.w3.org/2000/svg"><title>share</title><path d="M14.839 14.92a3 3 0 1 1-.8 1.599l-4.873-2.443a3 3 0 1 1 0-4.151l4.873-2.443a3 3 0 1 1 .8 1.599l-4.877 2.438a3.022 3.022 0 0 1 0 .962l4.877 2.438zM17 8a1 1 0 1 0 0-2 1 1 0 0 0 0 2zm0 10a1 1 0 1 0 0-2 1 1 0 0 0 0 2zM7 13a1 1 0 1 0 0-2 1 1 0 0 0 0 2z" fill="#000" fill-rule="evenodd"/></symbol><symbol viewBox="0 0 24 24" id="shield" xmlns="http://www.w3.org/2000/svg"><title>shield</title><path d="M6 16.764l6 3V4H6v12.764zM6 2h12a2 2 0 0 1 2 2v14l-8 4-8-4V4a2 2 0 0 1 2-2z" fill="#000" fill-rule="nonzero"/></symbol><symbol viewBox="0 0 24 24" id="shopping-bag" xmlns="http://www.w3.org/2000/svg"><title>shopping-bag</title><path d="M8 8V5a2 2 0 0 1 2-2h4a2 2 0 0 1 2 2v3h3a2 2 0 0 1 2 2v9a2 2 0 0 1-2 2H5a2 2 0 0 1-2-2v-9a2 2 0 0 1 2-2h3zm-3 2v9h14v-9h-3.002v3H14v-3h-4v3H8v-3H5zm5-2h4V5h-4v3z" fill="#000" fill-rule="nonzero"/></symbol><symbol viewBox="0 0 24 24" id="sitemap" xmlns="http://www.w3.org/2000/svg"><title>sitemap</title><path d="M19 15a2 2 0 0 1 2 2v2a2 2 0 0 1-2 2h-2a2 2 0 0 1-2-2v-2a2 2 0 0 1 2-2v-2H7v2a2 2 0 0 1 2 2v2a2 2 0 0 1-2 2H5a2 2 0 0 1-2-2v-2a2 2 0 0 1 2-2v-2a2 2 0 0 1 2-2h4V9a2 2 0 0 1-2-2V5a2 2 0 0 1 2-2h2a2 2 0 0 1 2 2v2a2 2 0 0 1-2 2v2h4a2 2 0 0 1 2 2v2zM5 17v2h2v-2H5zm12 0v2h2v-2h-2zM11 5v2h2V5h-2z" fill="#000" fill-rule="nonzero"/></symbol><symbol viewBox="0 0 24 24" id="smile" xmlns="http://www.w3.org/2000/svg"><title>smile</title><path d="M15 14a3 3 0 0 1-6 0h6zm.5-2a1.5 1.5 0 1 1 0-3 1.5 1.5 0 0 1 0 3zm-7 0a1.5 1.5 0 1 1 0-3 1.5 1.5 0 0 1 0 3zm3.5 8a8 8 0 1 0 0-16 8 8 0 0 0 0 16zm0 2C6.477 22 2 17.523 2 12S6.477 2 12 2s10 4.477 10 10-4.477 10-10 10z" fill="#000" fill-rule="evenodd"/></symbol><symbol viewBox="0 0 24 24" id="smile-alt" xmlns="http://www.w3.org/2000/svg"><title>smile-alt</title><path d="M8.5 12a1.5 1.5 0 1 0 0-3 1.5 1.5 0 0 0 0 3zm6.5 2a3 3 0 0 1-6 0h1s.317 2 2 2 1.996-2 1.996-2H15zm.5-2a1.5 1.5 0 1 0 0-3 1.5 1.5 0 0 0 0 3zM12 20a8 8 0 1 0 0-16 8 8 0 0 0 0 16zm0 2C6.477 22 2 17.523 2 12S6.477 2 12 2s10 4.477 10 10-4.477 10-10 10z" fill="#000" fill-rule="evenodd"/></symbol><symbol viewBox="0 0 24 24" id="smile-heart" xmlns="http://www.w3.org/2000/svg"><title>smile-heart</title><path d="M3.929 7.714a.786.786 0 1 0 0-1.571.786.786 0 0 0 0 1.571zm3.928 1.572a2.357 2.357 0 0 1-4.714 0h4.714zm-.786-1.572a.786.786 0 1 0 0-1.571.786.786 0 0 0 0 1.571zm-1.571 5.5a4.714 4.714 0 1 0 0-9.428 4.714 4.714 0 0 0 0 9.428zm0 .786a5.5 5.5 0 1 1 0-11 5.5 5.5 0 0 1 0 11zM11 5S8.564 3.756 8.076 2.015C7.59.274 9.538-.97 11 1.02c1.462-1.991 3.411-.746 2.924.995C13.436 3.756 11 5 11 5z" fill="#000" fill-rule="evenodd"/></symbol><symbol viewBox="0 0 24 24" id="smile-plus" xmlns="http://www.w3.org/2000/svg"><title>smile-plus</title><path d="M3.929 7.714a.786.786 0 1 0 0-1.571.786.786 0 0 0 0 1.571zm3.928 1.572a2.357 2.357 0 0 1-4.714 0h4.714zm-.786-1.572a.786.786 0 1 0 0-1.571.786.786 0 0 0 0 1.571zm-1.571 5.5a4.714 4.714 0 1 0 0-9.428 4.714 4.714 0 0 0 0 9.428zm0 .786a5.5 5.5 0 1 1 0-11 5.5 5.5 0 0 1 0 11zm6.833-12.333h.834a.833.833 0 1 1 0 1.666h-.834v.834a.833.833 0 1 1-1.666 0v-.834h-.834a.833.833 0 1 1 0-1.666h.834V.833a.833.833 0 1 1 1.666 0v.834z" fill="#000" fill-rule="evenodd"/></symbol><symbol viewBox="0 0 24 24" id="speaker" xmlns="http://www.w3.org/2000/svg"><title>speaker</title><path d="M18 20a2 2 0 0 1-2 2H8a2 2 0 0 1-2-2V4a2 2 0 0 1 2-2h8a2 2 0 0 1 2 2v16zm-6-8a4 4 0 1 0 0-8 4 4 0 0 0 0 8zm0 8a2 2 0 1 0 0-4 2 2 0 0 0 0 4zm0-10a2 2 0 1 0 0-4 2 2 0 0 0 0 4z" fill="#000" fill-rule="evenodd"/></symbol><symbol viewBox="0 0 24 24" id="star" xmlns="http://www.w3.org/2000/svg"><title>star</title><path d="M12.5 17.925L6.629 21l1.121-6.512L3 9.875l6.564-.95L12.5 3l2.936 5.925 6.564.95-4.75 4.613L18.371 21z" fill="#000" fill-rule="nonzero"/></symbol><symbol viewBox="0 0 24 24" id="star-o" xmlns="http://www.w3.org/2000/svg"><title>star-o</title><path d="M9.282 17.362l3.218-1.685 3.218 1.685-.615-3.57 2.604-2.527-3.598-.52L12.5 7.496l-1.609 3.247-3.598.52 2.604 2.529-.615 3.57zm3.218.563L6.629 21l1.121-6.512L3 9.875l6.564-.95L12.5 3l2.936 5.925 6.564.95-4.75 4.613L18.371 21 12.5 17.925z" fill="#000" fill-rule="nonzero"/></symbol><symbol viewBox="0 0 24 24" id="step-backward" xmlns="http://www.w3.org/2000/svg"><title>step-backward</title><path d="M11 15V5H4a1 1 0 1 1 0-2h16a1 1 0 0 1 0 2h-7v10h2.24c.15 0 .297.042.421.12.35.219.444.663.211.991l-3.24 4.57a.74.74 0 0 1-.21.199.79.79 0 0 1-1.054-.198l-3.24-4.57A.685.685 0 0 1 8 15.714c0-.395.34-.715.76-.715H11zm9-6a1 1 0 0 1 0 2h-5V9h5zM8 9h1v2H4a1 1 0 0 1 0-2h4z" fill="#000" fill-rule="nonzero"/></symbol><symbol viewBox="0 0 24 24" id="step-forward" xmlns="http://www.w3.org/2000/svg"><title>step-forward</title><path d="M13 9v10h7a1 1 0 0 1 0 2H4a1 1 0 0 1 0-2h7V9H8.76C8.34 9 8 8.68 8 8.285c0-.14.044-.279.128-.396l3.24-4.57a.79.79 0 0 1 1.054-.199.74.74 0 0 1 .21.198l3.24 4.57a.689.689 0 0 1-.21.992.795.795 0 0 1-.422.12H13zm7 4a1 1 0 0 1 0 2h-5v-2h5zM8 13h1v2H4a1 1 0 0 1 0-2h4z" fill="#000" fill-rule="nonzero"/></symbol><symbol viewBox="0 0 24 24" id="stop" xmlns="http://www.w3.org/2000/svg"><title>stop</title><path d="M7 5h10a2 2 0 0 1 2 2v10a2 2 0 0 1-2 2H7a2 2 0 0 1-2-2V7a2 2 0 0 1 2-2z" fill="#000" fill-rule="nonzero"/></symbol><symbol viewBox="0 0 24 24" id="subtract" xmlns="http://www.w3.org/2000/svg"><title>subtract</title><path d="M15 15v4a2 2 0 0 1-2 2H5a2 2 0 0 1-2-2v-8a2 2 0 0 1 2-2h4V5a2 2 0 0 1 2-2h8a2 2 0 0 1 2 2v8a2 2 0 0 1-2 2h-4zm-4-2h8V5h-8v8z" fill="#000" fill-rule="evenodd"/></symbol><symbol viewBox="0 0 24 24" id="sunny-o" xmlns="http://www.w3.org/2000/svg"><title>sunny-o</title><path d="M12 18a6 6 0 1 1 0-12 6 6 0 0 1 0 12zm0-2a4 4 0 1 0 0-8 4 4 0 0 0 0 8zM11 2h2v3h-2V2zm-9 9h3v2H2v-2zm17 0h3v2h-3v-2zm-8 8h2v3h-2v-3zm7.621-15l1.415 1.414-2.122 2.122L16.5 6.12 18.621 4zM16.5 17.414L17.914 16l2.122 2.121-1.415 1.415-2.121-2.122zM6.121 16l1.415 1.414-2.122 2.122L4 18.12 6.121 16zM4 5.414L5.414 4l2.122 2.121L6.12 7.536 4 5.414z" fill="#000" fill-rule="nonzero"/></symbol><symbol viewBox="0 0 24 24" id="sunrise" xmlns="http://www.w3.org/2000/svg"><title>sunrise</title><path d="M21 15H3a1 1 0 0 1 0-2h1a8 8 0 1 1 16 0h1a1 1 0 0 1 0 2zm-3 4H6a1 1 0 0 1 0-2h12a1 1 0 0 1 0 2zM6 13h12a6 6 0 1 0-12 0z" fill="#000" fill-rule="nonzero"/></symbol><symbol viewBox="0 0 24 24" id="sync" xmlns="http://www.w3.org/2000/svg"><title>sync</title><defs><path d="M6.876 15.124A6.002 6.002 0 0 0 17.658 14h2.09a8.003 8.003 0 0 1-14.316 2.568L3 19v-6h6l-2.124 2.124zm10.249-6.249A6.004 6.004 0 0 0 6.34 10H4.25a8.005 8.005 0 0 1 14.32-2.57L21 5v6h-6l2.125-2.125z" id="hna"/></defs><g fill="none" fill-rule="evenodd"><use fill="#FFF" xlink:href="#hna"/><path stroke="#000" stroke-width="2" d="M8.74 18.196a6.987 6.987 0 0 0 .004.003zM18.326 15a7 7 0 0 0 .275-.667L17.66 15h.667zm.001 0h1.421l-.968-1.25a6.967 6.967 0 0 1-.453 1.25zM4 16.586l-1.707 1.707L4 19v-2.414zM4 14v-1l-1 1h1zm2.586 0H9l-.707-1.707L6.586 14zm5.817-8.989zM12 5zM5.672 9a7 7 0 0 0-.275.667L6.34 9h-.668zm-.001 0H4.25l.968 1.25c.113-.436.265-.854.453-1.25zM20 7.414l1.707-1.707L20 5v2.414zM20 10v1l1-1h-1zm-2.586 0H15l.707 1.707L17.414 10z"/></g></symbol><symbol viewBox="0 0 24 24" id="table" xmlns="http://www.w3.org/2000/svg"><title>table</title><path d="M4 4h16a2 2 0 0 1 2 2v12a2 2 0 0 1-2 2H4a2 2 0 0 1-2-2V6a2 2 0 0 1 2-2zm9 10v4h7v-4h-7zm-9 0v4h7v-4H4zm9-6v4h7V8h-7zM4 8v4h7V8H4z" fill="#000" fill-rule="nonzero"/></symbol><symbol viewBox="0 0 24 24" id="tablet" xmlns="http://www.w3.org/2000/svg"><title>tablet</title><path d="M6 4v15h12V4H6zm0-2h12a2 2 0 0 1 2 2v16a2 2 0 0 1-2 2H6a2 2 0 0 1-2-2V4a2 2 0 0 1 2-2z" fill="#000" fill-rule="nonzero"/></symbol><symbol viewBox="0 0 24 24" id="tag" xmlns="http://www.w3.org/2000/svg"><title>tag</title><path d="M4.981 14.887l4.132 4.132 9.906-9.906V4.981h-4.132L4.98 14.887zM13.486 3.58c.371-.371.875-.58 1.4-.58h4.133C20.113 3 21 3.887 21 4.981v4.132c0 .526-.209 1.03-.58 1.401l-9.906 9.906a1.981 1.981 0 0 1-2.802 0L3.58 16.288a1.981 1.981 0 0 1 0-2.802l9.906-9.906zM16 9a1 1 0 1 0 0-2 1 1 0 0 0 0 2z" fill="#000" fill-rule="nonzero"/></symbol><symbol viewBox="0 0 24 24" id="target" xmlns="http://www.w3.org/2000/svg"><title>target</title><path d="M19.938 13A8.004 8.004 0 0 1 13 19.938V22h-2v-2.062A8.004 8.004 0 0 1 4.062 13H2v-2h2.062A8.004 8.004 0 0 1 11 4.062V2h2v2.062A8.004 8.004 0 0 1 19.938 11H22v2h-2.062zM12 18a6 6 0 1 0 0-12 6 6 0 0 0 0 12zm0-3a3 3 0 1 0 0-6 3 3 0 0 0 0 6z" fill="#000" fill-rule="nonzero"/></symbol><symbol viewBox="0 0 24 24" id="terminal" xmlns="http://www.w3.org/2000/svg"><title>terminal</title><path d="M4 4h16a2 2 0 0 1 2 2v12a2 2 0 0 1-2 2H4a2 2 0 0 1-2-2V6a2 2 0 0 1 2-2zm0 2v12h16V6H4zm8 8h6v2h-6v-2zm-1.015-2.429L7.45 15.107l-1.414-1.415 2.12-2.12-2.12-2.122L7.45 8.036l3.535 3.535z" fill="#000" fill-rule="nonzero"/></symbol><symbol viewBox="0 0 24 24" id="text-align-center" xmlns="http://www.w3.org/2000/svg"><title>text-align-center</title><path d="M19 7H5a1 1 0 1 1 0-2h14a1 1 0 0 1 0 2zm-2 4H7a1 1 0 0 1 0-2h10a1 1 0 0 1 0 2zm2 4H5a1 1 0 0 1 0-2h14a1 1 0 0 1 0 2zm-2 4H7a1 1 0 0 1 0-2h10a1 1 0 0 1 0 2z" fill="#000" fill-rule="evenodd"/></symbol><symbol viewBox="0 0 24 24" id="text-align-justify" xmlns="http://www.w3.org/2000/svg"><title>text-align-justify</title><path d="M19 7H5a1 1 0 1 1 0-2h14a1 1 0 0 1 0 2zm0 4H5a1 1 0 0 1 0-2h14a1 1 0 0 1 0 2zm0 4H5a1 1 0 0 1 0-2h14a1 1 0 0 1 0 2zm0 4H5a1 1 0 0 1 0-2h14a1 1 0 0 1 0 2z" fill="#000" fill-rule="evenodd"/></symbol><symbol viewBox="0 0 24 24" id="text-align-left" xmlns="http://www.w3.org/2000/svg"><title>text-align-left</title><path d="M19 7H5a1 1 0 1 1 0-2h14a1 1 0 0 1 0 2zm-4 4H5a1 1 0 0 1 0-2h10a1 1 0 0 1 0 2zm4 4H5a1 1 0 0 1 0-2h14a1 1 0 0 1 0 2zm-4 4H5a1 1 0 0 1 0-2h10a1 1 0 0 1 0 2z" fill="#000" fill-rule="evenodd"/></symbol><symbol viewBox="0 0 24 24" id="text-align-right" xmlns="http://www.w3.org/2000/svg"><title>text-align-right</title><path d="M19 7H5a1 1 0 1 1 0-2h14a1 1 0 0 1 0 2zm0 4H9a1 1 0 0 1 0-2h10a1 1 0 0 1 0 2zm0 4H5a1 1 0 0 1 0-2h14a1 1 0 0 1 0 2zm0 4H9a1 1 0 0 1 0-2h10a1 1 0 0 1 0 2z" fill="#000" fill-rule="evenodd"/></symbol><symbol viewBox="0 0 24 24" id="text-size" xmlns="http://www.w3.org/2000/svg"><title>text-size</title><path d="M13.5 16.494l2.408-7.224h2.182L21 17.995h-1.968l-.569-1.927h-2.966l-.643 1.927h-.853l.002.005h-2.707l-.782-2.65h-4.08L5.55 18H3L7 6h3l3.5 10.494zM7 13h3L8.496 9 7 13zm8.908 1.36h2.182l-1.094-2.909-1.088 2.909z" fill="#000" fill-rule="evenodd"/></symbol><symbol viewBox="0 0 24 24" id="ticket" xmlns="http://www.w3.org/2000/svg"><title>ticket</title><path d="M2 10V8a2 2 0 0 1 2-2h16a2 2 0 0 1 2 2v2a2 2 0 1 0 0 4v2a2 2 0 0 1-2 2H4a2 2 0 0 1-2-2v-2a2 2 0 1 0 0-4zm3-2v8h14V8H5zm2 2h10v4H7v-4z" fill="#000" fill-rule="evenodd"/></symbol><symbol viewBox="0 0 24 24" id="tiled" xmlns="http://www.w3.org/2000/svg"><title>tiled</title><path d="M6 4h12a2 2 0 0 1 2 2v12a2 2 0 0 1-2 2H6a2 2 0 0 1-2-2V6a2 2 0 0 1 2-2zm7 9v5h5v-5h-5zm-7 0v5h5v-5H6zm7-7v5h5V6h-5zM6 6v5h5V6H6z" fill="#000" fill-rule="nonzero"/></symbol><symbol viewBox="0 0 24 24" id="timeline" xmlns="http://www.w3.org/2000/svg"><title>timeline</title><path d="M9.17 17a3.001 3.001 0 0 1 5.66 0H20l1 1-1 1h-5.17a3.001 3.001 0 0 1-5.66 0H3l1-1-1-1h6.17zM12 19a1 1 0 1 0 0-2 1 1 0 0 0 0 2zm2-7l-2 2-2-2H7a2 2 0 0 1-2-2V5a2 2 0 0 1 2-2h10a2 2 0 0 1 2 2v5a2 2 0 0 1-2 2h-3zM7 5v5h4l1 1 1-1h4V5H7z" fill="#000" fill-rule="evenodd"/></symbol><symbol viewBox="0 0 24 24" id="tired" xmlns="http://www.w3.org/2000/svg"><title>tired</title><path d="M7 13A6 6 0 1 0 7 1a6 6 0 0 0 0 12zm0 1A7 7 0 1 1 7 0a7 7 0 0 1 0 14zm0-2a2 2 0 1 0 0-4 2 2 0 0 0 0 4zM3 4.5l.5-.5 1 1 1-1 .5.5-1 1 1 1-.5.5-1-1-1 1-.5-.5 1-1-1-1zm5 0l.5-.5 1 1 1-1 .5.5-1 1 1 1-.5.5-1-1-1 1-.5-.5 1-1-1-1z" fill="#000" fill-rule="evenodd"/></symbol><symbol viewBox="0 0 24 24" id="train" xmlns="http://www.w3.org/2000/svg"><title>train</title><path d="M15 18.932c-.966.068-2.002.068-3.04.068-1.014 0-2.021 0-2.96-.063V21H6v-1l.711-1.423C5.09 18.106 4 17.11 4 15V7c0-4 3.955-4 8-4s8 0 8 4v8c0 2.092-1.095 3.09-2.717 3.566L18 20v1h-3v-2.068zM7 16a1 1 0 1 0 0-2 1 1 0 0 0 0 2zm10 0a1 1 0 1 0 0-2 1 1 0 0 0 0 2zM6 6v6h12V6H6z" fill="#000" fill-rule="evenodd"/></symbol><symbol viewBox="0 0 24 24" id="trash" xmlns="http://www.w3.org/2000/svg"><title>trash</title><path d="M4 5h3V4a2 2 0 0 1 2-2h6a2 2 0 0 1 2 2v1h3a1 1 0 0 1 0 2h-1v13a2 2 0 0 1-2 2H7a2 2 0 0 1-2-2V7H4a1 1 0 1 1 0-2zm3 2v13h10V7H7zm2-2h6V4H9v1zm0 4h2v9H9V9zm4 0h2v9h-2V9z" fill="#000" fill-rule="nonzero"/></symbol><symbol viewBox="0 0 24 24" id="trophy" xmlns="http://www.w3.org/2000/svg"><title>trophy</title><path d="M6.207 9H6a2 2 0 1 1 0-4V4a2 2 0 0 1 2-2h8a2 2 0 0 1 2 2v1a2 2 0 1 1 0 4h-.207A5.504 5.504 0 0 1 13 12.978V17h1a2 2 0 0 1 2 2v1h1a1 1 0 0 1 0 2H7a1 1 0 0 1 0-2h1v-1a2 2 0 0 1 2-2h1v-4.022A5.504 5.504 0 0 1 6.207 9zM8 4v3.5a3.5 3.5 0 0 0 3.5 3.5h1A3.5 3.5 0 0 0 16 7.5V4H8z" fill="#000" fill-rule="evenodd"/></symbol><symbol viewBox="0 0 24 24" id="truck" xmlns="http://www.w3.org/2000/svg"><title>truck</title><path d="M13 18h-3a3 3 0 0 1-6 0 2 2 0 0 1-2-2V6a2 2 0 0 1 2-2h11.001C16.105 4 17 4.895 17 5.999L20 6a2 2 0 0 1 2 2v8a2 2 0 0 1-2 2h-1a3 3 0 0 1-6 0zM4 6v9h11V6H4zm13 2v4h3V8h-3zm-1 11a1 1 0 1 0 0-2 1 1 0 0 0 0 2zm-9 0a1 1 0 1 0 0-2 1 1 0 0 0 0 2z" fill="#000" fill-rule="evenodd"/></symbol><symbol viewBox="0 0 14 12" id="twitter" xmlns="http://www.w3.org/2000/svg"><title>twitter</title><path d="M4.396 11.38c5.281 0 8.171-4.38 8.171-8.171 0-.123 0-.246-.005-.37a5.85 5.85 0 0 0 1.433-1.49 5.82 5.82 0 0 1-1.652.454A2.89 2.89 0 0 0 13.61.213c-.554.33-1.17.565-1.826.694A2.866 2.866 0 0 0 9.69 0a2.875 2.875 0 0 0-2.8 3.528A8.155 8.155 0 0 1 .968.526a2.88 2.88 0 0 0 .89 3.836A2.905 2.905 0 0 1 .56 4.005v.04c0 1.388.991 2.553 2.302 2.816a2.8 2.8 0 0 1-.756.101c-.185 0-.364-.017-.538-.05a2.872 2.872 0 0 0 2.683 1.994A5.76 5.76 0 0 1 0 10.098a8.169 8.169 0 0 0 4.396 1.282" fill="#000" fill-rule="nonzero"/></symbol><symbol viewBox="0 0 24 24" id="umbrella" xmlns="http://www.w3.org/2000/svg"><title>umbrella</title><path d="M13 20a2 2 0 1 1-2-2v-5H3c0-4.633 3.5-8.448 8-8.945V3a1 1 0 0 1 2 0v1.055c4.5.497 8 4.312 8 8.945h-8v7zm-7.71-9h13.42a7.003 7.003 0 0 0-13.42 0z" fill="#000" fill-rule="evenodd"/></symbol><symbol viewBox="0 0 24 24" id="underline" xmlns="http://www.w3.org/2000/svg"><title>underline</title><path d="M17 21H7a1 1 0 0 1 0-2h10a1 1 0 0 1 0 2zm1-17v7a6 6 0 1 1-12 0V4a1 1 0 1 1 2 0v7c0 2.21 1.79 4 4 4s4-1.79 4-4V4a1 1 0 0 1 2 0z" fill="#000" fill-rule="evenodd"/></symbol><symbol viewBox="0 0 24 24" id="union" xmlns="http://www.w3.org/2000/svg"><title>union</title><path d="M15 15v4a2 2 0 0 1-2 2H5a2 2 0 0 1-2-2v-8a2 2 0 0 1 2-2h4V5a2 2 0 0 1 2-2h8a2 2 0 0 1 2 2v8a2 2 0 0 1-2 2h-4zm-2-2h6V5h-8v6H5v8h8v-6z" fill="#000" fill-rule="evenodd"/></symbol><symbol viewBox="0 0 24 24" id="unlock" xmlns="http://www.w3.org/2000/svg"><title>unlock</title><path d="M7 10V7a5 5 0 1 1 10 0c0 .55-.45 1-1 1s-1-.45-1-1a3 3 0 0 0-6 0v3h9a2 2 0 0 1 2 2v8a2 2 0 0 1-2 2H6a2 2 0 0 1-2-2v-8a2 2 0 0 1 2-2h1zm-1 2v8h12v-8H6zm8 2h2v4h-2v-4z" fill="#000" fill-rule="evenodd"/></symbol><symbol viewBox="0 0 24 24" id="upload" xmlns="http://www.w3.org/2000/svg"><title>upload</title><path d="M13 5.828V17h-2V5.828L7.757 9.071 6.343 7.657 12 2l5.657 5.657-1.414 1.414L13 5.828zM5 19h14a1 1 0 0 1 0 2H5a1 1 0 0 1 0-2z" fill="#000" fill-rule="evenodd"/></symbol><symbol viewBox="0 0 24 24" id="usb" xmlns="http://www.w3.org/2000/svg"><title>usb</title><path d="M10 4v4h6V4h-6zm4 6v4h2v-4h-2zm-4-8h6a2 2 0 0 1 2 2v16a2 2 0 0 1-2 2h-6a2 2 0 0 1-2-2V4a2 2 0 0 1 2-2z" fill="#000" fill-rule="nonzero"/></symbol><symbol viewBox="0 0 24 24" id="user" xmlns="http://www.w3.org/2000/svg"><title>user</title><path d="M12 12a4 4 0 1 1 0-8 4 4 0 0 1 0 8zm0 3c3.186 0 6.045.571 8 3.063V20H4v-1.937C5.955 15.57 8.814 15 12 15z" fill="#000" fill-rule="nonzero"/></symbol><symbol viewBox="0 0 24 24" id="user-minus" xmlns="http://www.w3.org/2000/svg"><title>user-minus</title><path d="M12 15c3.186 0 6.045.571 8 3.063V20H4v-1.937C5.955 15.57 8.814 15 12 15zm0-3a4 4 0 1 1 0-8 4 4 0 0 1 0 8zm5 2a1 1 0 0 1 0-2h4a1 1 0 0 1 0 2h-4z" fill="#000" fill-rule="nonzero"/></symbol><symbol viewBox="0 0 24 24" id="user-plus" xmlns="http://www.w3.org/2000/svg"><title>user-plus</title><path d="M12 15c3.186 0 6.045.571 8 3.063V20H4v-1.937C5.955 15.57 8.814 15 12 15zm0-3a4 4 0 1 1 0-8 4 4 0 0 1 0 8zm8 2a1 1 0 0 1-2 0v-1h-1a1 1 0 0 1 0-2h1v-1a1 1 0 0 1 2 0v1h1a1 1 0 0 1 0 2h-1v1z" fill="#000" fill-rule="evenodd"/></symbol><symbol viewBox="0 0 24 24" id="users" xmlns="http://www.w3.org/2000/svg"><title>users</title><path d="M8 13a3 3 0 1 1 0-6 3 3 0 0 1 0 6zm8 0a3 3 0 1 1 0-6 3 3 0 0 1 0 6zm-8 2a7.98 7.98 0 0 1 6 2.708V19H2v-1.292A7.98 7.98 0 0 1 8 15zm8 4v-2.048l-.5-.567a10.057 10.057 0 0 0-1.25-1.193A8.028 8.028 0 0 1 16 15a7.98 7.98 0 0 1 6 2.708V19h-6z" fill="#000" fill-rule="evenodd"/></symbol><symbol viewBox="0 0 24 24" id="vector" xmlns="http://www.w3.org/2000/svg"><title>vector</title><path d="M8 20a2 2 0 0 1-2 2H4a2 2 0 0 1-2-2v-2a2 2 0 0 1 2-2V8a2 2 0 0 1-2-2V4a2 2 0 0 1 2-2h2a2 2 0 0 1 2 2h8a2 2 0 0 1 2-2h2a2 2 0 0 1 2 2v2a2 2 0 0 1-2 2v8a2 2 0 0 1 2 2v2a2 2 0 0 1-2 2h-2a2 2 0 0 1-2-2H8zM8 6a2 2 0 0 1-2 2v8a2 2 0 0 1 2 2h8a2 2 0 0 1 2-2V8a2 2 0 0 1-2-2H8zM4 4v2h2V4H4zm14 0v2h2V4h-2zm0 14v2h2v-2h-2zM4 18v2h2v-2H4z" fill="#000" fill-rule="nonzero"/></symbol><symbol viewBox="0 0 24 24" id="video" xmlns="http://www.w3.org/2000/svg"><title>video</title><path d="M15 9.649l5.646-2.137A1 1 0 0 1 22 8.448v7.109a1 1 0 0 1-1.351.936L15 14.375V16a2 2 0 0 1-2 2H4a2 2 0 0 1-2-2V8a2 2 0 0 1 2-2h9a2 2 0 0 1 2 2v1.649z" fill="#000" fill-rule="evenodd"/></symbol><symbol viewBox="0 0 24 24" id="wallet" xmlns="http://www.w3.org/2000/svg"><title>wallet</title><path d="M20 9c1.1 0 2 .9 2 2v2c0 1.1-.9 2-2 2v3a2 2 0 0 1-2 2H4a2 2 0 0 1-2-2V6a2 2 0 0 1 2-2h14a2 2 0 0 1 2 2v3zm-2 0V6H4v12h14v-3h-2c-1.1 0-2-1.1-2-2v-1.968C14 9.9 14.9 9 16 9h2zm-2 4h2v-2h-2v2z" fill="#000" fill-rule="evenodd"/></symbol><symbol viewBox="0 0 24 24" id="warning" xmlns="http://www.w3.org/2000/svg"><title>warning</title><path d="M12 20a8 8 0 1 0 0-16 8 8 0 0 0 0 16zm0 2C6.477 22 2 17.523 2 12S6.477 2 12 2s10 4.477 10 10-4.477 10-10 10zm-1-6h2v2h-2v-2zm0-10h2v8h-2V6z" fill="#000" fill-rule="nonzero"/></symbol><symbol viewBox="0 0 24 24" id="watch" xmlns="http://www.w3.org/2000/svg"><title>watch</title><path d="M15 6.803A5.998 5.998 0 0 1 18 12c0 2.22-1.207 4.16-3 5.197V20a2 2 0 0 1-2 2h-2a2 2 0 0 1-2-2v-2.803A5.998 5.998 0 0 1 6 12c0-2.22 1.207-4.16 3-5.197V4a2 2 0 0 1 2-2h2a2 2 0 0 1 2 2v2.803zM12 16a4 4 0 1 0 0-8 4 4 0 0 0 0 8zm2-5a1 1 0 0 1 0 2h-1c-1.1 0-2-.9-2-2v-1a1 1 0 0 1 2 0v1h1z" fill="#000" fill-rule="evenodd"/></symbol><symbol viewBox="0 0 24 24" id="watch-alt" xmlns="http://www.w3.org/2000/svg"><title>watch-alt</title><path d="M15 6h1a2 2 0 0 1 2 2v8a2 2 0 0 1-2 2h-1v2a2 2 0 0 1-2 2h-2a2 2 0 0 1-2-2v-2H8a2 2 0 0 1-2-2V8a2 2 0 0 1 2-2h1V4a2 2 0 0 1 2-2h2a2 2 0 0 1 2 2v2zM8 8v8h8V8H8z" fill="#000" fill-rule="evenodd"/></symbol><symbol viewBox="0 0 24 24" id="wine-glass" xmlns="http://www.w3.org/2000/svg"><title>wine-glass</title><path d="M9 20h2v-6a4 4 0 0 1-4-4V4a2 2 0 0 1 2-2h6a2 2 0 0 1 2 2v6a4 4 0 0 1-4 4v6h2a1 1 0 0 1 0 2H9a1 1 0 0 1 0-2zM9 4v6a2 2 0 0 0 2 2h2a2 2 0 0 0 2-2V4H9z" fill="#000" fill-rule="evenodd"/></symbol><symbol viewBox="0 0 14 14" id="wordpress" xmlns="http://www.w3.org/2000/svg"><title>wordpress</title><path d="M7 0C3.14 0 0 3.14 0 7s3.14 7 7 7 7-3.14 7-7-3.14-7-7-7m0 13.679A6.687 6.687 0 0 1 .32 6.999 6.686 6.686 0 0 1 7 .322 6.687 6.687 0 0 1 13.679 7a6.687 6.687 0 0 1-6.68 6.679M.996 6.999a6.005 6.005 0 0 0 3.385 5.405L1.515 4.556A5.981 5.981 0 0 0 .995 7m10.059-.303c0-.742-.267-1.256-.496-1.656-.304-.495-.59-.914-.59-1.409 0-.552.42-1.065 1.009-1.065.027 0 .052.003.078.004A5.983 5.983 0 0 0 7 .995 5.998 5.998 0 0 0 1.983 3.7c.14.005.273.008.386.008.628 0 1.6-.077 1.6-.077.324-.019.362.457.039.495 0 0-.325.038-.687.057l2.186 6.505 1.315-3.941-.936-2.564c-.323-.019-.63-.057-.63-.057-.323-.019-.285-.514.038-.495 0 0 .992.077 1.582.077.628 0 1.6-.077 1.6-.077.324-.019.362.457.039.495 0 0-.326.038-.688.057l2.17 6.455.6-2c.259-.832.457-1.428.457-1.942m-3.949.828L5.303 12.76a5.998 5.998 0 0 0 3.691-.095.554.554 0 0 1-.043-.083L7.105 7.525zm5.164-3.406c.026.191.04.396.04.617 0 .61-.114 1.294-.456 2.151l-1.834 5.303a6.001 6.001 0 0 0 2.25-8.071" fill="#000" fill-rule="evenodd"/></symbol><symbol viewBox="0 0 14 14" id="wordpress-alt" xmlns="http://www.w3.org/2000/svg"><title>wordpress-alt</title><path d="M12.523 3.98c.49.897.77 1.926.77 3.02a6.29 6.29 0 0 1-3.129 5.44l1.922-5.558c.36-.898.479-1.616.479-2.254 0-.232-.015-.447-.042-.648zm-4.656.069c.38-.02.72-.06.72-.06.34-.04.3-.538-.04-.518 0 0-1.019.08-1.677.08-.618 0-1.658-.08-1.658-.08-.339-.02-.379.498-.04.518 0 0 .322.04.66.06l.981 2.687-1.377 4.13L3.144 4.05c.38-.02.72-.06.72-.06.339-.04.299-.538-.04-.518 0 0-1.02.08-1.677.08-.118 0-.258-.003-.405-.008A6.286 6.286 0 0 1 7 .706a6.27 6.27 0 0 1 4.25 1.653c-.027-.002-.054-.005-.082-.005-.618 0-1.057.538-1.057 1.117 0 .518.3.957.619 1.476.239.419.519.957.519 1.735 0 .539-.208 1.164-.48 2.035l-.627 2.097L7.867 4.05zM7 13.294c-.618 0-1.214-.09-1.778-.257L7.11 7.55l1.935 5.3c.013.031.028.06.045.087a6.28 6.28 0 0 1-2.09.357zM.706 7c0-.913.196-1.779.545-2.562l3.003 8.226A6.294 6.294 0 0 1 .706 7zM7 0C3.14 0 0 3.14 0 7s3.14 7 7 7 7-3.14 7-7-3.14-7-7-7z" fill="#000" fill-rule="evenodd"/></symbol><symbol viewBox="0 0 24 24" id="wrench" xmlns="http://www.w3.org/2000/svg"><title>wrench</title><path d="M14 11.584V20a2 2 0 1 1-4 0v-8.416a5.001 5.001 0 0 1 2.391-9.569L10 6l4 2 2.215-3.691A5.001 5.001 0 0 1 14 11.584z" fill="#000" fill-rule="evenodd"/></symbol><symbol viewBox="0 0 14 10" id="youtube" xmlns="http://www.w3.org/2000/svg"><title>youtube</title><path d="M5.555 6.74l-.001-3.934 3.783 1.973-3.782 1.96zm8.305-4.616s-.137-.965-.556-1.39C12.77.178 12.174.175 11.9.143 9.94 0 7.003 0 7.003 0h-.006S4.058 0 2.099.142C1.825.174 1.23.177.696.735c-.42.424-.556 1.39-.556 1.39S0 3.256 0 4.39v1.062c0 1.133.14 2.266.14 2.266s.137.965.556 1.39c.533.557 1.232.54 1.544.598 1.12.107 4.76.14 4.76.14s2.942-.004 4.9-.145c.275-.033.871-.036 1.404-.593.42-.425.556-1.39.556-1.39S14 6.585 14 5.452V4.39c0-1.133-.14-2.266-.14-2.266z" fill="#000" fill-rule="evenodd"/></symbol></svg>