<?xml version="1.0" encoding="UTF-8"?>
<svg width="24px" height="24px" viewBox="0 0 24 24" version="1.1" xmlns="http://www.w3.org/2000/svg" xmlns:xlink="http://www.w3.org/1999/xlink">
    <!-- Generator: sketchtool 49.3 (51167) - http://www.bohemiancoding.com/sketch -->
    <title>angry</title>
    <desc>Created with sketchtool.</desc>
    <defs></defs>
    <g id="people" stroke="none" stroke-width="1" fill="none" fill-rule="evenodd">
        <g id="angry" fill="#000000">
            <path d="M12,22 C6.4771525,22 2,17.5228475 2,12 C2,6.4771525 6.4771525,2 12,2 C17.5228475,2 22,6.4771525 22,12 C22,17.5228475 17.5228475,22 12,22 Z M12,20 C16.418278,20 20,16.418278 20,12 C20,7.581722 16.418278,4 12,4 C7.581722,4 4,7.581722 4,12 C4,16.418278 7.581722,20 12,20 Z M16,17 L14.6611201,17 C14.6611201,17 14.2442153,14.3333333 12,14.3333333 C9.75578467,14.3333333 9.33333333,17 9.33333333,17 L8,17 C8,14.790861 9.790861,13 12,13 C14.209139,13 16,14.790861 16,17 Z" id="Shape"></path>
            <path d="M10.506405,8.98983837 C10.7565765,9.25783918 10.909675,9.61762369 10.909675,10.0131663 C10.909675,10.8415934 10.2381021,11.5131663 9.40967501,11.5131663 C8.58124788,11.5131663 7.90967501,10.8415934 7.90967501,10.0131663 C7.90967501,9.33142915 8.36447289,8.75591575 8.98721669,8.57347804 L7.329126,7.96998239 C7.06963705,7.87553613 6.93584351,7.58861496 7.03028977,7.329126 C7.12473602,7.06963705 7.4116572,6.93584351 7.67114615,7.03028977 L10.490224,8.0563502 C10.749713,8.15079645 10.8835065,8.43771763 10.7890602,8.69720658 C10.7386018,8.83584008 10.6332053,8.93859642 10.506405,8.98983837 Z" id="Combined-Shape"></path>
            <path d="M16.506405,8.98983837 C16.7565765,9.25783918 16.909675,9.61762369 16.909675,10.0131663 C16.909675,10.8415934 16.2381021,11.5131663 15.409675,11.5131663 C14.5812479,11.5131663 13.909675,10.8415934 13.909675,10.0131663 C13.909675,9.33142915 14.3644729,8.75591575 14.9872167,8.57347804 L13.329126,7.96998239 C13.0696371,7.87553613 12.9358435,7.58861496 13.0302898,7.329126 C13.124736,7.06963705 13.4116572,6.93584351 13.6711461,7.03028977 L16.490224,8.0563502 C16.749713,8.15079645 16.8835065,8.43771763 16.7890602,8.69720658 C16.7386018,8.83584008 16.6332053,8.93859642 16.506405,8.98983837 Z" id="Combined-Shape" transform="translate(14.954838, 9.256583) scale(-1, 1) translate(-14.954838, -9.256583) "></path>
        </g>
    </g>
</svg>