<?xml version="1.0" encoding="UTF-8"?>
<svg width="20px" height="20px" viewBox="0 0 20 20" version="1.1" xmlns="http://www.w3.org/2000/svg" xmlns:xlink="http://www.w3.org/1999/xlink">
    <!-- Generator: sketchtool 48.2 (47327) - http://www.bohemiancoding.com/sketch -->
    <title>bell</title>
    <desc>Created with sketchtool.</desc>
    <defs></defs>
    <g id="web-app" stroke="none" stroke-width="1" fill="none" fill-rule="evenodd">
        <g id="bell" fill="#000000">
            <path d="M15,13 L16,13 C16.5522847,13 17,13.4477153 17,14 C17,14.5522847 16.5522847,15 16,15 L4,15 C3.44771525,15 3,14.5522847 3,14 C3,13.4477153 3.44771525,13 4,13 L5,13 L5,9 C5,6.58104209 6.71775968,4.56328845 9,4.10001812 L9,3 C9,2.44771525 9.44771525,2 10,2 C10.5522847,2 11,2.44771525 11,3 L11,4.10001811 C13.2822403,4.56328845 15,6.58104209 15,9 L15,13 Z M8,16 L12,16 L12,16 C12,17.1045695 11.1045695,18 10,18 L10,18 C8.8954305,18 8,17.1045695 8,16 Z M7,13 L13,13 L13,9 C13,7.34314575 11.6568542,6 10,6 C8.34314575,6 7,7.34314575 7,9 L7,13 Z" id="Shape"></path>
        </g>
    </g>
</svg>