<?xml version="1.0" encoding="UTF-8"?>
<svg width="24px" height="24px" viewBox="0 0 24 24" version="1.1" xmlns="http://www.w3.org/2000/svg" xmlns:xlink="http://www.w3.org/1999/xlink">
    <!-- Generator: sketchtool 49.1 (51147) - http://www.bohemiancoding.com/sketch -->
    <title>cage</title>
    <desc>Created with sketchtool.</desc>
    <defs>
        <path d="M14,4.34141142 C16.3303847,5.16508423 18,7.38756235 18,10 L18,19 L18.5,19 C19.3284271,19 20,19.6715729 20,20.5 C20,21.3284271 19.3284271,22 18.5,22 L5.5,22 C4.67157288,22 4,21.3284271 4,20.5 C4,19.6715729 4.67157288,19 5.5,19 L6,19 L6,10 C6,7.38756235 7.66961525,5.16508423 10,4.34141142 L10,4 C10,2.8954305 10.8954305,2 12,2 C13.1045695,2 14,2.8954305 14,4 L14,4.34141142 Z M16,11 L16,14 L13,14 L13,11 L16,11 Z M16,9 L13,9 L13,6 C14.4672399,6.37764145 15.6223585,7.53276008 16,9 Z M8,11 L11,11 L11,14 L8,14 L8,11 Z M8,9 C8.37764145,7.53276008 9.53276008,6.37764145 11,6 L11,9 L8,9 Z M16,16 L16,19 L13,19 L13,16 L16,16 Z M8,16 L11,16 L11,19 L8,19 L8,16 Z" id="path-1"></path>
    </defs>
    <g id="e-commerce" stroke="none" stroke-width="1" fill="none" fill-rule="evenodd">
        <g id="cage">
            <g id="Shape">
                <use fill="#FFFFFF" fill-rule="evenodd" xlink:href="#path-1"></use>
                <path stroke="#000000" stroke-width="2" d="M13.6667539,5.2842513 L13,5.04858761 L13,4 C13,3.44771525 12.5522847,3 12,3 C11.4477153,3 11,3.44771525 11,4 L11,5.04858761 L10.3332461,5.2842513 C8.35197855,5.98452889 7,7.86385097 7,10 L7,20 L5.5,20 C5.22385763,20 5,20.2238576 5,20.5 C5,20.7761424 5.22385763,21 5.5,21 L18.5,21 C18.7761424,21 19,20.7761424 19,20.5 C19,20.2238576 18.7761424,20 18.5,20 L17,20 L17,10 C17,7.86385097 15.6480214,5.98452889 13.6667539,5.2842513 Z M17,10 L17,15 L12,15 L12,10 L17,10 Z M17.2899739,10 L12,10 L12,4.7100261 L13.2492585,5.031563 C15.0693369,5.5000188 16.4999812,6.93066313 16.968437,8.75074154 L17.2899739,10 Z M7,10 L12,10 L12,15 L7,15 L7,10 Z M7.031563,8.75074154 C7.5000188,6.93066313 8.93066313,5.5000188 10.7507415,5.031563 L12,4.7100261 L12,10 L6.7100261,10 L7.031563,8.75074154 Z M17,15 L17,20 L12,20 L12,15 L17,15 Z M7,15 L12,15 L12,20 L7,20 L7,15 Z"></path>
            </g>
        </g>
    </g>
</svg>