<?xml version="1.0" encoding="UTF-8"?>
<svg width="20px" height="20px" viewBox="0 0 20 20" version="1.1" xmlns="http://www.w3.org/2000/svg" xmlns:xlink="http://www.w3.org/1999/xlink">
    <!-- Generator: sketchtool 48.2 (47327) - http://www.bohemiancoding.com/sketch -->
    <title>comment-o</title>
    <desc>Created with sketchtool.</desc>
    <defs></defs>
    <g id="web-app" stroke="none" stroke-width="1" fill="none" fill-rule="evenodd">
        <g id="comment-o" fill="#000000" fill-rule="nonzero">
            <path d="M9,4 C6.23857625,4 4,6.23857625 4,9 C4,11.7614237 6.23857625,14 9,14 L11,14 C13.7614237,14 16,11.7614237 16,9 C16,6.23857625 13.7614237,4 11,4 L9,4 Z M9,2 L11,2 C14.8659932,2 18,5.13400675 18,9 C18,12.9106622 15,15.9106622 9,18 L9,16 C5.13400675,16 2,12.8659932 2,9 C2,5.13400675 5.13400675,2 9,2 Z" id="Shape"></path>
        </g>
    </g>
</svg>