<?xml version="1.0" encoding="UTF-8"?>
<svg width="20px" height="20px" viewBox="0 0 20 20" version="1.1" xmlns="http://www.w3.org/2000/svg" xmlns:xlink="http://www.w3.org/1999/xlink">
    <!-- Generator: sketchtool 48.2 (47327) - http://www.bohemiancoding.com/sketch -->
    <title>feed</title>
    <desc>Created with sketchtool.</desc>
    <defs></defs>
    <g id="web-app" stroke="none" stroke-width="1" fill="none" fill-rule="evenodd">
        <g id="feed" fill="#000000">
            <path d="M17,17 C17,17 14.9621104,17 14.9621104,17 C15,10.6175939 9.38240609,5 3,5.03788963 L3,3 C10.7319865,3 17,9.2680135 17,17 Z M13,17 C13,17 10.9450712,17 10.9450712,17 C11,12.8283834 7.17161661,9 3,9.05492878 L3,7 C8.5228475,7 13,11.4771525 13,17 Z M5,17 C3.8954305,17 3,16.1045695 3,15 C3,13.8954305 3.8954305,13 5,13 C6.1045695,13 7,13.8954305 7,15 C7,16.1045695 6.1045695,17 5,17 Z" id="Shape"></path>
        </g>
    </g>
</svg>