<?xml version="1.0" encoding="UTF-8"?>
<svg width="24px" height="24px" viewBox="0 0 24 24" version="1.1" xmlns="http://www.w3.org/2000/svg" xmlns:xlink="http://www.w3.org/1999/xlink">
    <!-- Generator: sketchtool 49.1 (51147) - http://www.bohemiancoding.com/sketch -->
    <title>home</title>
    <desc>Created with sketchtool.</desc>
    <defs>
        <path d="M12,3 L19.8740851,9.29926811 C20.5857308,9.86858467 21,10.7305234 21,11.6418745 L21,19 C21,20.1045695 20.1045695,21 19,21 L15.5,21 C14.3954305,21 13.5,20.1045695 13.5,19 L13.5,16.65 C13.5,16.0977153 13.0522847,15.65 12.5,15.65 L11.4987203,15.65 C10.9464356,15.65 10.4987203,16.0977153 10.4987203,16.65 L10.4987203,19 C10.4987203,20.1045695 9.60328982,21 8.49872032,21 L5,21 C3.8954305,21 3,20.1045695 3,19 L3,11.1612497 C3,10.5536823 3.27617944,9.97905645 3.7506099,9.59951208 L12,3 Z" id="path-1"></path>
    </defs>
    <g id="web-app" stroke="none" stroke-width="1" fill="none" fill-rule="evenodd">
        <g id="home">
            <g id="Rectangle-6">
                <use fill="#FFFFFF" fill-rule="evenodd" xlink:href="#path-1"></use>
                <path stroke="#000000" stroke-width="2" d="M12,4.28062485 L4.37530495,10.3803809 C4.13808972,10.5701531 4,10.857466 4,11.1612497 L4,19 C4,19.5522847 4.44771525,20 5,20 L8.49872032,20 C9.05100507,20 9.49872032,19.5522847 9.49872032,19 L9.49872032,16.65 C9.49872032,15.5454305 10.3941508,14.65 11.4987203,14.65 L12.5,14.65 C13.6045695,14.65 14.5,15.5454305 14.5,16.65 L14.5,19 C14.5,19.5522847 14.9477153,20 15.5,20 L19,20 C19.5522847,20 20,19.5522847 20,19 L20,11.6418745 C20,11.0343071 19.7238206,10.4596813 19.2493901,10.0801369 L12,4.28062485 Z"></path>
            </g>
        </g>
    </g>
</svg>