<?xml version="1.0" encoding="UTF-8"?>
<svg width="20px" height="20px" viewBox="0 0 20 20" version="1.1" xmlns="http://www.w3.org/2000/svg" xmlns:xlink="http://www.w3.org/1999/xlink">
    <!-- Generator: sketchtool 48.2 (47327) - http://www.bohemiancoding.com/sketch -->
    <title>key</title>
    <desc>Created with sketchtool.</desc>
    <defs></defs>
    <g id="web-app" stroke="none" stroke-width="1" fill="none" fill-rule="evenodd">
        <g id="key" fill="#000000" fill-rule="nonzero">
            <path d="M9.87398251,9 L17,9 C17.5522847,9 18,9.44771525 18,10 L18,12 C18,12.5522847 17.5522847,13 17,13 C16.4477153,13 16,12.5522847 16,12 L16,11 L15,11 L15,12 C15,12.5522847 14.5522847,13 14,13 C13.4477153,13 13,12.5522847 13,12 L13,11 L9.87398251,11 C9.42993972,12.7252272 7.86383943,14 6,14 C3.790861,14 2,12.209139 2,10 C2,7.790861 3.790861,6 6,6 C7.86383943,6 9.42993972,7.27477279 9.87398251,9 Z M6,12 C7.1045695,12 8,11.1045695 8,10 C8,8.8954305 7.1045695,8 6,8 C4.8954305,8 4,8.8954305 4,10 C4,11.1045695 4.8954305,12 6,12 Z" id="Shape"></path>
        </g>
    </g>
</svg>