<?xml version="1.0" encoding="UTF-8"?>
<svg width="20px" height="20px" viewBox="0 0 20 20" version="1.1" xmlns="http://www.w3.org/2000/svg" xmlns:xlink="http://www.w3.org/1999/xlink">
    <!-- Generator: sketchtool 48.2 (47327) - http://www.bohemiancoding.com/sketch -->
    <title>link</title>
    <desc>Created with sketchtool.</desc>
    <defs></defs>
    <g id="web-app" stroke="none" stroke-width="1" fill="none" fill-rule="evenodd">
        <g id="link" fill="#000000">
            <path d="M12,8 L15,8 C16.6568542,8 18,9.34314575 18,11 L18,13 C18,14.6568542 16.6568542,16 15,16 L11,16 C9.34314575,16 8,14.6568542 8,13 L8,12 L5,12 C3.34314575,12 2,10.6568542 2,9 L2,7 C2,5.34314575 3.34314575,4 5,4 L9,4 C10.6568542,4 12,5.34314575 12,7 L12,8 Z M10,8 C8.8954305,8 8,8.8954305 8,10 L5,10 C4.44771525,10 4,9.55228475 4,9 L4,7 C4,6.44771525 4.44771525,6 5,6 L9,6 C9.55228475,6 10,6.44771525 10,7 L10,8 Z M12,10 L15,10 C15.5522847,10 16,10.4477153 16,11 L16,13 C16,13.5522847 15.5522847,14 15,14 L11,14 C10.4477153,14 10,13.5522847 10,13 L10,12 C11.1045695,12 12,11.1045695 12,10 Z" id="Shape"></path>
        </g>
    </g>
</svg>