<?xml version="1.0" encoding="UTF-8"?>
<svg width="24px" height="24px" viewBox="0 0 24 24" version="1.1" xmlns="http://www.w3.org/2000/svg" xmlns:xlink="http://www.w3.org/1999/xlink">
    <!-- Generator: sketchtool 49.3 (51167) - http://www.bohemiancoding.com/sketch -->
    <title>link-external</title>
    <desc>Created with sketchtool.</desc>
    <defs></defs>
    <g id="web-app" stroke="none" stroke-width="1" fill="none" fill-rule="evenodd">
        <g id="link-external" fill="#000000" fill-rule="nonzero">
            <path d="M5,11 L5,19 L13,19 L13,11 L5,11 Z M5,9 L13,9 C14.1045695,9 15,9.8954305 15,11 L15,19 C15,20.1045695 14.1045695,21 13,21 L5,21 C3.8954305,21 3,20.1045695 3,19 L3,11 C3,9.8954305 3.8954305,9 5,9 Z M21,3 L21,11 L19,11 L19,5 L13,5 L13,3 L21,3 Z" id="Shape"></path>
        </g>
    </g>
</svg>