<?xml version="1.0" encoding="UTF-8"?>
<svg width="20px" height="20px" viewBox="0 0 20 20" version="1.1" xmlns="http://www.w3.org/2000/svg" xmlns:xlink="http://www.w3.org/1999/xlink">
    <!-- Generator: sketchtool 48.2 (47327) - http://www.bohemiancoding.com/sketch -->
    <title>mail</title>
    <desc>Created with sketchtool.</desc>
    <defs></defs>
    <g id="web-app" stroke="none" stroke-width="1" fill="none" fill-rule="evenodd">
        <g id="mail" fill="#000000" fill-rule="nonzero">
            <path d="M4,4 L16,4 C17.1045695,4 18,4.8954305 18,6 L18,14 C18,15.1045695 17.1045695,16 16,16 L4,16 C2.8954305,16 2,15.1045695 2,14 L2,6 C2,4.8954305 2.8954305,4 4,4 Z M4,9 L4,14 L16,14 L16,9 L10,12 L4,9 Z M4,6 L4,7 L10,10 L16,7 L16,6 L4,6 Z" id="Shape"></path>
        </g>
    </g>
</svg>