<?xml version="1.0" encoding="UTF-8"?>
<svg width="20px" height="20px" viewBox="0 0 20 20" version="1.1" xmlns="http://www.w3.org/2000/svg" xmlns:xlink="http://www.w3.org/1999/xlink">
    <!-- Generator: sketchtool 48.2 (47327) - http://www.bohemiancoding.com/sketch -->
    <title>mention</title>
    <desc>Created with sketchtool.</desc>
    <defs></defs>
    <g id="web-app" stroke="none" stroke-width="1" fill="none" fill-rule="evenodd">
        <g id="mention" fill="#000000" fill-rule="nonzero">
            <path d="M10,18 C5.581722,18 2,14.418278 2,10 C2,5.581722 5.581722,2 10,2 C14.418278,2 18,5.581722 18,10 C18,14.418278 14.418278,18 10,18 Z M15.6585886,12 C15.8796916,11.3744421 16,10.7012708 16,10 C16,6.6862915 13.3137085,4 10,4 C6.6862915,4 4,6.6862915 4,10 C4,13.3137085 6.6862915,16 10,16 C11.8118304,16 13.4360911,15.1969185 14.5362398,13.9272978 C14.3655832,13.974678 14.1857487,14 14,14 C13.1275366,14 12.3855531,13.4413495 12.1122474,12.6622466 C11.471268,13.4831442 10.5384482,14 9.5,14 C7.56700338,14 6,12.209139 6,10 C6,7.790861 7.56700338,6 9.5,6 C10.4793441,6 11.3647415,6.45969555 12,7.20058129 C12.009176,6.40019376 12.3448033,6 13.006882,6 C13.6689607,6 14,6.33333333 14,7 L14,12 L15.6585886,12 Z M10,12.5 C11.2743578,12.5 12.5,11.4494496 12.5,10 C12.5,8.55055045 11.2743578,7.5 10,7.5 C8.72564219,7.5 7.5,8.55055045 7.5,10 C7.5,11.4494496 8.72564219,12.5 10,12.5 Z" id="Shape"></path>
        </g>
    </g>
</svg>