<?xml version="1.0" encoding="UTF-8"?>
<svg width="20px" height="20px" viewBox="0 0 20 20" version="1.1" xmlns="http://www.w3.org/2000/svg" xmlns:xlink="http://www.w3.org/1999/xlink">
    <!-- Generator: sketchtool 48.2 (47327) - http://www.bohemiancoding.com/sketch -->
    <title>print</title>
    <desc>Created with sketchtool.</desc>
    <defs></defs>
    <g id="web-app" stroke="none" stroke-width="1" fill="none" fill-rule="evenodd">
        <g id="print" fill="#000000">
            <path d="M0,8 C0,8 0,7 1,7 L2,7 L2,5 L3,5 L3,0.999999996 C3,0.999999996 3,-1.57962811e-09 3.99558592,3.15498976e-09 C3.99558592,-3.94373711e-09 10,3.1549896e-09 10,3.15498966e-09 C11,3.15498966e-09 11,1 11,1 L11,5 L12,5 L12,7 C12,7 13,7 13,7 C14,7 14,8 14,8 L14,13 L11,13 C11,13 11,14 10,14 L3.99558592,14 C3,14 3,13 3,13 L0,13 L0,8 Z M4,10 L10,10 L10,13 L4,13 L4,10 Z M8,8 L10,8 L10,9 L8,9 L8,8 Z M4,0.999999996 L10,0.999999996 L10,7 L4,7 L4,0.999999996 Z" id="Shape"></path>
        </g>
    </g>
</svg>