<?xml version="1.0" encoding="UTF-8"?>
<svg width="20px" height="20px" viewBox="0 0 20 20" version="1.1" xmlns="http://www.w3.org/2000/svg" xmlns:xlink="http://www.w3.org/1999/xlink">
    <!-- Generator: sketchtool 48.2 (47327) - http://www.bohemiancoding.com/sketch -->
    <title>question</title>
    <desc>Created with sketchtool.</desc>
    <defs></defs>
    <g id="web-app" stroke="none" stroke-width="1" fill="none" fill-rule="evenodd">
        <g id="question" fill="#000000">
            <path d="M10,17 C6.13400675,17 3,13.8659932 3,10 C3,6.13400675 6.13400675,3 10,3 C13.8659932,3 17,6.13400675 17,10 C17,13.8659932 13.8659932,17 10,17 Z M9,14.5 C9,14.5 9,15 9.5,15 L10.5,15 C11,15 11,14.5 11,14.5 L11,13.5 C11,13.5 11,13 10.5,13 C10.5,13 9.5,13 9.5,13 C9,13 9,13.5 9,13.5 L9,14.5 Z M9,11.5594263 C9,12.0000001 9.5,11.9967214 9.5,11.9967214 L10.5,11.9967214 C10.5,11.9967214 11.0486732,12.0000001 11.0486732,11.5594263 C11.0486732,10.2475411 12.4350002,9.28321061 12.8480836,8.50173995 C13.2979361,7.62377053 13.0042575,5 10.0086026,5 C8,5 7,6.00897517 7,7.5 C7,7.5 7,8 7.5,8 L8.5,8 C9,8 9,7.5 9,7.5 C9,7.5 9,6.5 10,6.5 C11.0486732,6.5 11,7.5 11,8 C11,8.74016844 10.5,9.22136175 10,9.47323647 C10,9.47323647 9,9.91860888 9,11.5594263 Z" id="Shape"></path>
        </g>
    </g>
</svg>