<?xml version="1.0" encoding="UTF-8"?>
<svg width="20px" height="20px" viewBox="0 0 20 20" version="1.1" xmlns="http://www.w3.org/2000/svg" xmlns:xlink="http://www.w3.org/1999/xlink">
    <!-- Generator: sketchtool 48.2 (47327) - http://www.bohemiancoding.com/sketch -->
    <title>rocket</title>
    <desc>Created with sketchtool.</desc>
    <defs></defs>
    <g id="web-app" stroke="none" stroke-width="1" fill="none" fill-rule="evenodd">
        <g id="rocket" fill="#000000">
            <path d="M8.92182614,1.01583993 C8.92182614,1.01583993 10.9530957,0.0060406588 12.9843652,0 C12.9843652,-1.92827976e-11 13.4921826,1.8073183e-09 13.7460913,0.253959983 C14,0.507919964 14,1.01583993 14,1.01583993 C14,3.0475198 12.9843652,5.07919966 12.9843652,5.07919966 C12.5947074,5.85867269 11.3662611,7.83423704 10,9 L10,12 L7,14 L7,11 L5,12 L2,9 L3,7 L0,7 L2,4 L5,4 C6.16486844,2.63430329 8.14201578,1.40582388 8.92182614,1.01583993 Z M2,9.99999995 C2,9.99999995 1.00000001,10.9999998 2,11.9999999 C2.99999999,13 4,11.9999999 4,11.9999999 C4,11.9999999 4,13.9999999 2,14 C1.42042073e-15,14.0000001 1.22464675e-16,13.9999998 0,11.9999999 C1.22464672e-16,9.99999995 2,9.99999995 2,9.99999995 Z M10,4.99999997 C10.5522847,4.99999997 11,4.55228473 11,3.99999998 C11,3.44771523 10.5522847,2.99999998 10,2.99999998 C9.44771525,2.99999998 9,3.44771523 9,3.99999998 C9,4.55228473 9.44771525,4.99999997 10,4.99999997 Z" id="Shape"></path>
        </g>
    </g>
</svg>