<?xml version="1.0" encoding="UTF-8"?>
<svg width="20px" height="20px" viewBox="0 0 20 20" version="1.1" xmlns="http://www.w3.org/2000/svg" xmlns:xlink="http://www.w3.org/1999/xlink">
    <!-- Generator: sketchtool 48.2 (47327) - http://www.bohemiancoding.com/sketch -->
    <title>search</title>
    <desc>Created with sketchtool.</desc>
    <defs></defs>
    <g id="web-app" stroke="none" stroke-width="1" fill="none" fill-rule="evenodd">
        <g id="search" fill="#000000" fill-rule="nonzero">
            <path d="M8.25,12.5 C10.5972102,12.5 12.5,10.5972102 12.5,8.25 C12.5,5.90278981 10.5972102,4 8.25,4 C5.90278981,4 4,5.90278981 4,8.25 C4,10.5972102 5.90278981,12.5 8.25,12.5 Z M13.4318752,11.9473938 L17.6925538,16.2080724 C18.1024821,16.6180006 18.1024821,17.2826256 17.6925538,17.6925538 C17.2826256,18.1024821 16.6180006,18.1024821 16.2080724,17.6925538 L11.9473938,13.4318752 C10.9178411,14.1650407 9.65833751,14.5962426 8.2981213,14.5962426 C4.81976495,14.5962426 2,11.7764776 2,8.2981213 C2,4.81976495 4.81976495,2 8.2981213,2 C11.7764776,2 14.5962426,4.81976495 14.5962426,8.2981213 C14.5962426,9.65833751 14.1650407,10.9178411 13.4318752,11.9473938 Z" id="Shape"></path>
        </g>
    </g>
</svg>