<?xml version="1.0" encoding="UTF-8"?>
<svg width="24px" height="24px" viewBox="0 0 24 24" version="1.1" xmlns="http://www.w3.org/2000/svg" xmlns:xlink="http://www.w3.org/1999/xlink">
    <!-- Generator: sketchtool 49.1 (51147) - http://www.bohemiancoding.com/sketch -->
    <title>sync</title>
    <desc>Created with sketchtool.</desc>
    <defs>
        <path d="M6.8762659,15.1237341 C7.93014755,16.8486822 9.83062143,18 12,18 C14.6124377,18 16.8349158,16.3303847 17.6585886,14 L19.747965,14 C18.8598794,17.4504544 15.7276789,20 12,20 C9.28005374,20 6.87714422,18.6426044 5.43172915,16.5682708 L3,19 L3,13 L9,13 L6.8762659,15.1237341 Z M17.1245693,8.87543068 C16.0703077,7.15094618 14.1695981,6 12,6 C9.3868762,6 7.16381436,7.66961525 6.33992521,10 L4.25,10 C5.13831884,6.54954557 8.27134208,4 12,4 C14.7202162,4 17.123416,5.35695218 18.5692874,7.43071264 L21,5 L21,11 L15,11 L17.1245693,8.87543068 Z" id="path-1"></path>
    </defs>
    <g id="web-app" stroke="none" stroke-width="1" fill="none" fill-rule="evenodd">
        <g id="sync">
            <g id="Shape">
                <use fill="#FFFFFF" fill-rule="evenodd" xlink:href="#path-1"></use>
                <path stroke="#000000" stroke-width="2" d="M8.73982923,18.1958557 C9.72436611,18.714194 10.8376699,19 12,19 C10.840273,19 9.72876313,18.7161889 8.74446356,18.1988541 Z M18.326396,15 C18.4287768,14.7841034 18.5206943,14.5616642 18.6014285,14.3332461 L17.6585886,15 L18.326396,15 Z M18.327411,15 L19.747965,15 L18.779528,13.7507415 C18.6674425,14.1862243 18.5152534,14.603884 18.327411,15 Z M4,16.5857864 L2.29289322,18.2928932 L4,19 L4,16.5857864 Z M4,14 L4,13 L3,14 L4,14 Z M6.58578644,14 L9,14 L8.29289322,12.2928932 L6.58578644,14 Z M12.4029565,5.0114816 C12.2693823,5.00385501 12.1350218,5 12,5 C12.1350088,5 12.2693642,5.00384396 12.4029418,5.01145261 Z M12,5 C11.1430449,5 10.3156341,5.15533913 9.54811577,5.44225793 C10.3126748,5.15604671 11.1407914,5 12,5 Z M5.67217956,9 C5.56978755,9.21587181 5.4778587,9.43828503 5.39711283,9.66667612 L6.33992521,9 L5.67217956,9 Z M5.67069028,9 L4.25,9 L5.21842119,10.2493199 C5.33054158,9.81381601 5.48278194,9.39613559 5.67069028,9 Z M20,7.41421356 L21.7071068,5.70710678 L20,5 L20,7.41421356 Z M20,10 L20,11 L21,10 L20,10 Z M17.4142136,10 L15,10 L15.7071068,11.7071068 L17.4142136,10 Z"></path>
            </g>
        </g>
    </g>
</svg>