<?xml version="1.0" encoding="UTF-8"?>
<svg width="20px" height="20px" viewBox="0 0 20 20" version="1.1" xmlns="http://www.w3.org/2000/svg" xmlns:xlink="http://www.w3.org/1999/xlink">
    <!-- Generator: sketchtool 48.2 (47327) - http://www.bohemiancoding.com/sketch -->
    <title>timeline</title>
    <desc>Created with sketchtool.</desc>
    <defs></defs>
    <g id="web-app" stroke="none" stroke-width="1" fill="none" fill-rule="evenodd">
        <g id="timeline" fill="#000000">
            <path d="M5,11 L12,11 L12,12 L5,12 L5,11 Z M1,13.0046024 C1,12.9944951 12.9931545,13 12.9931545,13 C12.9998968,13 13,4.99539757 13,4.99539757 C13,5.00550487 1.00684547,5 1.00684547,5 C1.00010318,5 1,13.0046024 1,13.0046024 Z M5,9 L12,9 L12,10 L5,10 L5,9 Z M5,6 L12,6 L12,8 L5,8 L5,6 Z M2,6 L4,6 L4,8 L2,8 L2,6 Z M0,4.99539757 C0,4.44565467 0.449948758,4 1.00684547,4 L12.9931545,4 C13.5492199,4 14,4.4556644 14,4.99539757 L14,13.0046024 C14,13.5543453 13.5500512,14 12.9931545,14 L1.00684547,14 C0.450780073,14 0,13.5443356 0,13.0046024 L0,4.99539757 Z" id="Shape"></path>
        </g>
    </g>
</svg>