<?xml version="1.0" encoding="UTF-8"?>
<svg width="20px" height="20px" viewBox="0 0 20 20" version="1.1" xmlns="http://www.w3.org/2000/svg" xmlns:xlink="http://www.w3.org/1999/xlink">
    <!-- Generator: sketchtool 48.2 (47327) - http://www.bohemiancoding.com/sketch -->
    <title>trash</title>
    <desc>Created with sketchtool.</desc>
    <defs>
        <path d="M9,2 L11,2 C12.1045695,2 13,2.8954305 13,4 L13,7 L7,7 L7,4 C7,2.8954305 7.8954305,2 9,2 Z" id="path-1"></path>
        <path d="M4,4 L16,4 L16,16 C16,17.1045695 15.1045695,18 14,18 L6,18 C4.8954305,18 4,17.1045695 4,16 L4,4 Z" id="path-2"></path>
    </defs>
    <g id="web-app" stroke="none" stroke-width="1" fill="none" fill-rule="evenodd">
        <g id="trash">
            <g id="grid">
                <rect id="content-area" fill-opacity="0.200000018" fill="#66D5FF" fill-rule="evenodd" x="2" y="2" width="16" height="16"></rect>
                <path d="M2,2 L18,18" id="Line" stroke="#C1C0C1" stroke-width="0.02" stroke-linecap="square" transform="translate(10.000000, 10.000000) scale(-1, 1) translate(-10.000000, -10.000000) "></path>
                <circle id="circle" stroke="#C1C0C1" stroke-width="0.02" cx="10" cy="10" r="7.99"></circle>
                <circle id="circle" stroke="#C1C0C1" stroke-width="0.02" cx="10" cy="10" r="2.99"></circle>
                <circle id="circle-small" stroke="#CCD2D6" stroke-width="0.02" cx="4" cy="4" r="1"></circle>
                <circle id="circle-small" stroke="#CCD2D6" stroke-width="0.02" cx="16" cy="4" r="1"></circle>
                <circle id="circle-small" stroke="#CCD2D6" stroke-width="0.02" cx="16" cy="16" r="1"></circle>
                <circle id="circle-small" stroke="#CCD2D6" stroke-width="0.02" cx="4" cy="16" r="1"></circle>
                <path d="M2,2 L18,18" id="Line" stroke="#C1C0C1" stroke-width="0.02" stroke-linecap="square"></path>
                <rect id="rect-horizontal" stroke="#C1C0C1" stroke-width="0.02" x="4.01" y="2.01" width="11.98" height="15.98" rx="2"></rect>
                <rect id="rect-vertical" stroke="#C1C0C1" stroke-width="0.02" transform="translate(10.000000, 10.000000) rotate(90.000000) translate(-10.000000, -10.000000) " x="4.01" y="2.01" width="11.98" height="15.98" rx="2"></rect>
            </g>
            <g id="Rectangle-3">
                <use fill="#FFFFFF" fill-rule="evenodd" xlink:href="#path-1"></use>
                <path stroke="#000000" stroke-width="1.5" d="M7.75,6.25 L12.25,6.25 L12.25,4 C12.25,3.30964406 11.6903559,2.75 11,2.75 L9,2.75 C8.30964406,2.75 7.75,3.30964406 7.75,4 L7.75,6.25 Z"></path>
            </g>
            <g id="Rectangle-2">
                <use fill="#FFFFFF" fill-rule="evenodd" xlink:href="#path-2"></use>
                <path stroke="#000000" stroke-width="1.5" d="M4.75,4.75 L4.75,16 C4.75,16.6903559 5.30964406,17.25 6,17.25 L14,17.25 C14.6903559,17.25 15.25,16.6903559 15.25,16 L15.25,4.75 L4.75,4.75 Z"></path>
            </g>
            <rect id="Rectangle" fill="#000000" x="3" y="4" width="14" height="2" rx="1"></rect>
            <rect id="Rectangle-4" fill="#000000" x="7" y="8" width="2" height="6"></rect>
            <rect id="Rectangle-4" fill="#000000" x="11" y="8" width="2" height="6"></rect>
        </g>
    </g>
</svg>