<?xml version="1.0" encoding="UTF-8"?>
<svg width="20px" height="20px" viewBox="0 0 20 20" version="1.1" xmlns="http://www.w3.org/2000/svg" xmlns:xlink="http://www.w3.org/1999/xlink">
    <!-- Generator: sketchtool 48.2 (47327) - http://www.bohemiancoding.com/sketch -->
    <title>unlock</title>
    <desc>Created with sketchtool.</desc>
    <defs></defs>
    <g id="web-app" stroke="none" stroke-width="1" fill="none" fill-rule="evenodd">
        <g id="unlock" fill="#000000">
            <path d="M12,6 C12,4.8954305 11.1045695,4 10,4 C8.8954305,4 8,4.8954305 8,6 L8,8 L14,8 C15.1045695,8 16,8.8954305 16,10 L16,16 C16,17.1045695 15.1045695,18 14,18 L6,18 C4.8954305,18 4,17.1045695 4,16 L4,10 C4,8.8954305 4.8954305,8 6,8 L6,6 C6,3.790861 7.790861,2 10,2 C12.209139,2 14,3.790861 14,6 L12,6 Z M6,10 L6,16 L14,16 L14,10 L6,10 Z" id="Shape"></path>
        </g>
    </g>
</svg>