<?xml version="1.0" encoding="UTF-8"?>
<svg width="20px" height="20px" viewBox="0 0 20 20" version="1.1" xmlns="http://www.w3.org/2000/svg" xmlns:xlink="http://www.w3.org/1999/xlink">
    <!-- Generator: sketchtool 48.2 (47327) - http://www.bohemiancoding.com/sketch -->
    <title>user-plus</title>
    <desc>Created with sketchtool.</desc>
    <defs></defs>
    <g id="web-app" stroke="none" stroke-width="1" fill="none" fill-rule="evenodd">
        <g id="user-plus" fill="#000000">
            <path d="M15.5,9.5 L17,9.5 L17,10.5 L15.5,10.5 L15.5,12 L14.5,12 L14.5,10.5 L13,10.5 L13,9.5 L14.5,9.5 L14.5,8 L15.5,8 L15.5,9.5 Z M8.99999999,10 C7.34314574,10 5.99999999,8.65685425 5.99999999,7 C5.99999999,5.34314575 7.34314574,4 8.99999999,4 C10.6568542,4 12,5.34314575 12,7 C12,8.65685425 10.6568542,10 8.99999999,10 Z M9,12 C12,12 15,13.79 15,15 L15,15.9970707 L3.00247329,16 L3,15 C3.00247329,13.7852515 6,12 9,12 Z" id="Shape"></path>
        </g>
    </g>
</svg>