<?xml version="1.0" encoding="UTF-8"?>
<svg width="20px" height="20px" viewBox="0 0 20 20" version="1.1" xmlns="http://www.w3.org/2000/svg" xmlns:xlink="http://www.w3.org/1999/xlink">
    <!-- Generator: sketchtool 48.2 (47327) - http://www.bohemiancoding.com/sketch -->
    <title>users</title>
    <desc>Created with sketchtool.</desc>
    <defs></defs>
    <g id="web-app" stroke="none" stroke-width="1" fill="none" fill-rule="evenodd">
        <g id="users" fill="#000000">
            <path d="M10.3106426,12.9982154 L3.00164886,13 L3,12.3333333 C3.00164886,11.523501 5,10.3333333 7,10.3333333 C9,10.3333333 11,11.5266666 11,12.3333333 L11,12.6983429 C11.6107182,12.4769462 12.3052596,12.3333333 13,12.3333333 C15,12.3333333 17,13.5266666 17,14.3333333 L17,14.9980471 L9.00164886,15 L9,14.3333333 C9.00084624,13.9177056 9.52762748,13.4018969 10.3106426,12.9982154 Z M6.99999999,9 C5.8954305,9 4.99999999,8.1045695 4.99999999,7 C4.99999999,5.8954305 5.8954305,5 6.99999999,5 C8.10456949,5 8.99999999,5.8954305 8.99999999,7 C8.99999999,8.1045695 8.10456949,9 6.99999999,9 Z M13,11 C11.8954305,11 11,10.1045695 11,9 C11,7.8954305 11.8954305,7 13,7 C14.1045695,7 15,7.8954305 15,9 C15,10.1045695 14.1045695,11 13,11 Z" id="Shape"></path>
        </g>
    </g>
</svg>