<?xml version="1.0" encoding="UTF-8"?>
<svg width="20px" height="20px" viewBox="0 0 20 20" version="1.1" xmlns="http://www.w3.org/2000/svg" xmlns:xlink="http://www.w3.org/1999/xlink">
    <!-- Generator: sketchtool 48.2 (47327) - http://www.bohemiancoding.com/sketch -->
    <title>wrench</title>
    <desc>Created with sketchtool.</desc>
    <defs>
        <path d="M11.9604856,8.88075654 L17.6993227,14.6195936 C18.1002258,15.0204967 18.1002258,15.6704889 17.6993227,16.0713919 L16.0713919,17.6993227 C15.6704889,18.1002258 15.0204967,18.1002258 14.6195936,17.6993227 L8.88075654,11.9604856 C8.33520643,12.1580463 7.7466235,12.2657637 7.13288183,12.2657637 C4.29806947,12.2657637 2,9.96769419 2,7.13288183 C2,4.29806947 4.29806947,2 7.13288183,2 C9.96769419,2 12.2657637,4.29806947 12.2657637,7.13288183 C12.2657637,7.7466235 12.1580463,8.33520643 11.9604856,8.88075654 Z" id="path-1"></path>
    </defs>
    <g id="web-app" stroke="none" stroke-width="1" fill="none" fill-rule="evenodd">
        <g id="wrench">
            <g id="Combined-Shape">
                <use fill="#FFFFFF" fill-rule="evenodd" xlink:href="#path-1"></use>
                <path stroke="#000000" stroke-width="1" d="M17.3457694,14.973147 L11.3820975,9.00947521 L11.4903621,8.71051017 C11.6718199,8.20942676 11.7657637,7.6779547 11.7657637,7.13288183 C11.7657637,4.57421185 9.69155181,2.5 7.13288183,2.5 C4.57421185,2.5 2.5,4.57421185 2.5,7.13288183 C2.5,9.69155181 4.57421185,11.7657637 7.13288183,11.7657637 C7.6779547,11.7657637 8.20942676,11.6718199 8.71051017,11.4903621 L9.00947521,11.3820975 L14.973147,17.3457694 C15.1787879,17.5514102 15.5121976,17.5514102 15.7178385,17.3457694 L17.3457694,15.7178385 C17.5514102,15.5121976 17.5514102,15.1787879 17.3457694,14.973147 Z"></path>
            </g>
        </g>
    </g>
</svg>