<?xml version="1.0" standalone="no"?>
<!DOCTYPE svg PUBLIC "-//W3C//DTD SVG 1.1//EN" "http://www.w3.org/Graphics/SVG/1.1/DTD/svg11.dtd" >
<!--
2018-2-20: Created with FontForge (http://fontforge.org)
-->
<svg xmlns="http://www.w3.org/2000/svg" xmlns:xlink="http://www.w3.org/1999/xlink" version="1.1">
<metadata>
Created by FontForge 20170925 at Tue Feb 20 22:25:04 2018
 By Megumi Hano

</metadata>
<defs>
<font id="feathericon" horiz-adv-x="512" >
  <font-face 
    font-family="feathericon"
    font-weight="400"
    font-stretch="normal"
    units-per-em="512"
    panose-1="2 0 5 3 0 0 0 0 0 0"
    ascent="448"
    descent="-64"
    bbox="-0.36 -103 512 448.287"
    underline-thickness="22.4"
    underline-position="-44.8"
    unicode-range="U+0020-F1F6"
  />
    <missing-glyph />
    <glyph glyph-name="space" unicode=" " horiz-adv-x="200" 
 />
    <glyph glyph-name="equalizer" unicode="&#xf1a0;" 
d="M302 405c9 25 33 43 61 43s51 -18 60 -43h89v-42h-89c-9 -25 -32 -43 -60 -43s-52 18 -61 43h-302v42h302zM89 192c9 25 32 43 60 43s52 -18 61 -43h302v-43h-302c-9 -25 -33 -42 -61 -42s-51 17 -60 42h-89v43h89z" />
    <glyph glyph-name="code" unicode="&#xf117;" 
d="M183 193l-37 -38l-146 147l146 146l37 -37l-110 -109zM329 192l110 110l-110 109l37 37l146 -146l-146 -147z" />
    <glyph glyph-name="shield" unicode="&#xf172;" horiz-adv-x="256" 
d="M0 448h256v-256l-128 -102l-128 102v256zM128 422v-294l103 77v217h-103z" />
    <glyph glyph-name="rocket" unicode="&#xf14d;" horiz-adv-x="358" 
d="M228 422c0 0 52 26 104 26c0 0 13 0 20 -7c6 -7 6 -19 6 -19c0 -52 -26 -104 -26 -104c-10 -20 -41 -70 -76 -100v-77l-77 -51v76l-51 -25l-77 77l26 51h-77l51 77h77c30 35 80 66 100 76zM51 192c0 0 -26 -25 0 -51s51 0 51 0s0 -51 -51 -51s-51 0 -51 51s51 51 51 51z
M256 320c14 0 26 12 26 26s-12 25 -26 25s-26 -11 -26 -25s12 -26 26 -26z" />
    <glyph glyph-name="trophy" unicode="&#xf158;" horiz-adv-x="366" 
d="M73 411v37h220v-37h73v-36s0 -73 -73 -73v-37s-1 -73 -74 -73v-110h37c37 0 37 -36 37 -36h-220s0 36 37 36h36v110c-73 0 -73 73 -73 73v37c-73 0 -73 73 -73 73v36h73v0zM293 375v-37c37 0 36 37 36 37h-36zM73 375h-36s-1 -37 36 -37v37zM0 9h366v-73h-366v73z" />
    <glyph glyph-name="drop-up" unicode="&#xf124;" 
d="M256 448l256 -256h-512z" />
    <glyph glyph-name="money" unicode="&#xf1a8;" horiz-adv-x="358" 
d="M77 269h205c0 51 51 51 51 51v51s-51 0 -51 51h-205c0 -51 -51 -51 -51 -51v-51s51 0 51 -51zM0 422c0 0 0 26 26 26h307c26 0 25 -26 25 -26v-153s1 -26 -25 -26h-307c-26 0 -26 26 -26 26v153zM205 294c-28 0 -51 24 -51 52s23 51 51 51s51 -23 51 -51s-23 -52 -51 -52
zM102 397h26v-103h-26v103zM205 320c14 0 25 12 25 26s-11 25 -25 25s-26 -11 -26 -25s12 -26 26 -26z" />
    <glyph glyph-name="laptop" unicode="&#xf133;" 
d="M-0 119h512s0 -37 -37 -37c2 0 -438 0 -438 0c-37 0 -37 37 -37 37zM475 191c0 -35 -36 -36 -36 -36h-366s-36 0 -36 37c0 -1 0 219 0 219c0 37 36 37 36 37h366s36 0 36 -37v-220zM73 411v-219h366v219h-366z" />
    <glyph glyph-name="random" unicode="&#xf189;" 
d="M384 320l-85 -85l85 -86h43v43l85 -85l-85 -86v43h-86l-85 85l-85 -85h-171v85h128l85 86l-85 85h-128v85h171l85 -85l85 85h86v43l85 -85l-85 -86s1 41 0 43s-43 0 -43 0z" />
    <glyph glyph-name="remove-cart" unicode="&#xf1eb;" 
d="M128 405v-42v-214h341v214h43v-214c0 -24 -19 -42 -43 -42h-341v-43h320c15 0 21 -7 21 -21s-7 -21 -21 -22h-320c-28 0 -43 15 -43 43v341h-64c-12 0 -21 10 -21 22s9 21 21 21h128c12 0 22 -9 22 -21s-10 -22 -22 -22h-21zM213 348h171v-56h-171v56zM171 -64
c-24 0 -43 19 -43 43s19 42 43 42s42 -18 42 -42s-18 -43 -42 -43zM384 -64c-24 0 -43 19 -43 43s19 42 43 42s43 -18 43 -42s-19 -43 -43 -43z" />
    <glyph glyph-name="disabled" unicode="&#xf11f;" horiz-adv-x="307" 
d="M154 141c-85 0 -154 68 -154 153s69 154 154 154s153 -69 153 -154s-68 -153 -153 -153zM77 192c21 -16 48 -26 77 -26c71 0 128 57 128 128c0 29 -10 56 -26 77l-179 -179v0zM51 218v0l179 179c-21 16 -47 25 -76 25c-71 0 -128 -57 -128 -128c0 -29 9 -55 25 -76z" />
    <glyph glyph-name="align-left" unicode="&#xf196;" horiz-adv-x="439" 
d="M146 375h293v-110h-293v110zM146 192h220v-110h-220v110zM-0 448h73v-512h-73v512z" />
    <glyph glyph-name="umbrella" unicode="&#xf1f2;" horiz-adv-x="439" 
d="M303 159c-12 25 -36 44 -65 50v-163c0 -40 -33 -73 -73 -73s-74 33 -74 73c0 10 9 18 19 18s18 -8 18 -18c0 -20 17 -37 37 -37s36 17 36 37v163c-29 -6 -53 -25 -65 -50c-15 31 -47 51 -84 51c-19 0 -37 -6 -52 -16c18 97 100 172 201 180v19c0 12 6 18 18 18
s19 -6 19 -18v-19c101 -8 183 -83 201 -180c-15 10 -33 16 -52 16c-37 0 -69 -20 -84 -51z" />
    <glyph glyph-name="keyboard" unicode="&#xf132;" 
d="M512 229c0 0 0 -37 -37 -37h-438c-37 0 -37 37 -37 37v182s0 37 37 37c-1 0 437 0 438 0c37 0 37 -37 37 -37v-182zM37 411v-36h73v36h-73zM146 411v-36h37v36h-37zM219 411v-36h37v36h-37zM293 411v-36h36v36h-36zM366 411v-36h36v36h-36zM439 411v-36h36v36h-36z
M402 338v-109h73v109h-73zM37 338v-36h36v36h-36zM110 338v-36h36v36h-36zM183 338v-36h36v36h-36zM256 338v-36h37v36h-37zM329 338v-36h37v36h-37zM37 265v-36h36v36h-36zM110 265v-36h36v36h-36zM183 265v-36h36v36h-36zM256 265v-36h37v36h-37zM329 265v-36h37v36h-37z
" />
    <glyph glyph-name="underline" unicode="&#xf1ae;" horiz-adv-x="366" 
d="M-0 448h73v-219s55 -110 110 -110s110 46 110 110v219h73v-219s-92 -183 -183 -183s-183 73 -183 183v219zM-0 9h366v-73h-366v73z" />
    <glyph glyph-name="video" unicode="&#xf15e;" 
d="M329 412v-67l151 85c18 10 32 2 32 -18v-293c0 -20 -14 -29 -32 -19l-151 85v-66c0 -20 -16 -37 -36 -37h-257c-20 0 -36 17 -36 37v293c0 20 16 36 36 36h257c20 0 36 -16 36 -36z" />
    <glyph glyph-name="pause" unicode="&#xf187;" horiz-adv-x="461" 
d="M0 448h154v-512h-154v512zM307 448h154v-512h-154v512z" />
    <glyph glyph-name="layout" unicode="&#xf134;" 
d="M0 448h329v-366h-329v366zM366 448h146v-110h-146v110zM366 302h146v-220h-146v220z" />
    <glyph glyph-name="tablet" unicode="&#xf152;" horiz-adv-x="366" 
d="M366 -27c0 -37 -37 -37 -37 -37h-292s-37 0 -37 37v438c0 37 37 37 37 37h292s37 0 37 -37v-438zM37 9h292v366h-292v-366z" />
    <glyph glyph-name="cage" unicode="&#xf1e7;" 
d="M299 277h167c25 0 46 -18 46 -42c0 -5 0 -10 -2 -14l-61 -170c-6 -17 -23 -30 -43 -30h-300c-20 0 -37 13 -43 30l-61 170c-8 22 5 47 29 54c5 1 10 2 15 2h167v171h86v-171zM256 149c24 0 43 19 43 43s-19 43 -43 43s-43 -19 -43 -43s19 -43 43 -43z" />
    <glyph glyph-name="drop-right" unicode="&#xf123;" horiz-adv-x="233" 
d="M0 448l233 -233l-233 -232v465z" />
    <glyph glyph-name="desktop" unicode="&#xf11d;" 
d="M219 46v36h-182s-37 0 -37 37c0 0 0 294 0 292c0 37 37 37 37 37h438s37 0 37 -37v-292c0 -37 -37 -37 -37 -37h-182v-36h73s0 -37 -37 -37h-146c-37 0 -37 37 -37 37h73zM37 411v-292h438v292h-438z" />
    <glyph glyph-name="terminal" unicode="&#xf154;" 
d="M0 119v292c0 37 37 37 37 37h438s37 0 37 -37v-292c0 -37 -37 -37 -37 -37h-438s-37 0 -37 37zM73 375l73 -73l-73 -73l37 -37l109 110l-109 109zM183 192v-37h183v37h-183z" />
    <glyph glyph-name="location" unicode="&#xf138;" horiz-adv-x="307" 
d="M154 38c37 0 102 125 102 205c0 57 -45 103 -102 103s-103 -46 -103 -103c0 -80 66 -205 103 -205zM154 -13c-85 0 -154 171 -154 256s69 154 154 154s153 -69 153 -154s-68 -256 -153 -256zM154 192c-28 0 -52 23 -52 51s24 51 52 51s51 -23 51 -51s-23 -51 -51 -51z
" />
    <glyph glyph-name="mail" unicode="&#xf13c;" horiz-adv-x="410" 
d="M51 346h307c28 0 52 -24 52 -52v-204c0 -28 -24 -52 -52 -52h-307c-28 0 -51 24 -51 52v204c0 28 23 52 51 52zM51 218v-128h307v128l-153 -77zM51 294v-25l154 -77l153 77v25h-307z" />
    <glyph glyph-name="folder" unicode="&#xf12a;" horiz-adv-x="358" 
d="M26 141c-26 0 -26 25 -26 25v205s0 26 26 26h25v25c0 26 26 26 26 26h77s25 0 25 -26v-25h154c26 0 25 -26 25 -26v-205s1 -25 -25 -25h-307z" />
    <glyph glyph-name="drop-down" unicode="&#xf121;" 
d="M0 448h512l-256 -256z" />
    <glyph glyph-name="columns" unicode="&#xf118;" 
d="M366 448h146v-329h-146v329zM183 448h146v-329h-146v329zM0 448h146v-329h-146v329z" />
    <glyph glyph-name="coffee" unicode="&#xf166;" 
d="M427 448v-43h42s43 1 43 -106s-43 -107 -43 -107h-42c0 -43 -43 -85 -86 -85h-256c-43 0 -85 42 -85 85v256h427zM0 64h512v-43h-512v43z" />
    <glyph glyph-name="stop" unicode="&#xf18b;" 
d="M0 -64v512h512v-512h-512z" />
    <glyph glyph-name="pocket" unicode="&#xf1dc;" 
d="M509 417c2 -5 3 -10 3 -15v-155l-2 -31c-7 -70 -44 -130 -100 -173c-1 -1 -2 -1 -3 -2v-1c-29 -21 -61 -35 -96 -43c-1 0 -1 -1 -2 -1c-2 0 -4 -1 -6 -1c-16 -3 -31 -4 -47 -4c-17 0 -34 2 -51 5c-36 7 -70 22 -100 44v1c-1 1 -2 1 -3 2c-56 43 -93 103 -100 173l-2 31
v155c0 6 1 11 3 16c7 18 24 30 43 30h376h44v0c19 0 36 -13 43 -31zM401 256c14 13 14 36 1 50s-36 14 -50 1l-96 -92l-96 92c-14 13 -36 13 -49 -1s-13 -37 1 -50l120 -115c7 -7 15 -10 24 -10s18 3 25 10z" />
    <glyph glyph-name="mention" unicode="&#xf164;" horiz-adv-x="410" 
d="M205 -13c-113 0 -205 92 -205 205s92 205 205 205s205 -92 205 -205s-92 -205 -205 -205zM350 141c6 16 8 33 8 51c0 85 -68 154 -153 154s-154 -69 -154 -154s69 -154 154 -154c46 0 88 20 116 53c-4 -1 -9 -1 -14 -1c-22 0 -41 14 -48 34c-16 -21 -40 -34 -67 -34
c-49 0 -90 45 -90 102s41 102 90 102c25 0 48 -11 64 -30c0 20 9 30 26 30s25 -8 25 -25v-128h43zM205 128c33 0 64 27 64 64s-31 64 -64 64s-64 -27 -64 -64s31 -64 64 -64z" />
    <glyph glyph-name="facebook" unicode="&#xf1d4;" 
d="M351 -64v198h67l10 78h-77v49c0 22 7 37 39 37l41 1v69c-7 1 -32 3 -60 3c-59 0 -99 -36 -99 -102v-57h-67v-78h67v-198h-244c-16 0 -28 12 -28 28v456c0 16 12 28 28 28h456c16 0 28 -12 28 -28v-456c0 -16 -12 -28 -28 -28h-133z" />
    <glyph glyph-name="tiled" unicode="&#xf156;" 
d="M366 265h146v-146h-146v146zM183 265h146v-146h-146v146zM0 265h146v-146h-146v146zM366 448h146v-146h-146v146zM183 448h146v-146h-146v146zM0 448h146v-146h-146v146z" />
    <glyph glyph-name="wordpress" unicode="&#xf1de;" 
d="M256 448c141 0 256 -115 256 -256s-115 -256 -256 -256s-256 115 -256 256s115 256 256 256zM256 -52c135 0 244 109 244 244s-109 244 -244 244s-244 -109 -244 -244s109 -244 244 -244zM36 192c0 32 7 62 19 89l105 -287c-73 36 -124 111 -124 198zM404 203
c0 -19 -7 -41 -16 -71l-22 -73l-80 236c13 1 25 2 25 2c12 1 11 19 -1 18c0 0 -36 -3 -59 -3c-22 0 -57 3 -57 3c-12 1 -14 -17 -2 -18c0 0 11 -1 23 -2l34 -94l-48 -144l-80 238l26 2c12 1 10 19 -2 18c0 0 -35 -3 -58 -3c-4 0 -9 1 -14 1c39 60 106 99 183 99
c57 0 109 -22 148 -58h-3c-22 0 -36 -19 -36 -39c0 -18 10 -33 21 -51c8 -15 18 -34 18 -61zM260 173l67 -185c0 -1 1 -2 2 -3c-23 -8 -47 -13 -73 -13c-22 0 -42 3 -62 9zM449 297c1 -7 1 -14 1 -22c0 -22 -4 -48 -17 -79l-67 -194c65 38 110 109 110 190
c0 38 -10 74 -27 105z" />
    <glyph glyph-name="distribute-vertically" unicode="&#xf1c5;" 
d="M0 119h512v-37h-512v37zM73 338h366v-146h-366v146zM0 448h512v-37h-512v37z" />
    <glyph glyph-name="magic" unicode="&#xf177;" horiz-adv-x="358" 
d="M26 371l51 51l281 -281l-51 -51zM243 422l13 -25l26 -13l-26 -13l-13 -25l-13 25l-25 13l25 13zM179 448l9 -17l17 -9l-17 -8l-9 -17l-8 17l-17 8l17 9zM307 448l9 -17l17 -9l-17 -8l-9 -17l-8 17l-17 8l17 9zM26 294l8 -17l17 -8l-17 -9l-8 -17l-9 17l-17 9l17 8z" />
    <glyph glyph-name="ticket" unicode="&#xf155;" 
d="M512 229v-74h-512v74s37 0 37 73s-37 73 -37 73v73h512v-73s-37 0 -37 -73s37 -73 37 -73zM73 192h366v219h-366v-219zM110 229v146h292v-146h-292z" />
    <glyph glyph-name="difference" unicode="&#xf1c3;" 
d="M171 277v128c0 23 19 43 42 43h256c23 0 43 -20 43 -43v-256c0 -23 -20 -42 -43 -42h-128v-128c0 -23 -19 -43 -42 -43h-256c-23 0 -43 20 -43 43v256c0 23 20 42 43 42h128zM43 235v-256h256v128h-86c-23 0 -42 23 -42 42v86h-128zM469 149v256h-256v-128h86
c19 0 42 -19 42 -42v-86h128z" />
    <glyph glyph-name="disappointed" unicode="&#xf1b8;" 
d="M256 -27c121 0 219 98 219 219s-98 219 -219 219s-219 -98 -219 -219s98 -219 219 -219zM256 -64c-141 0 -256 115 -256 256s115 256 256 256s256 -115 256 -256s-115 -256 -256 -256zM256 119c73 0 73 -73 73 -73h-36s0 36 -37 36s-37 -36 -37 -36h-36s0 73 73 73z
M363 242c2 -4 3 -8 3 -13c0 -20 -17 -37 -37 -37s-36 17 -36 37c0 13 7 24 17 30l-17 6v37l109 -37v-36l-39 13v0zM202 259c10 -6 17 -17 17 -30c0 -20 -16 -37 -36 -37s-37 17 -37 37c0 5 1 9 3 13l-39 -13v36l109 37v-37l-17 -6v0z" />
    <glyph glyph-name="target" unicode="&#xf1f3;" horiz-adv-x="307" 
d="M179 420c50 -10 90 -50 100 -100h28v-51h-28c-10 -50 -50 -90 -100 -100v-28h-51v28c-50 10 -90 50 -100 100h-28v51h28c10 50 50 90 100 100v28h51v-28zM154 192c57 0 102 45 102 102s-45 103 -102 103s-103 -46 -103 -103s46 -102 103 -102zM154 243
c-28 0 -52 23 -52 51s24 52 52 52s51 -24 51 -52s-23 -51 -51 -51z" />
    <glyph glyph-name="distribute-horizontally" unicode="&#xf1cf;" horiz-adv-x="366" 
d="M329 448h37v-512h-37v512zM110 375h146v-366h-146v366zM0 448h37v-512h-37v512z" />
    <glyph glyph-name="pie-chart" unicode="&#xf146;" horiz-adv-x="307" 
d="M128 397v-128h128c0 -71 -57 -128 -128 -128s-128 57 -128 128s57 128 128 128zM154 448c85 0 153 -69 153 -154h-153v154z" />
    <glyph glyph-name="wine-glass" unicode="&#xf161;" horiz-adv-x="256" 
d="M96 130c-96 14 -96 94 -96 94v224h256v-224s0 -80 -96 -94v-162h80v-32h-224v32h80v162zM32 416v-64h192v64h-192z" />
    <glyph glyph-name="file-movie" unicode="&#xf1b4;" horiz-adv-x="366" 
d="M0 411c0 20 16 37 36 37h238l92 -91v-384c0 -20 -17 -37 -37 -37h-293c-20 0 -36 17 -36 37v438zM37 -27h292v329h-110v109h-183zM73 137c0 0 0 18 18 18h110c18 0 18 -18 18 -18v-73s0 -18 -18 -18h-110c-18 0 -18 18 -18 18v73zM293 155v-109l-74 55zM256 411v-73h73z
" />
    <glyph glyph-name="bar" unicode="&#xf105;" horiz-adv-x="410" 
d="M26 346h358c14 0 26 -12 26 -26s-12 -26 -26 -26h-358c-14 0 -26 12 -26 26s12 26 26 26zM384 90c14 0 26 -12 26 -26s-12 -26 -26 -26h-358c-14 0 -26 12 -26 26s12 26 26 26h358zM384 218c14 0 26 -12 26 -26s-12 -26 -26 -26h-358c-14 0 -26 12 -26 26s12 26 26 26
h358z" />
    <glyph glyph-name="list-bullet" unicode="&#xf17c;" 
d="M171 448h341v-85h-341v85zM171 235h341v-86h-341v86zM171 21h341v-85h-341v85zM0 21h85v-85h-85v85zM0 235h85v-86h-85v86zM0 448h85v-85h-85v85z" />
    <glyph glyph-name="gift" unicode="&#xf1ea;" 
d="M307 -13v103h154v-154h-410v154h154v-103h102zM0 141c0 70 0 103 0 102c0 34 17 51 51 51h114l3 1c-37 5 -66 37 -66 76c0 42 35 77 77 77s77 -35 77 -77c0 42 35 77 77 77s77 -35 77 -77c0 -38 -28 -70 -65 -76l4 -1h112c34 0 51 -17 51 -51v-102h-205v102h-102v-102
h-205zM333 346c14 0 25 11 25 25s-11 26 -25 26s-26 -12 -26 -26v-25h26zM179 346h26v25c0 14 -12 26 -26 26s-25 -12 -25 -26s11 -25 25 -25z" />
    <glyph glyph-name="edit" unicode="&#xf17f;" 
d="M469 448v-43h-426v-426h426v-43h-426c-43 0 -43 43 -43 43v426s0 43 43 43h426zM427 363l85 -86l-171 -170l-85 85zM213 149l86 -85h-86v85z" />
    <glyph glyph-name="cry" unicode="&#xf1b7;" 
d="M256 -27c121 0 219 98 219 219s-98 219 -219 219s-219 -98 -219 -219s98 -219 219 -219zM256 -64c-141 0 -256 115 -256 256s115 256 256 256s256 -115 256 -256s-115 -256 -256 -256zM329 46h-36s0 36 -37 36s-37 -36 -37 -36h-36c0 40 33 73 73 73s73 -33 73 -73z
M366 82c0 0 -37 0 -37 37s37 73 37 73s36 -36 36 -73s-36 -37 -36 -37zM329 192c-20 0 -36 17 -36 37s16 36 36 36s37 -16 37 -36s-17 -37 -37 -37zM183 192c-20 0 -37 17 -37 37s17 36 37 36s36 -16 36 -36s-16 -37 -36 -37z" />
    <glyph glyph-name="upload" unicode="&#xf159;" horiz-adv-x="307" 
d="M77 243l-26 26l103 102l102 -102l-26 -26l-51 51v-153h-51v153zM282 38h-256c-14 0 -26 12 -26 26s12 26 26 26h256c14 0 25 -12 25 -26s-11 -26 -25 -26z" />
    <glyph glyph-name="heart" unicode="&#xf12e;" 
d="M256 21c0 0 -207 106 -249 255s124 255 249 85c125 170 291 64 249 -85s-249 -255 -249 -255z" />
    <glyph glyph-name="reload" unicode="&#xf193;" horiz-adv-x="307" 
d="M226 367c-17 16 -41 30 -72 30c-63 0 -103 -52 -103 -103c0 -47 37 -102 103 -102s89 54 90 54s47 -23 46 -23c-13 -20 -51 -82 -136 -82s-154 68 -154 153s69 154 154 154c43 0 81 -19 108 -45l45 45v-128h-128l47 47v0z" />
    <glyph glyph-name="vector" unicode="&#xf15d;" 
d="M457 302v-220h55v-146h-146v55h-220v-55h-146v146h55v220h-55v146h146v-55h220v55h146v-146h-55zM91 302v-220h55v-55h220v55h55v220h-55v55h-220v-55h-55zM402 46v-73h73v73h-73zM37 46v-73h73v73h-73zM402 411v-73h73v73h-73zM37 411v-73h73v73h-73z" />
    <glyph glyph-name="activity" unicode="&#xf1e2;" horiz-adv-x="256" 
d="M0 346h26v-154h-26v154zM77 294h25v-102h-25v102zM154 397h25v-205h-25v205zM230 448h26v-256h-26v256z" />
    <glyph glyph-name="sitemap" unicode="&#xf150;" horiz-adv-x="410" 
d="M179 215v28c-28 0 -51 23 -51 51v52c0 28 23 51 51 51h51c28 0 52 -23 52 -51v-52c0 -28 -24 -51 -52 -51v-28c41 -8 76 -36 92 -74h36c28 0 52 -23 52 -51v-52c0 -28 -24 -51 -52 -51h-51c-28 0 -51 23 -51 51v52c0 15 6 28 16 37c-13 24 -38 39 -67 39s-54 -15 -67 -39
c10 -9 16 -22 16 -37v-52c0 -28 -24 -51 -52 -51h-51c-28 0 -51 23 -51 51v52c0 28 23 51 51 51h36c16 38 51 66 92 74zM179 346v-52h51v52h-51zM307 90v-52h51v52h-51zM51 90v-52h51v52h-51z" />
    <glyph glyph-name="check-circle" unicode="&#xf19a;" horiz-adv-x="410" 
d="M205 38c85 0 153 69 153 154s-68 154 -153 154s-154 -69 -154 -154s69 -154 154 -154zM205 -13c-113 0 -205 92 -205 205s92 205 205 205s205 -92 205 -205s-92 -205 -205 -205zM128 218l51 -52l103 103l25 -26l-128 -128l-77 77z" />
    <glyph glyph-name="arrow-down" unicode="&#xf100;" 
d="M461 448l51 -51l-256 -256l-256 256l51 51l205 -205z" />
    <glyph glyph-name="google" unicode="&#xf1d8;" horiz-adv-x="502" 
d="M256 143v96h239c4 -16 7 -32 7 -53c0 -146 -98 -250 -246 -250c-141 0 -256 115 -256 256s115 256 256 256c69 0 127 -26 171 -67l-72 -70c-18 17 -51 37 -99 37c-85 0 -154 -70 -154 -156s69 -157 154 -157c98 0 134 68 141 108h-141v0z" />
    <glyph glyph-name="instagram" unicode="&#xf1da;" 
d="M256 448c70 0 79 -1 106 -2s46 -5 62 -11c17 -7 31 -16 45 -30s23 -28 30 -45c6 -16 10 -35 11 -62s2 -36 2 -106s-1 -79 -2 -106s-5 -46 -11 -62c-7 -17 -16 -31 -30 -45s-28 -23 -45 -30c-16 -6 -35 -10 -62 -11s-36 -2 -106 -2s-79 1 -106 2s-46 5 -62 11
c-17 7 -31 16 -45 30s-23 28 -30 45c-6 16 -10 35 -11 62s-2 36 -2 106s1 79 2 106s5 46 11 62c7 17 16 31 30 45s28 23 45 30c16 6 35 10 62 11s36 2 106 2zM256 402c-68 0 -76 -1 -103 -2c-25 -1 -39 -4 -48 -8c-12 -5 -20 -11 -29 -20s-15 -17 -20 -29
c-4 -9 -7 -23 -8 -48c-1 -27 -2 -35 -2 -103s1 -76 2 -103c1 -25 4 -39 8 -48c5 -12 11 -20 20 -29s17 -15 29 -20c9 -4 23 -7 48 -8c27 -1 35 -2 103 -2s76 1 103 2c25 1 39 4 48 8c12 5 20 11 29 20s15 17 20 29c4 9 7 23 8 48c1 27 2 35 2 103s-1 76 -2 103
c-1 25 -4 39 -8 48c-5 12 -11 20 -20 29s-17 15 -29 20c-9 4 -23 7 -48 8c-27 1 -35 2 -103 2zM256 107c47 0 85 38 85 85s-38 85 -85 85s-85 -38 -85 -85s38 -85 85 -85zM256 323c73 0 131 -58 131 -131s-58 -131 -131 -131s-131 58 -131 131s58 131 131 131zM423 329
c0 -17 -13 -31 -30 -31s-31 14 -31 31s14 30 31 30s30 -13 30 -30z" />
    <glyph glyph-name="picture" unicode="&#xf1a9;" 
d="M37 119h438v292h-438v-292zM0 411c0 37 37 37 37 37h438s37 0 37 -37v-292c0 -37 -37 -37 -37 -37h-438s-37 0 -37 37v292zM146 265l73 -73l147 146l73 -73v-110h-366v37zM110 302c-20 0 -37 16 -37 36s17 37 37 37s36 -17 36 -37s-16 -36 -36 -36z" />
    <glyph glyph-name="globe" unicode="&#xf12c;" horiz-adv-x="410" 
d="M0 192c0 113 92 205 205 205s205 -92 205 -205s-92 -205 -205 -205s-205 92 -205 205zM32 232c-6 -13 4 -21 13 -25s36 30 36 30l31 -23s4 -37 13 -44s26 -7 26 -7l33 -15s-7 -15 -5 -23s15 -22 15 -22s-24 -52 -15 -68h23s69 75 67 90s-75 26 -75 26s-24 10 -33 19
c-4 4 0 12 0 12s10 -4 18 0s32 29 32 29s5 -8 13 3s-9 36 -22 36c-15 0 -23 -23 -23 -23l-24 15s25 6 24 17s-15 27 -26 23s-2 -18 -2 -18c-17 -5 -35 0 -35 0s-17 9 -32 7s-11 -11 -17 -10c-7 2 -4 21 -11 21s-18 -37 -24 -50zM200 285c22 0 35 -8 43 0s31 26 15 39
s-44 22 -56 22s-67 3 -67 -18c-9 -15 43 -43 65 -43z" />
    <glyph glyph-name="smile-alt" unicode="&#xf1bd;" 
d="M183 229c-20 0 -37 16 -37 36s17 37 37 37s36 -17 36 -37s-16 -36 -36 -36zM366 155c0 -61 -49 -109 -110 -109s-110 48 -110 109h37s0 -73 73 -73s73 73 73 73h37zM329 229c-20 0 -36 16 -36 36s16 37 36 37s37 -17 37 -37s-17 -36 -37 -36zM256 -27
c121 0 219 98 219 219s-98 219 -219 219s-219 -98 -219 -219s98 -219 219 -219zM256 -64c-141 0 -256 115 -256 256s115 256 256 256s256 -115 256 -256s-115 -256 -256 -256z" />
    <glyph glyph-name="messanger" unicode="&#xf1e1;" horiz-adv-x="507" 
d="M280 130l139 147l-127 -70l-65 68l-139 -147l127 70zM253 448v0c140 0 254 -106 254 -237s-114 -237 -254 -237c-25 0 -49 4 -72 10l-87 -48v91c-57 43 -94 110 -94 184c0 131 113 237 253 237z" />
    <glyph glyph-name="sync" unicode="&#xf194;" horiz-adv-x="307" 
d="M212 210c21 16 44 42 44 84c0 77 -77 103 -77 103v51s128 -26 128 -154c0 -60 -28 -97 -58 -120l33 -33h-103v102zM95 379c-21 -16 -44 -43 -44 -85c0 -77 77 -102 77 -102v-51s-128 25 -128 153c0 60 28 98 58 121l-32 33h102v-102z" />
    <glyph glyph-name="comment-o" unicode="&#xf1d2;" horiz-adv-x="410" 
d="M179 346c-71 0 -128 -57 -128 -128s57 -128 128 -128h51c71 0 128 57 128 128s-57 128 -128 128h-51zM179 397h51c99 0 180 -80 180 -179c0 -100 -77 -178 -231 -231v51c-99 0 -179 81 -179 180s80 179 179 179z" />
    <glyph glyph-name="align-center" unicode="&#xf195;" horiz-adv-x="439" 
d="M73 192h110v73h-183v110h183v73h73v-73h183v-110h-183v-73h110v-110h-110v-146h-73v146h-110v110z" />
    <glyph glyph-name="unlock" unicode="&#xf169;" horiz-adv-x="307" 
d="M205 294c0 28 -23 52 -51 52s-52 -24 -52 -52v-51h154c28 0 51 -23 51 -51v-154c0 -28 -23 -51 -51 -51h-205c-28 0 -51 23 -51 51v154c0 28 23 51 51 51v51c0 57 46 103 103 103s102 -46 102 -103h-51zM51 192v-154h205v154h-205z" />
    <glyph glyph-name="export" unicode="&#xf16e;" horiz-adv-x="307" 
d="M0 294c0 14 12 26 26 26h51v-26h-51v-179h256v179h-52v26h52c14 0 25 -12 25 -26v-179c0 -14 -11 -25 -25 -25h-256c-14 0 -26 11 -26 25v179zM128 166v205l-26 -25l-25 25l77 77l76 -77l-25 -25l-26 25v-205h-51z" />
    <glyph glyph-name="arrow-left" unicode="&#xf101;" horiz-adv-x="279" 
d="M233 448l46 -47l-186 -186l186 -186l-46 -46l-233 232z" />
    <glyph glyph-name="add-cart" unicode="&#xf1e6;" 
d="M128 405v-42v-214h341v214h43v-214c0 -24 -19 -42 -43 -42h-341v-43h320c15 0 21 -7 21 -21s-7 -21 -21 -22h-320c-28 0 -43 15 -43 43v341h-64c-12 0 -21 10 -21 22s9 21 21 21h128c12 0 22 -9 22 -21s-10 -22 -22 -22h-21zM327 348h57v-56h-57v-57h-57v57h-57v56h57v57
h57v-57zM171 -64c-24 0 -43 19 -43 43s19 42 43 42s42 -18 42 -42s-18 -43 -42 -43zM384 -64c-24 0 -43 19 -43 43s19 42 43 42s43 -18 43 -42s-19 -43 -43 -43z" />
    <glyph glyph-name="close" unicode="&#xf114;" horiz-adv-x="307" 
d="M117 192l-109 110c-10 10 -10 26 0 36s26 10 36 0l110 -109l109 109c10 10 27 10 37 0s10 -26 0 -36l-110 -110l110 -110c10 -10 10 -26 0 -36s-27 -10 -37 0l-109 109l-110 -109c-10 -10 -26 -10 -36 0s-10 26 0 36z" />
    <glyph glyph-name="calendar" unicode="&#xf10f;" horiz-adv-x="410" 
d="M333 346h25c28 0 52 -24 52 -52v-256c0 -28 -24 -51 -52 -51h-307c-28 0 -51 23 -51 51v256c0 28 23 52 51 52h26v51h51v-51h154v51h51v-51zM51 243v-205h307v205h-307zM102 141h52v-51h-52v51zM179 141h51v-51h-51v51zM256 141h51v-51h-51v51z" />
    <glyph glyph-name="align-vertically" unicode="&#xf1c1;" horiz-adv-x="439" 
d="M183 448v-219h73v146h110v-146h73v-74h-73v-146h-110v146h-73v-219h-110v219h-73v74h73v219h110z" />
    <glyph glyph-name="sunrise" unicode="&#xf1f1;" 
d="M73 192h366v-37h-366v37zM110 119h292v-37h-292v37zM75 265h-2c0 101 82 183 183 183s183 -82 183 -183h-29h102v-36h-512v36h75zM110 265h292c0 81 -65 146 -146 146s-146 -65 -146 -146z" />
    <glyph glyph-name="app-menu" unicode="&#xf198;" horiz-adv-x="256" 
d="M205 243h51v-51h-51v51zM102 243h52v-51h-52v51zM0 243h51v-51h-51v51zM205 346h51v-52h-51v52zM102 346h52v-52h-52v52zM0 346h51v-52h-51v52zM205 448h51v-51h-51v51zM102 448h52v-51h-52v51zM0 448h51v-51h-51v51z" />
    <glyph glyph-name="palette" unicode="&#xf165;" 
d="M171 64c0 85 -128 85 -128 85c-43 0 -43 43 -43 43c0 141 115 256 256 256s256 -115 256 -256s-115 -256 -256 -256s-171 85 -128 85c19 0 43 24 43 43zM256 320c24 0 43 19 43 43s-19 42 -43 42s-43 -18 -43 -42s19 -43 43 -43zM128 277c24 0 43 19 43 43s-19 43 -43 43
s-43 -19 -43 -43s19 -43 43 -43zM384 277c24 0 43 19 43 43s-19 43 -43 43s-43 -19 -43 -43s19 -43 43 -43zM427 149c24 0 42 19 42 43s-18 43 -42 43s-43 -19 -43 -43s19 -43 43 -43zM384 21c24 0 43 19 43 43s-19 43 -43 43s-43 -19 -43 -43s19 -43 43 -43z" />
    <glyph glyph-name="scale" unicode="&#xf1c9;" 
d="M347 83c-25 -44 -74 -74 -128 -74h-6c-15 -43 -55 -73 -103 -73c-61 0 -110 49 -110 110c0 48 30 88 73 103v6c0 54 30 103 74 128c9 93 87 165 182 165c101 0 183 -82 183 -183c0 -95 -72 -173 -165 -182v0zM110 -27c40 0 73 33 73 73s-33 73 -73 73s-73 -33 -73 -73
s33 -73 73 -73zM110 155c61 0 109 -48 109 -109c61 0 110 48 110 109s-49 110 -110 110s-109 -49 -109 -110zM362 123c65 15 113 73 113 142c0 81 -65 146 -146 146c-69 0 -127 -48 -142 -113c11 2 21 4 32 4c81 0 147 -66 147 -147c0 -11 -2 -21 -4 -32v0z" />
    <glyph glyph-name="clock" unicode="&#xf113;" horiz-adv-x="410" 
d="M205 -13c-113 0 -205 92 -205 205s92 205 205 205s205 -92 205 -205s-92 -205 -205 -205zM358 192c0 85 -68 154 -153 154s-154 -69 -154 -154s69 -154 154 -154s153 69 153 154zM282 192c14 0 25 -12 25 -26s-11 -25 -25 -25h-52c-28 0 -51 28 -51 51v77
c0 14 12 25 26 25s25 -11 25 -25v-77h52z" />
    <glyph glyph-name="comments" unicode="&#xf11b;" horiz-adv-x="0" 
 />
    <glyph glyph-name="moon" unicode="&#xf1ef;" horiz-adv-x="488" 
d="M0 192c0 137 108 250 244 256c-59 -39 -98 -107 -98 -183c0 -121 99 -219 220 -219c45 0 87 14 122 37c-41 -87 -130 -147 -232 -147c-141 0 -256 115 -256 256z" />
    <glyph glyph-name="file-powerpoint" unicode="&#xf1a3;" horiz-adv-x="366" 
d="M37 -27h292v329h-110v109h-183zM0 411c0 20 16 37 36 37h238l92 -91v-384c0 -20 -17 -37 -37 -37h-293c-20 0 -36 17 -36 37v438zM256 411v-73h73zM146 155v-36h55s18 0 18 18s-18 18 -18 18h-55zM207 192c0 0 49 0 49 -55s-49 -55 -49 -55h-61v-36h-36v146h97z" />
    <glyph glyph-name="intersect" unicode="&#xf1c7;" 
d="M171 277v128c0 23 19 43 42 43h256c23 0 43 -20 43 -43v-256c0 -23 -20 -42 -43 -42h-128v-128c0 -23 -19 -43 -42 -43h-256c-23 0 -43 20 -43 43v256c0 23 20 42 43 42h128zM171 277v-128c0 -19 19 -42 42 -42h128v128c0 23 -23 42 -42 42h-128z" />
    <glyph glyph-name="timeline" unicode="&#xf1ad;" horiz-adv-x="358" 
d="M128 166h179v-25h-179v25zM26 115h307v205h-307v-205zM128 218h179v-26h-179v26zM128 294h179v-51h-179v51zM51 294h51v-51h-51v51zM0 320c0 14 12 26 26 26h307c14 0 25 -12 25 -26v-205c0 -14 -11 -25 -25 -25h-307c-14 0 -26 11 -26 25v205z" />
    <glyph glyph-name="print" unicode="&#xf171;" horiz-adv-x="358" 
d="M0 243c0 0 0 26 26 26h25v51h26v102s0 26 25 26h154c26 0 26 -26 26 -26v-102h25v-51h26c26 0 25 -26 25 -26v-128h-76s0 -25 -26 -25h-154c-25 0 -25 25 -25 25h-77v128zM102 192v-77h154v77h-154zM205 243v-25h51v25h-51zM102 422v-153h154v153h-154z" />
    <glyph glyph-name="import" unicode="&#xf16f;" horiz-adv-x="307" 
d="M128 448h51v-230l26 25l25 -25l-76 -77l-77 77l25 25l26 -25v230zM0 294c0 14 12 26 26 26h51v-26h-51v-179h256v179h-52v26h52c14 0 25 -12 25 -26v-179c0 -14 -11 -25 -25 -25h-256c-14 0 -26 11 -26 25v179z" />
    <glyph glyph-name="text-size" unicode="&#xf17b;" 
d="M301 166v0l76 191h44l91 -229h-33c-4 0 -7 1 -9 3s-5 4 -6 7l-17 46h-96l-17 -46c-1 -2 -2 -5 -5 -7s-5 -3 -9 -3h-4v0h-46c-5 0 -10 1 -13 4s-7 5 -8 9l-24 66h-134l-24 -66c-1 -3 -3 -6 -7 -9s-8 -4 -13 -4h-47l127 320h62zM362 214h74s-36 98 -37 103
c-1 -5 -37 -103 -37 -103zM106 249h104s-50 136 -52 144c-2 -8 -52 -144 -52 -144z" />
    <glyph glyph-name="check-circle-o" unicode="&#xf19b;" horiz-adv-x="358" 
d="M179 90c-99 0 -179 80 -179 179s80 179 179 179s179 -80 179 -179s-80 -179 -179 -179zM179 115c85 0 154 69 154 154s-69 153 -154 153s-153 -68 -153 -153s68 -154 153 -154zM102 294l52 -51l102 103l26 -26l-128 -128l-77 77z" />
    <glyph glyph-name="align-top" unicode="&#xf1c0;" horiz-adv-x="439" 
d="M256 302h110v-366h-110v366zM73 302h110v-220h-110v220zM0 448h439v-73h-439v73z" />
    <glyph glyph-name="text-align-center" unicode="&#xf1cb;" 
d="M85 64h342v-43h-342v43zM0 192h512v-43h-512v43zM85 320h342v-43h-342v43zM0 448h512v-43h-512v43z" />
    <glyph glyph-name="hash" unicode="&#xf12d;" 
d="M279 32h-95l-10 -56c-5 -27 -29 -44 -55 -39s-43 29 -38 56l6 39h-39c-26 0 -48 21 -48 48s21 48 48 48h56l19 112h-43c-26 0 -48 21 -48 48s21 48 48 48h60l12 72c5 27 29 44 55 39s44 -29 39 -56l-10 -55h96l12 72c5 27 29 44 55 39s44 -29 39 -56l-10 -55h36
c26 0 48 -21 48 -48s-21 -48 -48 -48h-52l-20 -112h40c26 0 48 -21 48 -48s-21 -48 -48 -48h-56l-10 -56c-5 -27 -29 -44 -55 -39s-43 29 -38 56l6 39v0zM296 128v0l19 112h-95l-20 -112h96z" />
    <glyph glyph-name="bold" unicode="&#xf179;" horiz-adv-x="366" 
d="M37 -64c0 0 -37 0 -37 37v438c0 37 35 37 35 37h135c32 0 60 -4 83 -10s41 -15 56 -27s25 -26 32 -43s11 -35 11 -56c0 -12 -2 -24 -5 -35s-9 -21 -16 -31s-17 -18 -28 -26s-24 -15 -39 -20c68 -16 102 -54 102 -114c0 -22 -4 -42 -12 -60s-20 -34 -35 -47
s-34 -24 -56 -32s-48 -11 -77 -11h-149zM92 160v-150h93c17 0 32 3 43 7s20 10 27 17s12 16 15 25s5 19 5 30s-2 21 -5 30s-9 16 -16 22s-17 12 -28 15s-25 4 -41 4h-93zM92 226h73c31 0 55 6 71 18s24 30 24 56c0 27 -7 46 -22 57s-37 17 -68 17h-78v-148z" />
    <glyph glyph-name="bar-chart" unicode="&#xf106;" horiz-adv-x="410" 
d="M51 218v-128c0 -14 12 -26 26 -26h307c14 0 26 -12 26 -26s-12 -25 -26 -25h-358c-14 0 -26 11 -26 25v180c0 14 12 25 26 25s25 -11 25 -25zM128 320c14 0 26 -13 26 -29v-147c0 -16 -12 -29 -26 -29s-26 13 -26 29v147c0 16 12 29 26 29zM230 371c14 0 26 -12 26 -28
v-199c0 -16 -12 -29 -26 -29s-25 13 -25 29v199c0 16 11 28 25 28zM333 294c14 0 25 -13 25 -29v-120c0 -16 -11 -30 -25 -30s-26 14 -26 30v120c0 16 12 29 26 29z" />
    <glyph glyph-name="align-bottom" unicode="&#xf1bf;" horiz-adv-x="439" 
d="M73 82v366h110v-366h-110zM256 82v220h110v-220h-110zM0 -64v73h439v-73h-439z" />
    <glyph glyph-name="cart" unicode="&#xf1e8;" 
d="M128 405v-42h341c24 0 43 -19 43 -43v-171c0 -24 -19 -42 -43 -42h-341v-43h320c15 0 21 -7 21 -21s-7 -21 -21 -22h-320c-28 0 -43 15 -43 43v341h-64c-12 0 -21 10 -21 22s9 21 21 21h128c12 0 22 -9 22 -21s-10 -22 -22 -22h-21zM128 320v-171h341v171h-341zM171 -64
c-24 0 -43 19 -43 43s19 42 43 42s42 -18 42 -42s-18 -43 -42 -43zM384 -64c-24 0 -43 19 -43 43s19 42 43 42s43 -18 43 -42s-19 -43 -43 -43z" />
    <glyph glyph-name="user-minus" unicode="&#xf16c;" horiz-adv-x="358" 
d="M256 205h102v-26h-102v26zM154 141c77 0 153 -46 153 -77v-26h-307v26c0 31 77 77 154 77zM154 192c-42 0 -77 35 -77 77s35 77 77 77s76 -35 76 -77s-34 -77 -76 -77z" />
    <glyph glyph-name="italic" unicode="&#xf17a;" horiz-adv-x="293" 
d="M146 375h-55s-18 0 -18 18v37c0 18 18 18 18 18h183s19 0 19 -18v-37c0 -18 -19 -18 -19 -18h-55l-73 -366h55s18 0 18 -18v-37c0 -18 -18 -18 -18 -18h-183s-18 0 -18 18v37c0 18 18 18 18 18h55z" />
    <glyph glyph-name="logout" unicode="&#xf13b;" horiz-adv-x="461" 
d="M230 218h154l-51 51l25 25l103 -102l-103 -102l-25 25l51 51h-154v52zM0 371h307h51v-358h-358v102h51v-51h256v256h-256v-51h-51v102z" />
    <glyph glyph-name="bolt" unicode="&#xf1e3;" horiz-adv-x="256" 
d="M213 448l-85 -171h128l-171 -341l43 256h-128l85 256h128z" />
    <glyph glyph-name="key" unicode="&#xf131;" horiz-adv-x="410" 
d="M202 218h182c14 0 26 -12 26 -26v-51c0 -14 -12 -26 -26 -26s-26 12 -26 26v25h-25v-25c0 -14 -12 -26 -26 -26s-25 12 -25 26v25h-80c-11 -44 -52 -76 -100 -76c-57 0 -102 45 -102 102s45 102 102 102c48 0 89 -32 100 -76zM102 141c28 0 52 23 52 51s-24 51 -52 51
s-51 -23 -51 -51s23 -51 51 -51z" />
    <glyph glyph-name="eject" unicode="&#xf182;" 
d="M256 448l256 -307h-512zM0 38h512v-102h-512v102z" />
    <glyph glyph-name="subtract" unicode="&#xf1ca;" 
d="M171 277v128c0 23 19 43 42 43h256c23 0 43 -20 43 -43v-256c0 -23 -20 -42 -43 -42h-128v-128c0 -23 -19 -43 -42 -43h-256c-23 0 -43 20 -43 43v256c0 23 20 42 43 42h128zM43 235v-256h256v256h-256z" />
    <glyph glyph-name="plug" unicode="&#xf18f;" horiz-adv-x="293" 
d="M110 302h73v110c0 20 16 36 36 36s37 -16 37 -36v-110h37v-128c0 -64 -48 -118 -110 -127v-111h-73v111c-62 9 -110 63 -110 127v128h37v110c0 20 16 36 36 36s37 -16 37 -36v-110z" />
    <glyph glyph-name="search" unicode="&#xf14e;" horiz-adv-x="410" 
d="M160 128c60 0 109 49 109 109s-49 109 -109 109s-109 -49 -109 -109s49 -109 109 -109zM293 142l109 -109c10 -10 10 -28 0 -38s-28 -10 -38 0l-109 109c-26 -19 -59 -30 -94 -30c-89 0 -161 73 -161 162s72 161 161 161s161 -72 161 -161c0 -35 -10 -68 -29 -94z" />
    <glyph glyph-name="commenting" unicode="&#xf11a;" horiz-adv-x="410" 
d="M179 346c-71 0 -128 -57 -128 -128s57 -128 128 -128h51c71 0 128 57 128 128s-57 128 -128 128h-51zM179 397h51c99 0 180 -80 180 -179c0 -100 -77 -178 -231 -231v51c-99 0 -179 81 -179 180s80 179 179 179zM128 192c-14 0 -26 12 -26 26s12 25 26 25s26 -11 26 -25
s-12 -26 -26 -26zM205 192c-14 0 -26 12 -26 26s12 25 26 25s25 -11 25 -25s-11 -26 -25 -26zM282 192c-14 0 -26 12 -26 26s12 25 26 25s25 -11 25 -25s-11 -26 -25 -26z" />
    <glyph glyph-name="file-image" unicode="&#xf1b3;" horiz-adv-x="366" 
d="M37 -27h292v329h-110v109h-183zM0 411c0 20 16 37 36 37h238l92 -91v-384c0 -20 -17 -37 -37 -37h-293c-20 0 -36 17 -36 37v438zM256 411v-73h73zM73 82l73 73l73 -73l37 37l37 -37v-73h-220v73zM256 155c-20 0 -37 17 -37 37s17 37 37 37s37 -17 37 -37
s-17 -37 -37 -37z" />
    <glyph glyph-name="credit-card" unicode="&#xf1e9;" 
d="M43 405v-42h426v42h-426zM43 320v-171h426v171h-426zM213 235h86v-43h-86v43zM85 235h86v-43h-86v43zM43 448h426c24 0 43 -19 43 -43v-256c0 -24 -19 -42 -43 -42h-426c-24 0 -43 18 -43 42v256c0 24 19 43 43 43z" />
    <glyph glyph-name="filter" unicode="&#xf173;" horiz-adv-x="256" 
d="M154 90l-52 51v153l-102 103v51h256v-51l-102 -103v-204z" />
    <glyph glyph-name="union" unicode="&#xf1ce;" 
d="M171 277v128c0 23 19 43 42 43h256c23 0 43 -20 43 -43v-256c0 -23 -20 -42 -43 -42h-128v-128c0 -23 -19 -43 -42 -43h-256c-23 0 -43 20 -43 43v256c0 23 20 42 43 42h128zM299 149h170v256h-256v-170h-170v-256h256v170z" />
    <glyph glyph-name="plus" unicode="&#xf148;" horiz-adv-x="307" 
d="M179 218h103c14 0 25 -12 25 -26s-11 -26 -25 -26h-103v-102c0 -14 -11 -26 -25 -26s-26 12 -26 26v102h-102c-14 0 -26 12 -26 26s12 26 26 26h102v102c0 14 12 26 26 26s25 -12 25 -26v-102z" />
    <glyph glyph-name="fast-backward" unicode="&#xf184;" 
d="M512 448v-293l-219 147zM293 448v-293l-220 147zM0 448h73v-293h-73v293z" />
    <glyph glyph-name="folder-open" unicode="&#xf176;" horiz-adv-x="358" 
d="M102 64h26v154h230v-154c0 -28 -25 -26 -25 -26h-307s-26 0 -26 26v205c0 26 26 25 26 25h25v26c0 26 26 26 26 26h77s25 0 25 -26v-26h128s26 1 26 -25v-26h-231v-179v0z" />
    <glyph glyph-name="picture-square" unicode="&#xf1e4;" 
d="M37 -27c0 1 438 0 438 0v438c0 -1 -438 0 -438 0v-438zM0 411c0 37 37 37 37 37h438s37 0 37 -37v-438c0 -37 -37 -37 -37 -37h-438s-37 0 -37 37v438zM146 155l73 -73l147 147l73 -74v-146h-366v73zM165 229c-30 0 -55 24 -55 54s25 55 55 55s54 -25 54 -55
s-24 -54 -54 -54z" />
    <glyph glyph-name="open-mouth" unicode="&#xf1ba;" 
d="M256 -27c121 0 219 98 219 219s-98 219 -219 219s-219 -98 -219 -219s98 -219 219 -219zM256 -64c-141 0 -256 115 -256 256s115 256 256 256s256 -115 256 -256s-115 -256 -256 -256zM256 9c-40 0 -73 33 -73 73s33 73 73 73s73 -33 73 -73s-33 -73 -73 -73zM329 229
c-20 0 -36 16 -36 36s16 37 36 37s37 -17 37 -37s-17 -36 -37 -36zM183 229c-20 0 -37 16 -37 36s17 37 37 37s36 -17 36 -37s-16 -36 -36 -36z" />
    <glyph glyph-name="arrow-right" unicode="&#xf102;" horiz-adv-x="279" 
d="M47 448l232 -233l-232 -232l-47 46l186 186l-186 186z" />
    <glyph glyph-name="login" unicode="&#xf13a;" horiz-adv-x="410" 
d="M0 218h205l-77 76h51l103 -102l-103 -102h-51l77 76h-205v52zM230 90h128v204h-128v52h128c28 0 52 -24 52 -52v-204c0 -28 -24 -52 -52 -52h-128v52z" />
    <glyph glyph-name="list-task" unicode="&#xf17e;" 
d="M219 9h293v-73h-293v73zM219 192h293v-73h-293v73zM366 375h146v-73h-146v73zM0 302l36 36l74 -73l182 183l37 -37l-219 -219z" />
    <glyph glyph-name="warning" unicode="&#xf15f;" horiz-adv-x="410" 
d="M205 38c85 0 153 69 153 154s-68 154 -153 154s-154 -69 -154 -154s69 -154 154 -154zM205 -13c-113 0 -205 92 -205 205s92 205 205 205s205 -92 205 -205s-92 -205 -205 -205zM179 294h51v-128h-51v128zM205 90c-14 0 -26 11 -26 25s12 26 26 26s25 -12 25 -26
s-11 -25 -25 -25z" />
    <glyph glyph-name="birthday-cake" unicode="&#xf163;" 
d="M512 32v-32c0 -64 -64 -64 -64 -64h-384s-64 0 -64 64v32c33 0 32 32 64 32s32 -32 64 -32s32 32 64 32s32 -32 64 -32s32 32 64 32s32 -32 64 -32s32 32 64 32s31 -32 64 -32zM224 224v80c0 16 16 16 16 16h32s16 0 16 -16v-80h64v80c0 16 16 16 16 16h32s16 0 16 -16
v-80c96 0 96 -96 96 -96v-32c-32 0 -32 32 -64 32s-32 -32 -64 -32s-32 32 -64 32s-32 -32 -64 -32s-32 32 -64 32s-32 -32 -64 -32s-32 32 -64 32s-32 -32 -64 -32v32s0 96 96 96v80c0 16 16 16 16 16h32s16 0 16 -16v-80h64zM384 352c-18 0 -32 21 -32 48
c16 16 32 16 32 48c18 0 32 -21 32 -48s-14 -48 -32 -48zM256 352c-18 0 -32 21 -32 48c16 16 32 16 32 48c18 0 32 -21 32 -48s-14 -48 -32 -48zM128 352c-18 0 -32 21 -32 48c16 16 32 16 32 48c18 0 32 -21 32 -48s-14 -48 -32 -48z" />
    <glyph glyph-name="user" unicode="&#xf15a;" horiz-adv-x="410" 
d="M102 294c0 57 46 103 103 103s102 -46 102 -103s-45 -102 -102 -102s-103 45 -103 102zM154 294c0 -28 23 -51 51 -51s51 23 51 51s-23 52 -51 52s-51 -24 -51 -52zM410 -13h-410c0 99 92 179 205 179s205 -80 205 -179zM205 115c-64 0 -117 -32 -141 -77h281
c-24 45 -76 77 -140 77z" />
    <glyph glyph-name="comment" unicode="&#xf119;" horiz-adv-x="410" 
d="M179 397h51c99 0 180 -80 180 -179c0 -100 -77 -178 -231 -231v51c-99 0 -179 81 -179 180s80 179 179 179z" />
    <glyph glyph-name="google-plus" unicode="&#xf1d9;" 
d="M163 308h154c1 -8 2 -16 2 -27c0 -93 -62 -159 -156 -159c-90 0 -163 73 -163 163s73 163 163 163c44 0 81 -16 109 -43l-44 -42c-12 12 -33 25 -65 25c-56 0 -101 -46 -101 -103s45 -103 101 -103c64 0 88 47 92 71h-92v55zM512 308v-46h-47v-47h-46v47h-47v46h47v47h46
v-47h47z" />
    <glyph glyph-name="gamepad" unicode="&#xf191;" 
d="M110 448h292c61 0 110 -49 110 -110s-49 -109 -110 -109c-32 0 -61 14 -81 36h-130c-20 -22 -49 -36 -81 -36c-61 0 -110 48 -110 109s49 110 110 110zM421 302c10 0 18 8 18 18s-8 18 -18 18s-19 -8 -19 -18s9 -18 19 -18zM457 338c10 0 18 9 18 19s-8 18 -18 18
s-18 -8 -18 -18s8 -19 18 -19zM366 338c20 0 36 17 36 37s-16 36 -36 36s-37 -16 -37 -36s17 -37 37 -37zM146 375v36h-36v-36h-37v-37h37v-36h36v36h37v37h-37z" />
    <glyph glyph-name="bell" unicode="&#xf108;" horiz-adv-x="358" 
d="M307 115h26c14 0 25 -11 25 -25s-11 -26 -25 -26h-307c-14 0 -26 12 -26 26s12 25 26 25h25v103c0 62 45 113 103 125v28c0 14 11 26 25 26s26 -12 26 -26v-28c58 -12 102 -63 102 -125v-103zM128 38h102v0c0 -28 -23 -51 -51 -51v0c-28 0 -51 23 -51 51zM102 115h154
v103c0 42 -35 76 -77 76s-77 -34 -77 -76v-103z" />
    <glyph glyph-name="pot" unicode="&#xf1aa;" 
d="M36 265h439s37 0 37 -36s-37 -37 -37 -37h-36v-146s0 -37 -37 -37h-292c-36 0 -37 37 -37 37v146h-37s-36 0 -36 37s36 36 36 36zM146 375h37s0 73 73 73s73 -73 73 -73h37c73 0 73 -73 73 -73h-366s0 73 73 73zM256 411c-37 0 -37 -36 -37 -36h74s0 36 -37 36z" />
    <glyph glyph-name="quote-left" unicode="&#xf14b;" 
d="M107 149c59 0 106 -47 106 -106s-47 -107 -106 -107s-107 48 -107 107c0 149 171 405 171 405l42 -43s-81 -137 -114 -256h8zM512 405c0 0 -81 -137 -114 -256h7c59 0 107 -47 107 -106s-48 -107 -107 -107s-106 48 -106 107c0 149 170 405 170 405z" />
    <glyph glyph-name="headphone" unicode="&#xf18e;" 
d="M256 448c179 0 212 -219 218 -300c38 -19 38 -66 38 -66v-73s0 -73 -73 -73c0 0 -37 0 -37 36v147c0 31 28 35 35 36c-7 78 -38 256 -181 256s-174 -178 -181 -256c7 -1 35 -5 35 -36v-147c0 -36 -37 -36 -37 -36c-73 0 -73 73 -73 73v73s0 47 38 66c6 81 39 300 218 300
z" />
    <glyph glyph-name="drop-left" unicode="&#xf122;" horiz-adv-x="233" 
d="M233 448v-465l-233 232z" />
    <glyph glyph-name="insert-link" unicode="&#xf1a6;" 
d="M219 411h-109c-40 0 -73 -33 -73 -73s33 -73 73 -73h109v-36h-109c-61 0 -110 48 -110 109s49 110 110 110h109v-37zM293 265h109c40 0 73 33 73 73s-33 73 -73 73h-109v37h109c61 0 110 -49 110 -110s-49 -109 -110 -109h-109v36zM183 375h146c37 0 37 -37 37 -37
s0 -36 -37 -36h-146c-37 0 -37 36 -37 36s0 37 37 37z" />
    <glyph glyph-name="brush" unicode="&#xf10c;" 
d="M85 -64h-85v85c0 47 38 86 85 86s86 -39 86 -86s-39 -85 -86 -85zM470 448l42 -43l-299 -341l-85 85z" />
    <glyph glyph-name="table" unicode="&#xf1ac;" 
d="M0 412c0 20 17 36 37 36h438c20 0 37 -16 37 -36v-293c0 -20 -17 -37 -37 -37h-438c-20 0 -37 17 -37 37v293zM37 119h438v293l-438 -1v-292zM73 375h110v-73h-110v73zM73 265h110v-36h-110v36zM73 192h110v-37h-110v37zM219 375h220v-73h-220v73zM219 265h220v-36h-220
v36zM219 192h220v-37h-220v37z" />
    <glyph glyph-name="wordpress-alt" unicode="&#xf1df;" 
d="M458 302v0c1 -7 2 -15 2 -23c0 -23 -5 -50 -18 -83l-70 -203c68 40 114 114 114 199c0 40 -10 77 -28 110zM288 300l83 -247l23 76c10 32 17 55 17 75c0 28 -10 48 -19 63c-12 19 -22 35 -22 54c0 21 15 41 38 41h3c-41 38 -95 60 -155 60c-80 0 -151 -42 -192 -104h15
c24 0 61 3 61 3c12 1 13 -18 1 -19c0 0 -12 -1 -26 -2l84 -249l50 151l-36 98l-24 2c-12 1 -10 20 2 19c0 0 37 -3 60 -3c24 0 62 3 62 3c12 1 13 -18 1 -19c0 0 -12 -1 -26 -2zM256 -38v0c27 0 52 5 76 13c-1 1 -1 2 -1 3l-71 194l-69 -201c21 -6 42 -9 65 -9zM26 192v0
c0 -91 53 -170 130 -207l-110 301c-13 -29 -20 -61 -20 -94zM256 448v0c141 0 256 -115 256 -256s-115 -256 -256 -256s-256 115 -256 256s115 256 256 256z" />
    <glyph glyph-name="search-minus" unicode="&#xf16a;" horiz-adv-x="410" 
d="M161 128c59 0 108 49 108 108s-49 107 -108 107s-107 -48 -107 -107s48 -108 107 -108zM293 142l109 -109c10 -10 10 -28 0 -38s-28 -10 -38 0l-109 109c-26 -19 -59 -30 -94 -30c-89 0 -161 73 -161 162s72 161 161 161s161 -72 161 -161c0 -35 -10 -68 -29 -94z" />
    <glyph glyph-name="cloud" unicode="&#xf115;" horiz-adv-x="410" 
d="M230 294c-37 0 -68 -26 -75 -61l-8 -42l-43 1h-2c-28 0 -51 -23 -51 -51s23 -51 51 -51h231c14 0 25 11 25 25c0 11 -7 22 -18 25l-46 14l11 46c1 6 2 12 2 18c0 42 -35 76 -77 76zM230 346c71 0 128 -57 128 -128c0 -10 -1 -20 -3 -29c32 -10 55 -39 55 -74
c0 -42 -35 -77 -77 -77h-231c-57 0 -102 46 -102 103s45 102 102 102h3c12 58 63 103 125 103z" />
    <glyph glyph-name="git" unicode="&#xf1d5;" 
d="M502 215l-223 223c-13 13 -34 13 -47 0l-46 -46l59 -59c14 5 29 2 40 -9s14 -27 9 -41l57 -57c14 5 30 2 41 -9c15 -15 15 -40 0 -55s-41 -15 -56 0c-12 12 -15 28 -9 42l-52 53v-139c4 -2 7 -5 10 -8c15 -15 15 -40 0 -55s-41 -15 -56 0s-15 40 0 55c4 4 8 7 13 9v141
c-5 2 -9 4 -13 8c-12 12 -14 29 -8 43l-58 58l-153 -153c-13 -13 -13 -34 0 -47l223 -223c13 -13 34 -13 47 0l222 222c13 13 13 34 0 47z" />
    <glyph glyph-name="eye" unicode="&#xf127;" horiz-adv-x="358" 
d="M179 38c-99 0 -179 103 -179 154s80 154 179 154s179 -103 179 -154s-80 -154 -179 -154zM179 90c57 0 103 45 103 102s-46 102 -103 102s-102 -45 -102 -102s45 -102 102 -102zM179 141c-28 0 -51 23 -51 51s23 51 51 51s51 -23 51 -51s-23 -51 -51 -51z" />
    <glyph glyph-name="usb" unicode="&#xf190;" horiz-adv-x="293" 
d="M0 265c0 37 37 37 37 37v109c0 37 36 37 36 37h146s37 0 37 -37v-109s37 0 37 -37v-292c0 -37 -37 -37 -37 -37h-219s-37 0 -37 37v292zM183 229v-183h36v183h-36zM73 411v-109h146v109h-146z" />
    <glyph glyph-name="bookmark" unicode="&#xf170;" horiz-adv-x="307" 
d="M256 346h-205v-288l103 34l102 -34v288zM51 397h205c28 0 51 -23 51 -51v-359l-153 51l-154 -51v359c0 28 23 51 51 51zM154 294h51v-51h-51v51z" />
    <glyph glyph-name="angry" unicode="&#xf1b6;" 
d="M256 -27c121 0 219 98 219 219s-98 219 -219 219s-219 -98 -219 -219s98 -219 219 -219zM256 -64c-141 0 -256 115 -256 256s115 256 256 256s256 -115 256 -256s-115 -256 -256 -256zM256 119c73 0 73 -73 73 -73h-36s0 36 -37 36s-37 -36 -37 -36h-36s0 73 73 73z
M358 251c5 -6 8 -14 8 -22c0 -20 -17 -37 -37 -37s-36 17 -36 37v36l109 37v-37l-44 -14v0zM154 251v0l-44 14v37l109 -37v-36c0 -20 -16 -37 -36 -37s-37 17 -37 37c0 8 3 16 8 22z" />
    <glyph glyph-name="tired" unicode="&#xf1be;" 
d="M256 -27c121 0 219 98 219 219s-98 219 -219 219s-219 -98 -219 -219s98 -219 219 -219zM256 -64c-141 0 -256 115 -256 256s115 256 256 256s256 -115 256 -256s-115 -256 -256 -256zM256 9c-40 0 -73 33 -73 73s33 73 73 73s73 -33 73 -73s-33 -73 -73 -73zM110 283
l18 19l37 -37l36 37l18 -19l-36 -36l36 -37l-18 -18l-36 37l-37 -37l-18 18l36 37zM293 283l18 19l36 -37l37 37l18 -19l-36 -36l36 -37l-18 -18l-37 37l-36 -37l-18 18l36 37z" />
    <glyph glyph-name="question" unicode="&#xf14a;" horiz-adv-x="358" 
d="M179 13c-99 0 -179 80 -179 179s80 179 179 179s179 -80 179 -179s-80 -179 -179 -179zM154 77c0 0 -1 -13 12 -13h26c13 0 13 13 13 13v25s0 13 -13 13h-26c-13 0 -12 -13 -12 -13v-25zM154 152c0 -11 12 -11 12 -11h26s14 0 14 11c0 34 35 58 46 78c12 22 4 90 -73 90
c-51 0 -77 -26 -77 -64c0 0 0 -13 13 -13h26c13 0 13 13 13 13s-1 26 25 26c27 0 26 -26 26 -39c0 -19 -13 -32 -26 -38c0 0 -25 -11 -25 -53z" />
    <glyph glyph-name="align-right" unicode="&#xf197;" horiz-adv-x="473" 
d="M315 369v-118h-315v118h315zM315 172v-118h-236v118h236zM473 448v-551h-79v551h79z" />
    <glyph glyph-name="quote-right" unicode="&#xf14c;" 
d="M114 235h-7c-59 0 -107 47 -107 106s48 107 107 107s106 -48 106 -107c0 -149 -170 -405 -170 -405l-43 43s81 137 114 256zM413 235h-8c-59 0 -106 47 -106 106s47 107 106 107s107 -48 107 -107c0 -149 -171 -405 -171 -405l-42 43s81 137 114 256z" />
    <glyph glyph-name="list-order" unicode="&#xf17d;" horiz-adv-x="439" 
d="M146 46h293v-73h-293v73zM146 229h293v-74h-293v74zM146 411h293v-73h-293v73zM55 82c7 0 12 -1 18 -3s10 -4 14 -7s7 -8 9 -12s4 -10 4 -15s-1 -9 -2 -12s-3 -6 -5 -9s-4 -4 -7 -6s-6 -4 -10 -5c9 -3 16 -6 20 -12s7 -13 7 -21c0 -7 -2 -14 -5 -19s-6 -10 -11 -14
s-10 -6 -16 -8s-12 -3 -19 -3s-14 0 -20 2s-10 5 -14 8s-8 7 -11 12s-5 10 -7 16l11 4c2 1 4 2 6 2s4 -1 5 -2l3 -3c1 -2 3 -5 4 -7s3 -4 5 -6s5 -3 8 -4s5 -1 9 -1s9 1 12 2s6 3 8 5s4 4 5 7s1 5 1 8s0 7 -1 10s-3 5 -5 7s-6 3 -10 4s-10 2 -18 2v18c6 0 12 0 16 1s7 3 9 5
s4 3 5 6s2 6 2 9c0 7 -2 13 -6 16s-9 5 -16 5c-6 0 -11 -2 -15 -5s-6 -7 -8 -12c-1 -3 -2 -4 -3 -5s-4 -2 -6 -2c-1 0 -2 1 -3 1l-14 2c1 7 3 13 6 18s7 10 11 13s9 6 15 8s12 2 19 2zM71 262c6 -2 11 -4 15 -8s7 -8 9 -13s4 -11 4 -17c0 -5 -1 -10 -3 -15s-3 -9 -6 -13
s-6 -8 -10 -12s-7 -8 -11 -12l-33 -30h18h38c3 0 5 0 7 -2s2 -4 2 -6v-15h-101v8c0 2 0 3 1 5s1 3 3 5l45 44c4 4 7 8 10 11s6 7 8 10s3 7 4 10s2 7 2 11c0 3 -1 6 -2 9s-2 5 -4 7s-4 3 -7 4s-6 1 -9 1c-6 0 -11 -1 -15 -4s-6 -7 -8 -12c-1 -3 -2 -5 -3 -6s-4 -1 -6 -1h-3
l-13 2c1 7 2 13 5 18s7 10 11 14s10 5 16 7s11 3 18 3s12 -1 18 -3zM11 320h33v86v10l-23 -18c-1 -1 -2 -1 -3 -1s-2 -1 -3 -1s-3 0 -4 1l-2 2l-9 11l49 38h22v-128h29v-18h-89v18z" />
    <glyph glyph-name="beer" unicode="&#xf107;" horiz-adv-x="402" 
d="M329 46v-37h37v-73h-366v73h37v256h-37v37h14c-9 13 -14 28 -14 45c0 45 37 83 82 83c5 0 10 -1 15 -2c13 12 30 20 49 20c13 0 26 -4 37 -10c11 6 23 10 36 10c19 0 37 -8 50 -20c5 1 9 2 14 2c45 0 83 -38 83 -83c0 -17 -5 -32 -14 -45h14v-37h-37v-36h37
c20 0 36 -17 36 -37v-110c0 -20 -16 -36 -36 -36h-37zM238 229v-183h36v183h-36zM165 229v-183h36v183h-36zM91 229v-183h37v183h-37zM262 392c-10 12 -26 19 -43 19c-14 0 -26 -5 -36 -14c-10 9 -23 14 -37 14c-17 0 -32 -7 -42 -19c-4 1 -9 1 -13 1c-30 0 -54 -25 -54 -55
s24 -55 54 -55c17 0 33 8 43 20c4 -1 8 -1 12 -1c14 0 27 5 37 14c10 -9 22 -14 36 -14c4 0 9 0 13 1c10 -12 25 -20 42 -20c30 0 55 25 55 55s-25 55 -55 55c-4 0 -8 0 -12 -1z" />
    <glyph glyph-name="camera" unicode="&#xf110;" 
d="M469 405c43 0 43 -40 43 -42v-342s0 -42 -43 -42h-426c-43 0 -43 42 -43 42v342s0 42 43 42h85l43 43h170l43 -43h85zM384 363v-43h85v43h-85zM256 64c71 0 128 57 128 128s-57 128 -128 128s-128 -57 -128 -128s57 -128 128 -128zM256 107c-47 0 -85 38 -85 85
s38 85 85 85s85 -38 85 -85s-38 -85 -85 -85z" />
    <glyph glyph-name="music" unicode="&#xf175;" horiz-adv-x="307" 
d="M77 422c0 14 11 26 25 26h180c14 0 25 -12 25 -26v-256c0 -28 -23 -51 -51 -51s-51 23 -51 51s23 52 51 52c9 0 18 -3 26 -7v160h-180v-230c0 -28 -23 -51 -51 -51s-51 23 -51 51s23 51 51 51c9 0 18 -3 26 -7v237z" />
    <glyph glyph-name="eraser" unicode="&#xf1c6;" horiz-adv-x="366" 
d="M329 82v-109c0 -20 -16 -37 -36 -37h-220c-20 0 -36 17 -36 37v109h-1c-20 0 -36 17 -36 37v293c0 20 16 36 36 36h293c20 0 37 -16 37 -36v-293c0 -20 -17 -37 -37 -37v0zM73 82v-109h220v109h-220z" />
    <glyph glyph-name="codepen" unicode="&#xf1d3;" 
d="M512 114v-3v-1c0 -1 -1 -1 -1 -2v-1c0 -1 -1 0 -1 -1v-1l-1 -2l-1 -1v-1l-1 -1l-1 -1l-1 -1l-1 -1l-1 -1h-1l-234 -156c-4 -2 -8 -4 -12 -4s-8 2 -12 4l-234 156h-1l-1 1l-1 1l-1 1l-1 1l-1 1v1l-1 1l-1 2v1c0 1 -1 0 -1 1v1c0 1 -1 1 -1 2v1v3v156v3v1c0 1 1 1 1 2v1
c0 1 1 0 1 1v1l1 2l1 1v1l1 1l1 1l1 1l1 1l1 1h1l234 156c7 5 17 5 24 0l234 -156h1l1 -1l1 -1l1 -1l1 -1l1 -1v-1l1 -1l1 -2v-1c0 -1 1 0 1 -1v-1c0 -1 1 -1 1 -2v-1v-3v-156zM44 229v-74l55 37zM234 282v103l-172 -115l77 -52zM450 270l-172 115v-103l95 -64zM62 114
l172 -115v103l-95 64zM278 102v-103l172 115l-77 52zM256 244l-78 -52l78 -52l78 52zM468 155v74l-55 -37z" />
    <glyph glyph-name="forward" unicode="&#xf186;" 
d="M0 448l256 -183l-256 -183v366zM256 448l256 -183l-256 -183v366z" />
    <glyph glyph-name="link-external" unicode="&#xf137;" horiz-adv-x="410" 
d="M51 243v-205h205v205h-205zM51 294h205c28 0 51 -23 51 -51v-205c0 -28 -23 -51 -51 -51h-205c-28 0 -51 23 -51 51v205c0 28 23 51 51 51zM410 397v-205h-52v154h-153v51h205z" />
    <glyph glyph-name="feather" unicode="&#xf174;" horiz-adv-x="256" 
d="M26 193v0v-27c0 -26 -26 -25 -26 -25v51c0 141 115 256 256 256c0 -133 -101 -242 -230 -255z" />
    <glyph glyph-name="megaphone" unicode="&#xf13e;" 
d="M341 405c0 24 19 43 43 43s43 -19 43 -43v-85s85 0 85 -85s-85 -86 -85 -86v-85c0 -24 -19 -43 -43 -43s-43 19 -43 43l-170 64v-192h-86v224l-85 32v85z" />
    <glyph glyph-name="twitter" unicode="&#xf1dd;" 
d="M161 32c193 0 299 160 299 299c0 5 -1 8 -1 13c20 15 39 34 53 55c-19 -8 -40 -14 -61 -17c22 13 39 33 47 58c-20 -12 -43 -20 -67 -25c-19 20 -47 33 -77 33c-58 0 -105 -47 -105 -105c0 -8 1 -16 3 -24c-87 4 -165 47 -217 110c-9 -16 -14 -34 -14 -53
c0 -36 19 -69 47 -88c-17 1 -34 6 -48 14v-2c0 -51 37 -93 85 -103c-9 -2 -18 -4 -28 -4c-7 0 -14 1 -20 2c13 -42 52 -72 98 -73c-36 -28 -81 -45 -130 -45c-8 0 -17 1 -25 2c46 -29 102 -47 161 -47z" />
    <glyph glyph-name="shopping-bag" unicode="&#xf1ec;" horiz-adv-x="341" 
d="M85 363v42c0 24 19 43 43 43h85c24 0 43 -19 43 -43v-42h43c24 0 42 -19 42 -43v-341c0 -24 -18 -43 -42 -43h-256c-24 0 -43 19 -43 43v341c0 24 19 43 43 43h42zM43 320v-341h256v341h-43v-64c0 -14 -7 -21 -21 -21s-22 7 -22 21v64h-85v-43v-21c0 -14 -7 -21 -21 -21
s-22 7 -22 21v21v43h-42zM128 405v-42h85v42h-85z" />
    <glyph glyph-name="file-zip" unicode="&#xf1b5;" horiz-adv-x="366" 
d="M0 411c0 20 16 37 36 37h238l92 -91v-384c0 -20 -17 -37 -37 -37h-293c-20 0 -36 17 -36 37v438zM37 -27h292v329h-110v109h-183zM256 411v-73h73zM146 411h37v-36h-37v36zM110 375h36v-37h-36v37zM146 338h37v-36h-37v36zM110 302h36v-37h-36v37zM146 265h37v-36h-37v36
zM110 229h36v-37h-36v37zM110 155l36 37l37 -37v-109h-73v109z" />
    <glyph glyph-name="artboard" unicode="&#xf104;" 
d="M110 338h292v-292h-292v292zM366 9h36v-73h-36v73zM0 338h73v-36h-73v36zM0 82h73v-36h-73v36zM439 338h73v-36h-73v36zM439 82h73v-36h-73v36zM110 9h36v-73h-36v73zM366 448h36v-73h-36v73zM110 448h36v-73h-36v73z" />
    <glyph glyph-name="diamond" unicode="&#xf11e;" 
d="M341 405l43 -128h64l-85 128h-22zM171 405h-22l-85 -128h64zM256 -64l-256 341l128 171h256l128 -171zM213 405l-42 -128h170l-42 128h-86zM213 235l43 -214l43 214h-86zM85 235l128 -171l-42 171h-86zM427 235h-86l-42 -171z" />
    <glyph glyph-name="gear" unicode="&#xf1a5;" horiz-adv-x="358" 
d="M250 162c-13 -9 -29 -16 -45 -19v-41c0 -13 -13 -12 -13 -12h-26s-12 -1 -12 12v41c-16 3 -32 10 -45 19l-29 -29c-9 -9 -18 0 -18 0l-19 18s-9 9 0 18l29 29c-9 13 -15 29 -18 45h-41c-13 0 -13 13 -13 13v26s0 12 13 12h41c3 16 9 32 18 45l-29 29c-9 9 0 18 0 18
l19 19s9 9 18 0l29 -29c13 9 29 15 45 18v41c0 13 12 13 12 13h26s13 0 13 -13v-41c16 -3 32 -9 45 -18l29 29c9 9 18 0 18 0l18 -19s9 -9 0 -18l-29 -29c9 -13 16 -29 19 -45h41c13 0 12 -12 12 -12v-26s1 -13 -12 -13h-41c-3 -16 -10 -32 -19 -45l29 -29c9 -9 0 -18 0 -18
l-18 -18s-9 -9 -18 0zM179 192c42 0 77 35 77 77s-35 77 -77 77s-77 -35 -77 -77s35 -77 77 -77z" />
    <glyph glyph-name="smile-heart" unicode="&#xf1f6;" 
d="M144 166c-16 0 -29 13 -29 29s13 28 29 28s28 -12 28 -28s-12 -29 -28 -29zM287 108c0 -48 -38 -86 -86 -86s-86 38 -86 86h172zM259 166c-16 0 -29 13 -29 29s13 28 29 28s28 -12 28 -28s-12 -29 -28 -29zM201 -35c95 0 173 77 173 172s-78 173 -173 173
s-172 -78 -172 -173s77 -172 172 -172zM201 -64c-111 0 -201 90 -201 201s90 201 201 201s201 -90 201 -201s-90 -201 -201 -201zM402 265c0 0 -89 45 -107 109s54 110 107 37c53 73 125 27 107 -37s-107 -109 -107 -109z" />
    <glyph glyph-name="sunny-o" unicode="&#xf1f0;" 
d="M293 13l-37 -77l-37 77c-23 5 -45 13 -64 26l-80 -28l28 80c-13 19 -21 41 -26 64l-77 37l77 37c5 23 13 45 26 64l-28 80l80 -28c19 13 41 21 64 26l37 77l37 -77c23 -5 45 -13 64 -26l80 28l-28 -80c13 -19 21 -41 26 -64l77 -37l-77 -37c-5 -23 -13 -45 -26 -64
l28 -80l-80 28c-19 -13 -41 -21 -64 -26zM256 46c81 0 146 65 146 146s-65 146 -146 146s-146 -65 -146 -146s65 -146 146 -146z" />
    <glyph glyph-name="heart-o" unicode="&#xf167;" 
d="M256 21c0 0 -207 106 -249 255s124 255 249 85c125 170 291 64 249 -85s-249 -255 -249 -255zM255 86c0 0 161 91 187 191s-59 171 -187 1c-128 170 -217 99 -186 -1s186 -191 186 -191z" />
    <glyph glyph-name="fast-forward" unicode="&#xf185;" 
d="M0 448l219 -146l-219 -147v293zM219 448l220 -146l-220 -147v293zM439 448h73v-293h-73v293z" />
    <glyph glyph-name="phone" unicode="&#xf145;" horiz-adv-x="410" 
d="M51 294l256 -256v103h103v-154c-226 0 -410 184 -410 410h154v-103h-103z" />
    <glyph glyph-name="flag" unicode="&#xf129;" horiz-adv-x="475" 
d="M37 341c-21 8 -37 28 -37 52c0 30 25 55 55 55s55 -25 55 -55c0 -24 -16 -44 -37 -52v-405h-36v405zM110 338h365v-219h-365v219z" />
    <glyph glyph-name="link" unicode="&#xf136;" horiz-adv-x="410" 
d="M256 243h77c42 0 77 -35 77 -77v-51c0 -42 -35 -77 -77 -77h-103c-42 0 -76 35 -76 77v26h-77c-42 0 -77 35 -77 77v51c0 42 35 77 77 77h102c42 0 77 -35 77 -77v-26zM205 243v26c0 14 -12 25 -26 25h-102c-14 0 -26 -11 -26 -25v-51c0 -14 12 -26 26 -26h77
c0 28 23 51 51 51zM256 192c0 -28 -23 -51 -51 -51v-26c0 -14 11 -25 25 -25h103c14 0 25 11 25 25v51c0 14 -11 26 -25 26h-77z" />
    <glyph glyph-name="crop" unicode="&#xf1c2;" 
d="M439 82h73v-73h-73v-73h-73v73h-256c-37 0 -37 37 -37 37v256h-73v73h73v73h73v-73h256l37 36l36 -36l-36 -37v-256zM146 302v-183l183 183h-183zM366 82v183l-183 -183h183z" />
    <glyph glyph-name="smile" unicode="&#xf1bc;" 
d="M183 229c-20 0 -37 16 -37 36s17 37 37 37s36 -17 36 -37s-16 -36 -36 -36zM366 155c0 -61 -49 -109 -110 -109s-110 48 -110 109h220zM329 229c-20 0 -36 16 -36 36s16 37 36 37s37 -17 37 -37s-17 -36 -37 -36zM256 -27c121 0 219 98 219 219s-98 219 -219 219
s-219 -98 -219 -219s98 -219 219 -219zM256 -64c-141 0 -256 115 -256 256s115 256 256 256s256 -115 256 -256s-115 -256 -256 -256z" />
    <glyph glyph-name="prototype" unicode="&#xf149;" 
d="M219 338v-155l-50 -46c-10 11 -25 18 -41 18c-30 0 -55 -24 -55 -54s25 -55 55 -55s55 25 55 55c0 4 0 7 -1 11l37 34v-173c0 -37 -36 -37 -36 -37h-146s-37 0 -37 37v365c0 37 37 37 37 37h146s36 0 36 -37zM293 46v158l50 43c10 -11 25 -18 41 -18c30 0 55 24 55 54
s-25 55 -55 55s-55 -25 -55 -55c0 -4 0 -7 1 -11l-37 -31v170c0 37 36 37 36 37h146s37 0 37 -37v-365c0 -37 -37 -37 -37 -37h-146s-36 0 -36 37z" />
    <glyph glyph-name="elipsis-h" unicode="&#xf125;" horiz-adv-x="410" 
d="M358 141c-28 0 -51 23 -51 51s23 51 51 51s52 -23 52 -51s-24 -51 -52 -51zM51 141c-28 0 -51 23 -51 51s23 51 51 51s51 -23 51 -51s-23 -51 -51 -51zM205 141c-28 0 -51 23 -51 51s23 51 51 51s51 -23 51 -51s-23 -51 -51 -51z" />
    <glyph glyph-name="info" unicode="&#xf130;" horiz-adv-x="410" 
d="M205 38c85 0 153 69 153 154s-68 154 -153 154s-154 -69 -154 -154s69 -154 154 -154zM205 -13c-113 0 -205 92 -205 205s92 205 205 205s205 -92 205 -205s-92 -205 -205 -205zM179 218h51v-128h-51v128zM205 243c-14 0 -26 12 -26 26s12 25 26 25s25 -11 25 -25
s-11 -26 -25 -26z" />
    <glyph glyph-name="line-chart" unicode="&#xf135;" horiz-adv-x="307" 
d="M179 346l-25 25l-52 -51c0 -14 -11 -26 -25 -26s-26 12 -26 26s12 26 26 26l51 51c0 14 12 25 26 25s25 -11 25 -25l26 -26l51 51c0 14 12 26 26 26s25 -12 25 -26s-11 -25 -25 -25l-52 -51c0 -14 -11 -26 -25 -26s-26 12 -26 26zM0 397h26v-179h281v-26h-307v205z" />
    <glyph glyph-name="delete-link" unicode="&#xf19e;" 
d="M219 411h-109c-40 0 -73 -33 -73 -73s33 -73 73 -73h109v-36h-109c-61 0 -110 48 -110 109s49 110 110 110h109v-37zM293 265h109c40 0 73 33 73 73s-33 73 -73 73h-109v37h109c61 0 110 -49 110 -110s-49 -109 -110 -109h-109v36zM329 302h-36v73h36s37 -17 37 -37
s-17 -36 -37 -36zM183 302c-20 0 -37 16 -37 36s17 37 37 37h36v-73h-36z" />
    <glyph glyph-name="rage" unicode="&#xf1bb;" 
d="M256 -27c121 0 219 98 219 219s-98 219 -219 219s-219 -98 -219 -219s98 -219 219 -219zM256 -64c-141 0 -256 115 -256 256s115 256 256 256s256 -115 256 -256s-115 -256 -256 -256zM256 155c73 0 73 -73 73 -73h-36s0 37 -37 37s-37 -37 -37 -37h-36s0 73 73 73z
M329 192c-20 0 -36 17 -36 37l73 36v-36s-17 -37 -37 -37zM183 192c-20 0 -37 17 -37 37v36l73 -36c0 -20 -16 -37 -36 -37z" />
    <glyph glyph-name="trash" unicode="&#xf157;" horiz-adv-x="410" 
d="M0 -13v410h410v-410h-410zM410 397v0l-410 -410v0v0l410 410v0zM1 192c0 113 91 204 204 204s204 -91 204 -204s-91 -204 -204 -204s-204 91 -204 204zM0 192c0 -113 92 -205 205 -205s205 92 205 205s-92 205 -205 205s-205 -92 -205 -205zM129 192c0 42 34 76 76 76
s76 -34 76 -76s-34 -76 -76 -76s-76 34 -76 76zM128 192c0 -42 35 -77 77 -77s77 35 77 77s-35 77 -77 77s-77 -35 -77 -77zM26 346c0 14 11 25 25 25s26 -11 26 -25s-12 -26 -26 -26s-25 12 -25 26zM26 346c0 -14 11 -26 25 -26s26 12 26 26s-12 25 -26 25s-25 -11 -25 -25
zM333 346c0 14 12 25 26 25s25 -11 25 -25s-11 -26 -25 -26s-26 12 -26 26zM333 346c0 -14 12 -26 26 -26s25 12 25 26s-11 25 -25 25s-26 -11 -26 -25zM333 38c0 14 12 26 26 26s25 -12 25 -26s-11 -25 -25 -25s-26 11 -26 25zM333 38c0 -14 12 -25 26 -25s25 11 25 25
s-11 26 -25 26s-26 -12 -26 -26zM26 38c0 14 11 26 25 26s26 -12 26 -26s-12 -25 -26 -25s-25 11 -25 25zM26 38c0 -14 11 -25 25 -25s26 11 26 25s-12 26 -26 26s-25 -12 -25 -26zM0 397v0l410 -410v0v0l-410 410v0zM52 345c0 52 0 51 51 51h204c52 0 51 0 51 -51v-306
c0 -52 0 -51 -51 -51h-204c-52 0 -51 0 -51 51v306zM51 345v-306c0 -51 1 -52 52 -52h204c51 0 52 1 52 52v306c0 51 -1 52 -52 52h-204c-51 0 -52 -1 -52 -52zM358 345c52 0 51 0 51 -51v-204c0 -52 0 -51 -51 -51h-306c-52 0 -51 0 -51 51v204c0 52 0 51 51 51h306z
M358 346h-306c-51 0 -52 -1 -52 -52v-204c0 -51 1 -52 52 -52h306c51 0 52 1 52 52v204c0 51 -1 52 -52 52zM179 397c-28 0 -51 -23 -51 -51v-77h154v77c0 28 -23 51 -51 51h-52zM167 307v39c0 7 5 12 12 12h52c7 0 12 -5 12 -12v-39h-76zM147 269h116h19v19v58
c0 28 -23 51 -51 51h-52c-28 0 -51 -23 -51 -51v-58v-19h19zM51 346v-308c0 -28 24 -51 52 -51h204c28 0 52 23 52 51v308h-308zM90 307h230v-269c0 -7 -6 -12 -13 -12h-204c-7 0 -13 5 -13 12v269zM51 326v-288c0 -28 24 -51 52 -51h204c28 0 52 23 52 51v288v20h-20h-268
h-20v-20zM26 320c0 26 -1 26 25 26h308c26 0 25 0 25 -26v0c0 -26 1 -26 -25 -26h-308c-26 0 -25 0 -25 26v0zM128 90v153h51v-153h-51zM231 90v153h51v-153h-51z" />
    <glyph glyph-name="wallet" unicode="&#xf1ee;" 
d="M469 363c24 0 43 -19 43 -43v-85c0 -24 -19 -43 -43 -43v-43c0 -24 -18 -42 -42 -42h-384c-24 0 -43 18 -43 42v256c0 24 19 43 43 43h384c24 0 42 -19 42 -43v-42zM384 235c24 0 43 18 43 42s-19 43 -43 43s-43 -19 -43 -43s19 -42 43 -42z" />
    <glyph glyph-name="tag" unicode="&#xf153;" horiz-adv-x="410" 
d="M358 346h-81l-223 -221c-4 -4 -4 -12 0 -16l68 -67c4 -4 11 -5 15 -1l221 223v82zM410 346v-103l-236 -238c-24 -24 -64 -24 -88 0l-68 68c-24 24 -24 64 0 88l238 236h102c28 0 52 -23 52 -51zM307 269c-14 0 -25 11 -25 25s11 26 25 26s26 -12 26 -26s-12 -25 -26 -25z
" />
    <glyph glyph-name="paper-plane" unicode="&#xf178;" horiz-adv-x="307" 
d="M307 448l-128 -307l-52 51l-25 -26v52l154 179l-179 -154l-77 77z" />
    <glyph glyph-name="audio-player" unicode="&#xf199;" horiz-adv-x="293" 
d="M0 411c0 0 0 37 37 37h219c37 0 37 -37 37 -37v-438s0 -37 -37 -37h-219c-37 0 -37 37 -37 37v438zM146 -27c61 0 110 48 110 109s-49 110 -110 110s-109 -49 -109 -110s48 -109 109 -109zM146 9c-40 0 -73 33 -73 73s33 73 73 73s73 -33 73 -73s-33 -73 -73 -73zM37 411
v-182h219v182h-219z" />
    <glyph glyph-name="minus" unicode="&#xf140;" horiz-adv-x="307" 
d="M282 218c26 0 25 0 25 -26v0c0 -26 1 -26 -25 -26h-256c-26 0 -26 0 -26 26v0c0 26 0 26 26 26h256z" />
    <glyph glyph-name="loop" unicode="&#xf192;" 
d="M116 94c26 -35 70 -73 140 -73c128 0 171 128 171 128h85s-43 -213 -256 -213c-100 0 -163 47 -201 97l-55 -54v170h171zM396 290c-26 35 -70 73 -140 73c-128 0 -171 -128 -171 -128h-85s43 213 256 213c100 0 163 -47 201 -97l55 54v-170h-171z" />
    <glyph glyph-name="browser" unicode="&#xf10b;" 
d="M0 411c0 37 37 37 37 37h438s37 0 37 -37v-292c0 -37 -37 -37 -37 -37h-438s-37 0 -37 37v292zM37 338v-219h438v219h-438zM183 411v-36h292v36h-292zM37 411v-36h36v36h-36zM110 411v-36h36v36h-36z" />
    <glyph glyph-name="fork" unicode="&#xf12b;" horiz-adv-x="366" 
d="M238 253c-11 13 -19 30 -19 49c0 40 34 73 74 73s73 -33 73 -73c0 -35 -24 -63 -56 -71c-24 -53 -79 -112 -200 -112v-46c22 -13 36 -37 36 -64c0 -40 -33 -73 -73 -73s-73 33 -73 73c0 27 15 51 37 64v238c-22 13 -37 37 -37 64c0 40 33 73 73 73s73 -33 73 -73
c0 -27 -14 -51 -36 -64v-119c74 0 110 31 128 61zM73 338c20 0 37 17 37 37s-17 36 -37 36s-36 -16 -36 -36s16 -37 36 -37zM73 -27c20 0 37 16 37 36s-17 37 -37 37s-36 -17 -36 -37s16 -36 36 -36zM293 265c20 0 36 17 36 37s-16 36 -36 36s-37 -16 -37 -36s17 -37 37 -37
z" />
    <glyph glyph-name="layer" unicode="&#xf18c;" horiz-adv-x="439" 
d="M402 155l37 -36l-220 -183l-219 183l37 36l182 -146zM219 448l220 -183l-220 -183l-219 183z" />
    <glyph glyph-name="arrow-up" unicode="&#xf103;" 
d="M256 448l256 -256l-51 -51l-205 205l-205 -205l-51 51z" />
    <glyph glyph-name="search-plus" unicode="&#xf16b;" horiz-adv-x="410" 
d="M0 -13v410h410v-410h-410zM410 397v0l-410 -410v0v0l410 410v0zM1 192c0 113 91 204 204 204s204 -91 204 -204s-91 -204 -204 -204s-204 91 -204 204zM0 192c0 -113 92 -205 205 -205s205 92 205 205s-92 205 -205 205s-205 -92 -205 -205zM129 192c0 42 34 76 76 76
s76 -34 76 -76s-34 -76 -76 -76s-76 34 -76 76zM128 192c0 -42 35 -77 77 -77s77 35 77 77s-35 77 -77 77s-77 -35 -77 -77zM26 346c0 14 11 25 25 25s26 -11 26 -25s-12 -26 -26 -26s-25 12 -25 26zM26 346c0 -14 11 -26 25 -26s26 12 26 26s-12 25 -26 25s-25 -11 -25 -25
zM333 346c0 14 12 25 26 25s25 -11 25 -25s-11 -26 -25 -26s-26 12 -26 26zM333 346c0 -14 12 -26 26 -26s25 12 25 26s-11 25 -25 25s-26 -11 -26 -25zM333 38c0 14 12 26 26 26s25 -12 25 -26s-11 -25 -25 -25s-26 11 -26 25zM333 38c0 -14 12 -25 26 -25s25 11 25 25
s-11 26 -25 26s-26 -12 -26 -26zM26 38c0 14 11 26 25 26s26 -12 26 -26s-12 -25 -26 -25s-25 11 -25 25zM26 38c0 -14 11 -25 25 -25s26 11 26 25s-12 26 -26 26s-25 -12 -25 -26zM0 397v0l410 -410v0v0l-410 410v0zM52 345c0 52 0 51 51 51h204c52 0 51 0 51 -51v-306
c0 -52 0 -51 -51 -51h-204c-52 0 -51 0 -51 51v306zM51 345v-306c0 -51 1 -52 52 -52h204c51 0 52 1 52 52v306c0 51 -1 52 -52 52h-204c-51 0 -52 -1 -52 -52zM358 345c52 0 51 0 51 -51v-204c0 -52 0 -51 -51 -51h-306c-52 0 -51 0 -51 51v204c0 52 0 51 51 51h306z
M358 346h-306c-51 0 -52 -1 -52 -52v-204c0 -51 1 -52 52 -52h306c51 0 52 1 52 52v204c0 51 -1 52 -52 52zM154 128c-64 0 -115 51 -115 115s51 115 115 115s115 -51 115 -115s-51 -115 -115 -115zM128 166v154h51v-154h-51zM154 90c-85 0 -154 68 -154 153s69 154 154 154
s153 -69 153 -154s-68 -153 -153 -153zM77 218v51h154v-51h-154z" />
    <glyph glyph-name="pencil" unicode="&#xf144;" horiz-adv-x="410" 
d="M51 38h35l272 273l-34 35l-273 -273v-35zM394 349c21 -21 21 -55 0 -76l-286 -286h-108v108l286 286c21 21 55 21 76 0z" />
    <glyph glyph-name="lock" unicode="&#xf139;" horiz-adv-x="307" 
d="M256 243c28 0 51 -23 51 -51v-154c0 -28 -23 -51 -51 -51h-205c-28 0 -51 23 -51 51v154c0 28 23 51 51 51v51c0 57 46 103 103 103s102 -46 102 -103v-51zM51 192v-154h205v154h-205zM102 243h103v51c0 28 -23 52 -51 52s-52 -24 -52 -52v-51z" />
    <glyph glyph-name="share" unicode="&#xf14f;" horiz-adv-x="410" 
d="M277 117c14 15 34 24 56 24c42 0 77 -35 77 -77s-35 -77 -77 -77s-77 35 -77 77c0 4 0 8 1 12l-125 63c-14 -15 -33 -24 -55 -24c-42 0 -77 35 -77 77s35 77 77 77c22 0 41 -9 55 -24l125 63c-1 4 -1 8 -1 12c0 42 35 77 77 77s77 -35 77 -77s-35 -77 -77 -77
c-22 0 -42 9 -56 24l-124 -63c1 -4 1 -8 1 -12s0 -8 -1 -12zM333 294c14 0 25 12 25 26s-11 26 -25 26s-26 -12 -26 -26s12 -26 26 -26zM333 38c14 0 25 12 25 26s-11 26 -25 26s-26 -12 -26 -26s12 -26 26 -26zM77 166c14 0 25 12 25 26s-11 26 -25 26s-26 -12 -26 -26
s12 -26 26 -26z" />
    <glyph glyph-name="file-word" unicode="&#xf1a4;" horiz-adv-x="366" 
d="M37 -27h292v329h-110v109h-183zM0 411c0 20 16 37 36 37h238l92 -91v-384c0 -20 -17 -37 -37 -37h-293c-20 0 -36 17 -36 37v438zM256 411v-73h73zM73 192h55l18 -73l19 73h36l18 -73l19 73h55l-37 -146h-55l-18 73l-18 -73h-55z" />
    <glyph glyph-name="text-align-left" unicode="&#xf1cc;" 
d="M0 64h341v-43h-341v43zM0 192h512v-43h-512v43zM0 320h341v-43h-341v43zM0 448h512v-43h-512v43z" />
    <glyph glyph-name="youtube" unicode="&#xf1e0;" 
d="M203 202l138 71l-138 72v-143zM507 370v0s5 -42 5 -83v-38c0 -41 -5 -83 -5 -83s-5 -35 -20 -51c-19 -20 -42 -21 -52 -22c-72 -5 -179 -5 -179 -5s-133 1 -174 5c-11 2 -38 2 -57 22c-15 16 -20 51 -20 51s-5 42 -5 83v38c0 41 5 83 5 83s5 35 20 51c19 20 42 21 52 22
c72 5 179 5 179 5v0s107 0 179 -5c10 -1 33 -2 52 -22c15 -16 20 -51 20 -51z" />
    <glyph glyph-name="download" unicode="&#xf120;" horiz-adv-x="307" 
d="M179 192l51 51l26 -25l-102 -103l-103 103l26 25l51 -51v154h51v-154zM282 38h-256c-14 0 -26 12 -26 26s12 26 26 26h256c14 0 25 -12 25 -26s-11 -26 -25 -26z" />
    <glyph glyph-name="watch-alt" unicode="&#xf1b0;" horiz-adv-x="293" 
d="M37 46c0 0 -37 -1 -37 36v220c0 37 37 36 37 36h36v73c0 37 37 37 37 37h73s36 0 36 -37v-73h37s37 1 37 -36v-220c0 -37 -37 -36 -37 -36h-37v-73c0 -37 -36 -37 -36 -37h-73s-37 0 -37 37v73h-36zM37 302v-220h219v220h-219z" />
    <glyph glyph-name="elipsis-v" unicode="&#xf126;" horiz-adv-x="102" 
d="M51 -13c-28 0 -51 23 -51 51s23 52 51 52s51 -24 51 -52s-23 -51 -51 -51zM51 141c-28 0 -51 23 -51 51s23 51 51 51s51 -23 51 -51s-23 -51 -51 -51zM51 294c-28 0 -51 24 -51 52s23 51 51 51s51 -23 51 -51s-23 -52 -51 -52z" />
    <glyph glyph-name="file" unicode="&#xf1b1;" horiz-adv-x="366" 
d="M37 -27h292v329h-110v109h-183zM0 411c0 20 16 37 36 37h238l92 -91v-384c0 -20 -17 -37 -37 -37h-293c-20 0 -36 17 -36 37v438zM256 411v-73h73z" />
    <glyph glyph-name="home" unicode="&#xf12f;" horiz-adv-x="410" 
d="M51 183v-153h77v102h51h103v-102h76v153l-153 137zM17 224l154 135c19 17 49 17 68 0l153 -135c11 -10 18 -23 18 -38v-156c0 -28 -24 -52 -52 -52h-128v103h-51v-51v-52h-51h-77c-28 0 -51 24 -51 52v156c0 15 6 28 17 38z" />
    <glyph glyph-name="mouse" unicode="&#xf142;" horiz-adv-x="341" 
d="M171 448v0c149 0 170 -115 170 -256s-21 -256 -170 -256s-171 115 -171 256s22 256 171 256zM128 267c0 0 0 -32 43 -32s42 32 42 32v64s1 32 -42 32s-43 -32 -43 -32v-64z" />
    <glyph glyph-name="check" unicode="&#xf111;" horiz-adv-x="410" 
d="M51 243l103 -102l204 205l52 -52l-256 -256l-154 154z" />
    <glyph glyph-name="feed" unicode="&#xf128;" horiz-adv-x="358" 
d="M358 13h-52c1 163 -143 307 -306 306v52c198 0 358 -160 358 -358zM256 13h-53c1 107 -96 204 -203 203v53c141 0 256 -115 256 -256zM51 13c-28 0 -51 23 -51 51s23 51 51 51s51 -23 51 -51s-23 -51 -51 -51z" />
    <glyph glyph-name="smile-plus" unicode="&#xf1f5;" 
d="M144 166c-16 0 -29 13 -29 29s13 28 29 28s28 -12 28 -28s-12 -29 -28 -29zM287 108c0 -48 -38 -86 -86 -86s-86 38 -86 86h172zM259 166c-16 0 -29 13 -29 29s13 28 29 28s28 -12 28 -28s-12 -29 -28 -29zM201 -35c95 0 173 77 173 172s-78 173 -173 173
s-172 -78 -172 -173s77 -172 172 -172zM201 -64c-111 0 -201 90 -201 201s90 201 201 201s201 -90 201 -201s-90 -201 -201 -201zM451 387h31c17 0 30 -13 30 -30s-13 -31 -30 -31h-31v-30c0 -17 -13 -31 -30 -31s-31 14 -31 31v30h-30c-17 0 -31 14 -31 31s14 30 31 30h30
v31c0 17 14 30 31 30s30 -13 30 -30v-31z" />
    <glyph glyph-name="text-align-justify" unicode="&#xf1e5;" 
d="M0 64h512v-43h-512v43zM0 192h512v-43h-512v43zM0 320h512v-43h-512v43zM0 448h512v-43h-512v43z" />
    <glyph glyph-name="book" unicode="&#xf109;" horiz-adv-x="358" 
d="M333 218h-128c0 -12 -13 -26 -26 -26s-25 14 -25 26h-128c-26 0 -26 25 -26 25v179s0 26 26 26h128l25 -26l26 26h128c26 0 25 -26 25 -26v-179s1 -25 -25 -25zM230 397h77v-26h-77v26zM230 346h77v-26h-77v26zM230 294h77v-25h-77v25zM51 397h77v-26h-77v26zM51 346h77
v-26h-77v26zM51 294h77v-25h-77v25zM26 422v-179h128v154l-26 25h-102zM205 397v-154h128v179h-103z" />
    <glyph glyph-name="speaker" unicode="&#xf1ab;" horiz-adv-x="293" 
d="M-0 411c0 0 0 37 37 37h219c37 0 37 -37 37 -37v-438s0 -37 -37 -37h-219c-37 0 -37 37 -37 37v438zM146 155c61 0 110 49 110 110s-49 110 -110 110s-109 -49 -109 -110s48 -110 109 -110zM146 192c-40 0 -73 33 -73 73s33 73 73 73s73 -33 73 -73s-33 -73 -73 -73z
M146 9c20 0 37 17 37 37s-17 36 -37 36s-36 -16 -36 -36s16 -37 36 -37z" />
    <glyph glyph-name="github-alt" unicode="&#xf1d7;" 
d="M470 341v0c26 -28 42 -63 42 -107c0 -165 -108 -202 -257 -202s-255 37 -255 202c0 44 16 79 42 107c-4 10 -18 51 4 106c0 0 34 10 110 -42c32 9 66 11 100 11s68 -2 100 -11c76 52 110 42 110 42c22 -55 8 -96 4 -106zM256 63v0c106 0 191 6 191 108
c0 25 -11 47 -32 66c-35 31 -93 15 -159 15s-125 16 -159 -15c-20 -19 -32 -42 -32 -66c0 -102 85 -108 191 -108zM176 224v0c21 0 38 -25 38 -57s-17 -58 -38 -58s-39 27 -39 58s18 57 39 57zM336 224v0c21 0 39 -25 39 -57s-18 -58 -39 -58s-38 26 -38 58s17 57 38 57z
" />
    <glyph glyph-name="text-align-right" unicode="&#xf1cd;" 
d="M171 64h341v-43h-341v43zM0 192h512v-43h-512v43zM171 320h341v-43h-341v43zM0 448h512v-43h-512v43z" />
    <glyph glyph-name="document" unicode="&#xf19f;" horiz-adv-x="366" 
d="M37 -27h292v329h-110v109h-183zM0 411c0 20 16 37 36 37h238l92 -91v-384c0 -20 -17 -37 -37 -37h-293c-20 0 -36 17 -36 37v438zM73 82h220v-36h-220v36zM73 155h220v-36h-220v36zM73 229h220v-37h-220v37zM256 411v-73h73z" />
    <glyph glyph-name="file-audio" unicode="&#xf1b2;" horiz-adv-x="366" 
d="M37 -27h292v329h-110v109h-183zM0 411c0 20 16 37 36 37h238l92 -91v-384c0 -20 -17 -37 -37 -37h-293c-20 0 -36 17 -36 37v438zM256 411v-73h73zM146 192v-146c0 -20 -16 -37 -36 -37s-37 17 -37 37s17 36 37 36v110s-1 37 36 37h110c36 0 37 -37 37 -37v-110
c0 -20 -17 -36 -37 -36s-37 16 -37 36s17 37 37 37v73h-110z" />
    <glyph glyph-name="pizza" unicode="&#xf147;" 
d="M256 -64c-141 0 -256 115 -256 256s115 256 256 256s256 -115 256 -256s-115 -256 -256 -256zM256 -27c121 0 219 98 219 219s-98 219 -219 219s-219 -98 -219 -219s98 -219 219 -219zM110 155c-20 0 -37 17 -37 37s17 37 37 37s36 -17 36 -37s-16 -37 -36 -37zM219 155
h37v-36zM366 119v-37h-37zM146 302h37l-37 -37v37zM293 192h36v-37h-36v37zM146 119h37v-37h-37v37zM183 229h36v-37h-36v37zM329 302h37v-37h-37v37zM256 265l37 -36h-37v36zM402 155c-20 0 -36 17 -36 37s16 37 36 37s37 -17 37 -37s-17 -37 -37 -37zM256 9
c-20 0 -37 17 -37 37s17 36 37 36s37 -16 37 -36s-17 -37 -37 -37zM256 302c-20 0 -37 16 -37 36s17 37 37 37s37 -17 37 -37s-17 -36 -37 -36z" />
    <glyph glyph-name="map" unicode="&#xf16d;" horiz-adv-x="358" 
d="M51 218h51s0 -77 77 -77s77 77 77 77h51l51 -128h-358zM179 192c0 0 -77 137 -77 179s35 77 77 77s77 -35 77 -77s-77 -179 -77 -179zM179 346c14 0 26 11 26 25s-12 26 -26 26s-25 -12 -25 -26s11 -25 25 -25z" />
    <glyph glyph-name="play" unicode="&#xf188;" 
d="M-0 448l512 -256l-512 -256v512z" />
    <glyph glyph-name="star" unicode="&#xf151;" 
d="M256 52l-158 -82l30 173l-128 122l177 26l79 157l79 -157l177 -26l-128 -122l30 -173z" />
    <glyph glyph-name="users" unicode="&#xf15c;" horiz-adv-x="358" 
d="M187 115h-187v17c0 21 51 51 102 51s103 -30 103 -51v-9c16 6 33 9 51 9c51 0 102 -30 102 -51v-17h-204v17c0 11 13 24 33 34zM102 218c-28 0 -51 23 -51 51s23 51 51 51s52 -23 52 -51s-24 -51 -52 -51zM256 166c-28 0 -51 24 -51 52s23 51 51 51s51 -23 51 -51
s-23 -52 -51 -52z" />
    <glyph glyph-name="cocktail" unicode="&#xf116;" 
d="M213 149l-213 214v85h512v-85l-213 -214v-170h128v-43h-342v43h128v170zM128 320h256l85 85h-426z" />
    <glyph glyph-name="watch" unicode="&#xf1af;" horiz-adv-x="293" 
d="M165 210h54v-36h-73c-18 0 -18 18 -18 18v73h37v-55zM146 82c61 0 110 49 110 110s-49 110 -110 110s-109 -49 -109 -110s48 -110 109 -110zM219 319v0c44 -25 74 -73 74 -127s-30 -102 -74 -127v-92s1 -37 -36 -37h-73c-37 0 -37 37 -37 37v92c-44 25 -73 73 -73 127
s29 102 73 127v92s0 37 37 37h73c37 0 36 -37 36 -37v-92z" />
    <glyph glyph-name="compress" unicode="&#xf181;" 
d="M475 192h-219v219l73 -73l110 110l73 -73l-110 -110zM37 192h219v-219l-73 73l-110 -110l-73 73l110 110z" />
    <glyph glyph-name="check-verified" unicode="&#xf19c;" horiz-adv-x="358" 
d="M0 269c0 22 14 41 33 48c2 8 5 15 9 22c-3 6 -4 12 -4 19c0 28 24 52 52 52c7 0 13 -1 19 -4c7 4 14 7 22 9c7 19 26 33 48 33s41 -14 48 -33c8 -2 15 -5 22 -9c6 3 13 4 20 4c28 0 51 -24 51 -52c0 -7 -1 -13 -4 -19c4 -7 7 -14 9 -22c19 -7 33 -26 33 -48
s-14 -41 -33 -48c-2 -8 -5 -15 -9 -22c3 -6 4 -13 4 -20c0 -28 -23 -51 -51 -51c-7 0 -14 1 -20 4c-7 -4 -14 -7 -22 -9c-7 -19 -26 -33 -48 -33s-41 14 -48 33c-8 2 -15 5 -22 9c-6 -3 -12 -4 -19 -4c-28 0 -52 23 -52 51c0 7 1 14 4 20c-4 7 -7 14 -9 22
c-19 7 -33 26 -33 48zM102 294l-25 -25l77 -77l128 128l-26 26l-102 -103z" />
    <glyph glyph-name="frowing" unicode="&#xf1b9;" 
d="M256 -27c121 0 219 98 219 219s-98 219 -219 219s-219 -98 -219 -219s98 -219 219 -219zM256 -64c-141 0 -256 115 -256 256s115 256 256 256s256 -115 256 -256s-115 -256 -256 -256zM256 119c73 0 73 -73 73 -73h-36s0 36 -37 36s-37 -36 -37 -36h-36s0 73 73 73z
M329 155c-20 0 -36 17 -36 37s16 37 36 37s37 -17 37 -37s-17 -37 -37 -37zM183 155c-20 0 -37 17 -37 37s17 37 37 37s36 -17 36 -37s-16 -37 -36 -37z" />
    <glyph glyph-name="kitchen-cooker" unicode="&#xf1a7;" 
d="M402 82h-292c0 -20 -17 -36 -37 -36s-36 16 -36 36c-20 0 -37 17 -37 37v293c0 20 17 36 37 36h438c20 0 37 -16 37 -36v-293c0 -20 -17 -37 -37 -37c0 -20 -16 -36 -36 -36s-37 16 -37 36zM37 119h438v293l-438 -1v-292zM73 302h366v-147h-366v147zM219 265v-36h74v36
h-74zM347 338c-10 0 -18 9 -18 19s8 18 18 18s19 -8 19 -18s-9 -19 -19 -19zM274 338c-10 0 -18 9 -18 19s8 18 18 18s19 -8 19 -18s-9 -19 -19 -19zM421 338c-10 0 -19 9 -19 19s9 18 19 18s18 -8 18 -18s-8 -19 -18 -19zM73 375h110v-37h-110v37z" />
    <glyph glyph-name="medal" unicode="&#xf13d;" horiz-adv-x="366" 
d="M73 448h73v-110h-73v110zM219 448h74v-110h-74v110zM183 302c-20 0 -37 16 -37 36s17 37 37 37s36 -17 36 -37s-16 -36 -36 -36zM183 -64c-101 0 -183 82 -183 183s82 183 183 183s183 -82 183 -183s-82 -183 -183 -183zM183 229l-78 -33l-32 -77l32 -78l78 -32l77 32
l33 78l-33 77z" />
    <glyph glyph-name="expand" unicode="&#xf183;" 
d="M293 448h219v-219l-73 73l-110 -110l-73 73l110 110zM219 -64h-219v219l73 -73l110 110l73 -73l-110 -110z" />
    <glyph glyph-name="building" unicode="&#xf10e;" horiz-adv-x="307" 
d="M51 397h205c28 0 51 -23 51 -51v-359h-307v359c0 28 23 51 51 51zM205 26h64v332h-231v-332h64v64h103v-64zM77 320h51v-51h-51v51zM77 243h51v-51h-51v51zM179 320h51v-51h-51v51zM179 243h51v-51h-51v51zM77 166h51v-51h-51v51zM179 166h51v-51h-51v51z" />
    <glyph glyph-name="github" unicode="&#xf1d6;" 
d="M256 448v0c141 0 256 -115 256 -256c0 -113 -73 -209 -174 -243c-13 -3 -18 5 -18 12v71c0 24 -8 39 -17 47c57 6 117 28 117 126c0 28 -10 51 -26 69c3 6 11 33 -3 68c0 0 -21 7 -70 -26c-20 6 -42 8 -64 8s-44 -2 -64 -8c-49 33 -71 26 -71 26c-14 -35 -5 -62 -2 -68
c-16 -18 -27 -41 -27 -69c0 -98 60 -120 117 -126c-7 -6 -14 -17 -16 -34c-15 -7 -52 -18 -75 21c-5 8 -19 26 -39 26c-21 0 -9 -12 0 -17c11 -6 23 -29 26 -36c5 -14 22 -42 86 -30c0 -21 1 -42 1 -48c0 -7 -5 -14 -18 -12c-102 34 -175 130 -175 243
c0 141 115 256 256 256z" />
    <glyph glyph-name="bug" unicode="&#xf10d;" 
d="M183 365v0v83h36v-71c11 2 24 3 37 3s26 -1 37 -3v71h36v-83c73 -35 73 -122 73 -122h-292s0 87 73 122zM408 7c-22 -41 -66 -71 -152 -71s-130 30 -152 71l-91 -31l-13 32l92 31c-3 11 -4 23 -5 34h-87v34h87c1 10 2 18 3 27l-90 31l13 32l84 -29c6 24 13 41 13 41h292
s7 -16 13 -40l85 28l12 -32l-90 -30c1 -9 2 -18 3 -28h87v-34h-87c-1 -11 -2 -23 -5 -34l92 -31l-13 -32l-91 31v0z" />
    <glyph glyph-name="mobile" unicode="&#xf141;" horiz-adv-x="293" 
d="M293 -27c0 -37 -37 -37 -37 -37h-219s-37 0 -37 37c0 -2 0 440 0 438c0 37 37 37 37 37h219s37 0 37 -37v-438zM37 9h219v366h-219v-366z" />
    <glyph glyph-name="step-backward" unicode="&#xf1d0;" 
d="M213 363h-213v85h512v-85h-213v-256h85l-128 -171l-128 171h85v256zM0 192v85h171v-85h-171zM341 192v85h171v-85h-171z" />
    <glyph glyph-name="pinterest" unicode="&#xf1db;" 
d="M256 448c-141 0 -256 -115 -256 -256c0 -108 68 -201 163 -238c-2 20 -4 51 1 73c5 20 30 127 30 127s-8 15 -8 38c0 36 20 62 46 62c22 0 33 -16 33 -36c0 -22 -15 -55 -22 -85c-6 -25 13 -46 38 -46c46 0 81 48 81 117c0 61 -44 104 -107 104c-73 0 -116 -55 -116 -111
c0 -22 8 -45 19 -58c2 -3 3 -5 2 -8c-2 -8 -6 -25 -7 -29c-1 -5 -4 -5 -9 -3c-32 15 -51 61 -51 99c0 81 59 155 169 155c89 0 157 -63 157 -148c0 -88 -55 -159 -132 -159c-26 0 -51 13 -59 29c0 0 -13 -48 -16 -60c-6 -22 -22 -51 -32 -68c24 -7 50 -11 76 -11
c141 0 256 115 256 256s-115 256 -256 256z" />
    <glyph glyph-name="mask" unicode="&#xf1c8;" 
d="M43 -21h426s0 426 -426 426v-426zM0 405c0 24 20 43 43 43h426c24 0 43 -20 43 -43v-426c0 -24 -20 -43 -43 -43h-426c-24 0 -43 20 -43 43v426z" />
    <glyph glyph-name="cutlery" unicode="&#xf19d;" horiz-adv-x="366" 
d="M366 411v-256v-182s0 -37 -55 -37s-55 37 -55 37v146h-37s0 329 110 329c36 0 37 -37 37 -37zM146 338v110h37v-219s0 -37 -37 -37v-219s0 -37 -36 -37h-37c-33 0 -36 37 -36 37v219c-37 0 -37 37 -37 37v219h37v-110h36v110h37v-110h36z" />
    <glyph glyph-name="star-o" unicode="&#xf168;" 
d="M256 52l-158 -82l30 173l-128 122l177 26l79 157l79 -157l177 -26l-128 -122l30 -173zM256 90l116 -58l-22 123l94 88l-130 18l-58 112l-58 -112l-130 -18l94 -88l-22 -123z" />
    <glyph glyph-name="user-plus" unicode="&#xf15b;" horiz-adv-x="358" 
d="M320 205h38v-26h-38v-38h-26v38h-38v26h38v38h26v-38zM154 192c-42 0 -77 35 -77 77s35 77 77 77s76 -35 76 -77s-34 -77 -76 -77zM154 141c77 0 153 -46 153 -77v-26h-307v26c0 31 77 77 154 77z" />
    <glyph glyph-name="truck" unicode="&#xf1ed;" 
d="M456 90c-11 -30 -39 -52 -72 -52s-61 22 -72 52h-30h-82c-11 -30 -39 -52 -72 -52s-61 22 -72 52h-30c-14 0 -26 11 -26 25v307c0 14 12 26 26 26h256c14 0 25 -12 25 -26v-25h92c7 0 13 -3 18 -8l88 -87c5 -5 7 -11 7 -18v-169c0 -14 -12 -25 -26 -25h-30zM128 64
c28 0 51 23 51 51s-23 51 -51 51s-51 -23 -51 -51s23 -51 51 -51zM384 64c28 0 51 23 51 51s-23 51 -51 51s-51 -23 -51 -51s23 -51 51 -51zM358 346v-103h103v51l-51 52h-52z" />
    <glyph glyph-name="wrench" unicode="&#xf162;" horiz-adv-x="420" 
d="M255 221c5 14 8 28 8 44c0 73 -59 132 -132 132s-131 -59 -131 -132s58 -131 131 -131c16 0 31 3 45 8l147 -147c10 -10 27 -10 37 0l42 42c10 10 10 27 0 37zM384 55l-42 -42s17 -18 -1 0l-152 153l-6 5l-16 -5c-11 -4 -24 -6 -36 -6c-58 0 -105 47 -105 105
s47 106 105 106s106 -48 106 -106c0 -12 -2 -25 -6 -36l-1 -3l-5 -12l6 -6zM402 74l-147 147c5 14 8 29 8 44c0 73 -59 132 -132 132s-131 -59 -131 -132s58 -131 131 -131c15 0 31 3 45 8l147 -147l19 -19l18 19l42 42l18 18z" />
    <glyph glyph-name="step-forward" unicode="&#xf1d1;" 
d="M213 21v256h-85l128 171l128 -171h-85v-256h213v-85h-512v85h213zM0 192h171v-85h-171v85zM341 192h171v-85h-171v85z" />
    <glyph glyph-name="backward" unicode="&#xf180;" 
d="M256 448v-366l-256 183zM512 448v-366l-256 183z" />
    <glyph glyph-name="file-excel" unicode="&#xf1a2;" horiz-adv-x="366" 
d="M37 -27h292v329h-110v109h-183zM-0 411c0 20 16 37 36 37h238l92 -91v-384c0 -20 -17 -37 -37 -37h-293c-20 0 -36 17 -36 37v438zM256 411v-73h73zM73 192h73l37 -55l36 55h74l-37 -73l37 -73h-74l-36 55l-37 -55h-73l36 73z" />
  </font>
</defs>
</svg>
