<?xml version="1.0" encoding="UTF-8"?>
<svg width="24px" height="24px" viewBox="0 0 24 24" version="1.1" xmlns="http://www.w3.org/2000/svg" xmlns:xlink="http://www.w3.org/1999/xlink">
    <!-- Generator: sketchtool 49.1 (51147) - http://www.bohemiancoding.com/sketch -->
    <title>align-top</title>
    <desc>Created with sketchtool.</desc>
    <defs></defs>
    <g id="production" stroke="none" stroke-width="1" fill="none" fill-rule="evenodd">
        <g id="align-top" fill="#000000">
            <path d="M4.8,3 L19.2,3 C19.6418278,3 20,3.44771525 20,4 C20,4.55228475 19.6418278,5 19.2,5 L4.8,5 C4.3581722,5 4,4.55228475 4,4 C4,3.44771525 4.3581722,3 4.8,3 Z M11,19 C11,20.1045695 10.1045695,21 9,21 C7.8954305,21 7,20.1045695 7,19 L7,7 L11,7 L11,19 Z M17,15 C17,16.1045695 16.1045695,17 15,17 C13.8954305,17 13,16.1045695 13,15 L13,7 L17,7 L17,15 Z" id="Shape"></path>
        </g>
    </g>
</svg>