<?xml version="1.0" encoding="UTF-8"?>
<svg width="20px" height="20px" viewBox="0 0 20 20" version="1.1" xmlns="http://www.w3.org/2000/svg" xmlns:xlink="http://www.w3.org/1999/xlink">
    <!-- Generator: sketchtool 48.2 (47327) - http://www.bohemiancoding.com/sketch -->
    <title>bar-chart</title>
    <desc>Created with sketchtool.</desc>
    <defs></defs>
    <g id="web-app" stroke="none" stroke-width="1" fill="none" fill-rule="evenodd">
        <g id="bar-chart" fill="#000000" fill-rule="nonzero">
            <path d="M4,9 L3.99999997,14 C3.99999997,14.5522847 4.44771522,15 4.99999997,15 L17,15 C17.5522847,15 18,15.4477152 18,16 C18,16.5522847 17.5522847,17 17,17 L2.99999999,17 C2.44771524,17 1.99999999,16.5522847 1.99999999,16 L1.99999999,9 C1.99999999,8.44771525 2.44771524,8 2.99999999,8 C3.55228475,8 4,8.44771525 4,9 Z M7,5 C7.55228475,5 8,5.51167457 8,6.14285714 L8,11.8571429 C8,12.4883254 7.55228475,13 7,13 C6.44771525,13 6,12.4883254 6,11.8571429 L6,6.14285714 C6,5.51167457 6.44771525,5 7,5 Z M11,3 C11.5522847,3 12,3.49746139 12,4.11111111 L12,11.8888889 C12,12.5025386 11.5522847,13 11,13 C10.4477153,13 10,12.5025386 10,11.8888889 L10,4.11111111 C10,3.49746139 10.4477153,3 11,3 Z M15,6 C15.5522847,6 16,6.52233446 16,7.16666667 L16,11.8333333 C16,12.4776655 15.5522847,13 15,13 C14.4477153,13 14,12.4776655 14,11.8333333 L14,7.16666667 C14,6.52233446 14.4477153,6 15,6 Z" id="Combined-Shape"></path>
        </g>
    </g>
</svg>