<?xml version="1.0" encoding="UTF-8"?>
<svg width="20px" height="20px" viewBox="0 0 20 20" version="1.1" xmlns="http://www.w3.org/2000/svg" xmlns:xlink="http://www.w3.org/1999/xlink">
    <!-- Generator: sketchtool 48.2 (47327) - http://www.bohemiancoding.com/sketch -->
    <title>book</title>
    <desc>Created with sketchtool.</desc>
    <defs></defs>
    <g id="web-app" stroke="none" stroke-width="1" fill="none" fill-rule="evenodd">
        <g id="book" fill="#000000">
            <path d="M13,9.00055358 C14,9.00055358 14,8.00049207 14,8.00049207 L14,1.00006151 C14,1.00006151 14,4.19606125e-08 13,3.97928406e-13 C13,4.19606158e-08 8,0 8,0 L7,1.00006151 L6,0 C6,0 0.9999996,4.19606158e-08 1,3.97928406e-13 C0,4.19606125e-08 0,1.00006151 0,1.00006151 L0,8.00049207 C0,8.00049207 -2.83661983e-14,9.00055358 1,9.00055358 L6,9.00055358 C6,9.48384915 6.5,10 7,10 C7.5,10 8,9.48383246 8,9.00055358 L13,9.00055358 Z M9,2.00012302 L12,2.00012302 L12,3.00018453 L9,3.00018453 L9,2.00012302 Z M9,4.00024603 L12,4.00024603 L12,5.00030754 L9,5.00030754 L9,4.00024603 Z M9,6.00036905 L12,6.00036905 L12,7.00043056 L9,7.00043056 L9,6.00036905 Z M2,2.00012302 L5,2.00012302 L5,3.00018453 L2,3.00018453 L2,2.00012302 Z M2,4.00024603 L5,4.00024603 L5,5.00030754 L2,5.00030754 L2,4.00024603 Z M2,6.00036905 L5,6.00036905 L5,7.00043056 L2,7.00043056 L2,6.00036905 Z M1,1.00006151 L5,1.00006151 L6,2.00012302 L6,8.00049207 L1,8.00049207 L1,1.00006151 Z M8,2.00012302 L9,1.00006151 L13,1.00006151 L13,7.99009643 L8,7.99009643 L8,2.00012302 Z" id="Shape"></path>
        </g>
    </g>
</svg>