<?xml version="1.0" encoding="UTF-8"?>
<svg width="20px" height="20px" viewBox="0 0 20 20" version="1.1" xmlns="http://www.w3.org/2000/svg" xmlns:xlink="http://www.w3.org/1999/xlink">
    <!-- Generator: sketchtool 48.2 (47327) - http://www.bohemiancoding.com/sketch -->
    <title>building</title>
    <desc>Created with sketchtool.</desc>
    <defs></defs>
    <g id="web-app" stroke="none" stroke-width="1" fill="none" fill-rule="evenodd">
        <g id="building" fill="#000000" fill-rule="nonzero">
            <path d="M6,2 L14,2 C15.1045695,2 16,2.8954305 16,4 C16,13.3333333 16,18 16,18 C16,18 12,18 4,18 L4,4 C4,2.8954305 4.8954305,2 6,2 Z M12,16.5 L14.5,16.5 L14.5,3.5 L5.5,3.5 L5.5,16.5 L8,16.5 L8,14 L12,14 L12,16.5 Z M7,5 L9,5 L9,7 L7,7 L7,5 Z M7,8 L9,8 L9,10 L7,10 L7,8 Z M11,5 L13,5 L13,7 L11,7 L11,5 Z M11,8 L13,8 L13,10 L11,10 L11,8 Z M7,11 L9,11 L9,13 L7,13 L7,11 Z M11,11 L13,11 L13,13 L11,13 L11,11 Z" id="Combined-Shape"></path>
        </g>
    </g>
</svg>