<?xml version="1.0" encoding="UTF-8"?>
<svg width="20px" height="20px" viewBox="0 0 20 20" version="1.1" xmlns="http://www.w3.org/2000/svg" xmlns:xlink="http://www.w3.org/1999/xlink">
    <!-- Generator: sketchtool 48.2 (47327) - http://www.bohemiancoding.com/sketch -->
    <title>calendar</title>
    <desc>Created with sketchtool.</desc>
    <defs></defs>
    <g id="web-app" stroke="none" stroke-width="1" fill="none" fill-rule="evenodd">
        <g id="calendar" fill="#000000">
            <path d="M15,4 L16,4 C17.1045695,4 18,4.8954305 18,6 L18,16 C18,17.1045695 17.1045695,18 16,18 L4,18 C2.8954305,18 2,17.1045695 2,16 L2,6 C2,4.8954305 2.8954305,4 4,4 L5,4 L5,2 L7,2 L7,4 L13,4 L13,2 L15,2 L15,4 Z M4,8 L4,16 L16,16 L16,8 L4,8 Z M6,12 L8,12 L8,14 L6,14 L6,12 Z M9,12 L11,12 L11,14 L9,14 L9,12 Z M12,12 L14,12 L14,14 L12,14 L12,12 Z" id="Shape"></path>
        </g>
    </g>
</svg>