<?xml version="1.0" encoding="UTF-8"?>
<svg width="20px" height="20px" viewBox="0 0 20 20" version="1.1" xmlns="http://www.w3.org/2000/svg" xmlns:xlink="http://www.w3.org/1999/xlink">
    <!-- Generator: sketchtool 48.2 (47327) - http://www.bohemiancoding.com/sketch -->
    <title>clock</title>
    <desc>Created with sketchtool.</desc>
    <defs></defs>
    <g id="web-app" stroke="none" stroke-width="1" fill="none" fill-rule="evenodd">
        <g id="clock" fill="#000000">
            <path d="M10,18 C5.581722,18 2,14.418278 2,10 C2,5.581722 5.581722,2 10,2 C14.418278,2 18,5.581722 18,10 C18,14.418278 14.418278,18 10,18 Z M16,10 C16,6.6862915 13.3137085,4 10,4 C6.6862915,4 4,6.6862915 4,10 C4,13.3137085 6.6862915,16 10,16 C13.3137085,16 16,13.3137085 16,10 Z M13,10.0013111 C13.5522847,10.0013111 14,10.4490263 14,11.0013111 C14,11.5535958 13.5522847,12.0013111 13,12.0013111 L11,12.008616 C9.9000001,12.0013111 9,10.9013107 9,10.0013111 C9,8.00043702 9,7 9,7 C9,6.44999981 9.44999981,6 10,6 C10.5500002,6 11,6.44999981 11,7 C11,7 11,8.00043702 11,10.0013111 L13,10.0013111 Z" id="Shape"></path>
        </g>
    </g>
</svg>