<?xml version="1.0" encoding="UTF-8"?>
<svg width="20px" height="20px" viewBox="0 0 20 20" version="1.1" xmlns="http://www.w3.org/2000/svg" xmlns:xlink="http://www.w3.org/1999/xlink">
    <!-- Generator: sketchtool 48.2 (47327) - http://www.bohemiancoding.com/sketch -->
    <title>cloud</title>
    <desc>Created with sketchtool.</desc>
    <defs></defs>
    <g id="web-app" stroke="none" stroke-width="1" fill="none" fill-rule="evenodd">
        <g id="cloud" fill="#000000" fill-rule="nonzero">
            <path d="M11,6 C9.56681513,6 8.34065127,7.01371524 8.05989667,8.39859375 L7.72680204,10.04165 L6.05082399,10.0006209 C6.02550473,10.0001042 6.02550473,10.0001042 6,10 C4.8954305,10 4,10.8954305 4,12 C4,13.1045695 4.8954305,14 6,14 L15,14 C15.5522847,14 16,13.5522847 16,13 C16,12.5564656 15.7081597,12.1689828 15.2915407,12.0426117 L13.5030855,11.5001279 L13.9232774,9.67905687 C13.9740519,9.45900483 14,9.2319342 14,9 C14,7.34314575 12.6568542,6 11,6 Z M11,4 C13.7614237,4 16,6.23857625 16,9 C16,9.38815894 15.9557692,9.76598721 15.8720727,10.1287197 C17.1036038,10.5022743 18,11.6464548 18,13 C18,14.6568542 16.6568542,16 15,16 L6,16 C3.790861,16 2,14.209139 2,12 C2,9.790861 3.790861,8 6,8 C6.0333538,8 6.06661225,8.00040823 6.09977063,8.00121997 C6.56256943,5.71837186 8.58061109,4 11,4 Z" id="Shape"></path>
        </g>
    </g>
</svg>