<?xml version="1.0" encoding="UTF-8"?>
<svg width="20px" height="20px" viewBox="0 0 20 20" version="1.1" xmlns="http://www.w3.org/2000/svg" xmlns:xlink="http://www.w3.org/1999/xlink">
    <!-- Generator: sketchtool 48.2 (47327) - http://www.bohemiancoding.com/sketch -->
    <title>eye</title>
    <desc>Created with sketchtool.</desc>
    <defs></defs>
    <g id="web-app" stroke="none" stroke-width="1" fill="none" fill-rule="evenodd">
        <g id="eye" fill="#000000">
            <path d="M10,16 C13.8659932,16 17,12 17,10 C17,8 13.8659932,4 10,4 C6.13400675,4 3,8 3,10 C3,12 6.13400675,16 10,16 Z M10,14 C12.209139,14 14,12.209139 14,10 C14,7.790861 12.209139,6 10,6 C7.790861,6 6,7.790861 6,10 C6,12.209139 7.790861,14 10,14 Z M10,12 C11.1045695,12 12,11.1045695 12,10 C12,8.8954305 11.1045695,8 10,8 C8.8954305,8 8,8.8954305 8,10 C8,11.1045695 8.8954305,12 10,12 Z" id="Shape"></path>
        </g>
    </g>
</svg>