<?xml version="1.0" encoding="UTF-8"?>
<svg width="20px" height="20px" viewBox="0 0 20 20" version="1.1" xmlns="http://www.w3.org/2000/svg" xmlns:xlink="http://www.w3.org/1999/xlink">
    <!-- Generator: sketchtool 48.2 (47327) - http://www.bohemiancoding.com/sketch -->
    <title>folder-open</title>
    <desc>Created with sketchtool.</desc>
    <defs></defs>
    <g id="web-app" stroke="none" stroke-width="1" fill="none" fill-rule="evenodd">
        <g id="folder-open" fill="#000000">
            <path d="M7,15 L8,15 L8,9 L17,9 L17,15 C17,16.0939016 16,16 16,16 L4,16 C4,16 3,16 3,15 L3,7 C3,6 4,6 4,6 L5,6 C5,6 5.00067687,5.01840769 5,5 C5,4 6,4 6,4 L9,4 C9,4 10,4 10,5 L10,6 L15,6 C15,6 16,6 16,7 L16,8 L7,8 L7,15 L7,15 Z" id="Shape"></path>
        </g>
    </g>
</svg>