<?xml version="1.0" encoding="UTF-8"?>
<svg width="20px" height="20px" viewBox="0 0 20 20" version="1.1" xmlns="http://www.w3.org/2000/svg" xmlns:xlink="http://www.w3.org/1999/xlink">
    <!-- Generator: sketchtool 48.2 (47327) - http://www.bohemiancoding.com/sketch -->
    <title>globe</title>
    <desc>Created with sketchtool.</desc>
    <defs></defs>
    <g id="web-app" stroke="none" stroke-width="1" fill="none" fill-rule="evenodd">
        <g id="globe" fill="#000000">
            <path d="M2,10 C2,5.581722 5.581722,2 10,2 C14.418278,2 18,5.581722 18,10 C18,14.418278 14.418278,18 10,18 C5.581722,18 2,14.418278 2,10 Z M3.2519054,8.44772521 C3.00907197,8.95528866 3.40421499,9.2333196 3.74999997,9.40505625 C4.09578496,9.57679289 5.15412343,8.23075515 5.15412343,8.23075515 L6.375,9.12499998 C6.375,9.12499998 6.55289676,10.6075627 6.89006777,10.875 C7.22723879,11.1424373 7.90699017,11.1424373 7.90699017,11.1424373 L9.18645787,11.7307552 C9.18645787,11.7307552 8.90356788,12.3008143 9,12.625 C9.09643212,12.9491857 9.57659572,13.4807552 9.57659572,13.4807552 C9.57659572,13.4807552 8.64264961,15.4949768 9,16.1250004 C9.00000008,16.1250004 9.50598671,16.1250004 9.87500008,16.1250004 C10.2440134,16.1250004 12.5884684,13.2028608 12.5000001,12.625 C12.4115318,12.0471392 9.57659572,11.5866501 9.57659572,11.5866501 C9.57659572,11.5866501 8.65524294,11.2218483 8.30010164,10.8557552 C8.12500008,10.7068323 8.30010144,10.3826623 8.30010144,10.3826623 C8.30010144,10.3826623 8.71300544,10.5531333 9.00814946,10.3826623 C9.30329349,10.2121913 10.2440134,9.25988637 10.2440134,9.25988637 C10.2440134,9.25988637 10.4423936,9.55838569 10.75,9.125 C11.0576064,8.69161431 10.399853,7.73282103 9.875,7.74198581 C9.2847894,7.75115058 9.00814961,8.62873174 9.00814961,8.62873174 L8.0643364,8.06240843 C8.0643364,8.06240843 9.02908854,7.78598747 9.00814946,7.37499998 C8.98721039,6.96401249 8.40941663,6.32794261 7.9847345,6.5 C7.56005236,6.67205739 7.90698998,7.19819712 7.90698998,7.19819712 C7.25000008,7.375 6.5388792,7.1981971 6.5388792,7.1981971 C6.5388792,7.1981971 5.88061514,6.82889022 5.27823536,6.89612415 C4.67585559,6.96335807 4.84168002,7.33866691 4.625,7.28600462 C4.36713476,7.2233326 4.47203706,6.5 4.18375503,6.5 C3.89547299,6.5 3.49473884,7.94016177 3.2519054,8.44772521 Z M9.82234096,6.35000488 C10.6670076,6.35000488 11.2019529,6.64935167 11.5116742,6.35000488 C11.8213954,6.05065808 12.7066713,5.34304148 12.0835413,4.84768664 C11.4604112,4.3523318 10.3391729,3.99826107 9.88094563,3.99826107 C9.42271836,3.99826107 7.28834122,3.87403755 7.28834122,4.69936003 C6.94671764,5.27646878 8.97767435,6.35000488 9.82234096,6.35000488 Z" id="Shape"></path>
        </g>
    </g>
</svg>