<?xml version="1.0" encoding="UTF-8"?>
<svg width="20px" height="20px" viewBox="0 0 20 20" version="1.1" xmlns="http://www.w3.org/2000/svg" xmlns:xlink="http://www.w3.org/1999/xlink">
    <!-- Generator: sketchtool 48.2 (47327) - http://www.bohemiancoding.com/sketch -->
    <title>link-external</title>
    <desc>Created with sketchtool.</desc>
    <defs></defs>
    <g id="web-app" stroke="none" stroke-width="1" fill="none" fill-rule="evenodd">
        <g id="link-external" fill="#000000" fill-rule="nonzero">
            <path d="M4,8 L4,16 L12,16 L12,8 L4,8 Z M4,6 L12,6 C13.1045695,6 14,6.8954305 14,8 L14,16 C14,17.1045695 13.1045695,18 12,18 L4,18 C2.8954305,18 2,17.1045695 2,16 L2,8 C2,6.8954305 2.8954305,6 4,6 Z M18,2 L18,10 L16,10 L16,4 L10,4 L10,2 L18,2 Z" id="Shape"></path>
        </g>
    </g>
</svg>