<?xml version="1.0" encoding="UTF-8"?>
<svg width="24px" height="24px" viewBox="0 0 24 24" version="1.1" xmlns="http://www.w3.org/2000/svg" xmlns:xlink="http://www.w3.org/1999/xlink">
    <!-- Generator: sketchtool 49.1 (51147) - http://www.bohemiancoding.com/sketch -->
    <title>medal</title>
    <desc>Created with sketchtool.</desc>
    <defs>
        <path d="M12,22 C8.13400675,22 5,18.8659932 5,15 C5,11.1340068 8.13400675,8 12,8 C15.8659932,8 19,11.1340068 19,15 C19,18.8659932 15.8659932,22 12,22 Z M12,8 C11.4477153,8 11,7.55228475 11,7 C11,6.44771525 11.4477153,6 12,6 C12.5522847,6 13,6.44771525 13,7 C13,7.55228475 12.5522847,8 12,8 Z M9,2 L11,2 C11,4.66666667 11,6 11,6 C9.89999962,6 9,5.0999999 9,4 C9,4 9,3.33333333 9,2 Z M13,2 L15,2 C15,3.33333333 15,4 15,4 C15,5.0999999 14.1000004,6 13,6 C13,6 13,4.66666667 13,2 Z" id="path-1"></path>
    </defs>
    <g id="event" stroke="none" stroke-width="1" fill="none" fill-rule="evenodd">
        <g id="medal">
            <g id="Shape">
                <use fill="#FFFFFF" fill-rule="evenodd" xlink:href="#path-1"></use>
                <path stroke="#000000" stroke-width="2" d="M12,21 C15.3137085,21 18,18.3137085 18,15 C18,11.6862915 15.3137085,9 12,9 C8.6862915,9 6,11.6862915 6,15 C6,18.3137085 8.6862915,21 12,21 Z M10,3 L10,6 L11,5 C10.4522846,5 10,4.54771536 10,4 L10,3 Z M10,3 L10,2 L9,3 L11,3 L10,2 L10,3 Z M14,3 L14,4 C14,4.54771536 13.5477154,5 13,5 L14,6 L14,3 Z M14,3 L14,2 L13,3 L15,3 L14,2 L14,3 Z"></path>
            </g>
        </g>
    </g>
</svg>