<?xml version="1.0" encoding="UTF-8"?>
<svg width="20px" height="20px" viewBox="0 0 20 20" version="1.1" xmlns="http://www.w3.org/2000/svg" xmlns:xlink="http://www.w3.org/1999/xlink">
    <!-- Generator: sketchtool 48.2 (47327) - http://www.bohemiancoding.com/sketch -->
    <title>search-minus</title>
    <desc>Created with sketchtool.</desc>
    <defs></defs>
    <g id="web-app" stroke="none" stroke-width="1" fill="none" fill-rule="evenodd">
        <g id="search-minus" fill="#000000" fill-rule="nonzero">
            <path d="M8.2981213,12.4968688 C10.6170255,12.4968688 12.4968688,10.6170255 12.4968688,8.2981213 C12.4968688,5.97921707 10.6170255,4.09937377 8.2981213,4.09937377 C5.97921707,4.09937377 4.09937377,5.97921707 4.09937377,8.2981213 C4.09937377,10.6170255 5.97921707,12.4968688 8.2981213,12.4968688 Z M13.4318752,11.9473938 L17.6925538,16.2080724 C18.1024821,16.6180006 18.1024821,17.2826256 17.6925538,17.6925538 C17.2826256,18.1024821 16.6180006,18.1024821 16.2080724,17.6925538 L11.9473938,13.4318752 C10.9178411,14.1650407 9.65833751,14.5962426 8.2981213,14.5962426 C4.81976495,14.5962426 2,11.7764776 2,8.2981213 C2,4.81976495 4.81976495,2 8.2981213,2 C11.7764776,2 14.5962426,4.81976495 14.5962426,8.2981213 C14.5962426,9.65833751 14.1650407,10.9178411 13.4318752,11.9473938 Z" id="Shape"></path>
        </g>
    </g>
</svg>