<?xml version="1.0" encoding="UTF-8"?>
<svg width="20px" height="20px" viewBox="0 0 20 20" version="1.1" xmlns="http://www.w3.org/2000/svg" xmlns:xlink="http://www.w3.org/1999/xlink">
    <!-- Generator: sketchtool 48.2 (47327) - http://www.bohemiancoding.com/sketch -->
    <title>search-plus</title>
    <desc>Created with sketchtool.</desc>
    <defs></defs>
    <g id="web-app" stroke="none" stroke-width="1" fill="none" fill-rule="evenodd">
        <g id="search-plus">
            <g id="grid">
                <rect id="content-area" fill-opacity="0.200000018" fill="#66D5FF" fill-rule="evenodd" x="2" y="2" width="16" height="16"></rect>
                <path d="M2,2 L18,18" id="Line" stroke="#C1C0C1" stroke-width="0.02" stroke-linecap="square" transform="translate(10.000000, 10.000000) scale(-1, 1) translate(-10.000000, -10.000000) "></path>
                <circle id="circle" stroke="#C1C0C1" stroke-width="0.02" cx="10" cy="10" r="7.99"></circle>
                <circle id="circle" stroke="#C1C0C1" stroke-width="0.02" cx="10" cy="10" r="2.99"></circle>
                <circle id="circle-small" stroke="#CCD2D6" stroke-width="0.02" cx="4" cy="4" r="1"></circle>
                <circle id="circle-small" stroke="#CCD2D6" stroke-width="0.02" cx="16" cy="4" r="1"></circle>
                <circle id="circle-small" stroke="#CCD2D6" stroke-width="0.02" cx="16" cy="16" r="1"></circle>
                <circle id="circle-small" stroke="#CCD2D6" stroke-width="0.02" cx="4" cy="16" r="1"></circle>
                <path d="M2,2 L18,18" id="Line" stroke="#C1C0C1" stroke-width="0.02" stroke-linecap="square"></path>
                <rect id="rect-horizontal" stroke="#C1C0C1" stroke-width="0.02" x="4.01" y="2.01" width="11.98" height="15.98" rx="2"></rect>
                <rect id="rect-vertical" stroke="#C1C0C1" stroke-width="0.02" transform="translate(10.000000, 10.000000) rotate(90.000000) translate(-10.000000, -10.000000) " x="4.01" y="2.01" width="11.98" height="15.98" rx="2"></rect>
            </g>
            <path d="M8,12.5 C10.4852814,12.5 12.5,10.4852814 12.5,8 C12.5,5.51471863 10.4852814,3.5 8,3.5 C5.51471863,3.5 3.5,5.51471863 3.5,8 C3.5,10.4852814 5.51471863,12.5 8,12.5 Z" id="Oval" fill="#000000" fill-rule="nonzero"></path>
            <rect id="Rectangle" fill="#000000" x="7" y="5" width="2" height="6"></rect>
            <path d="M8,14 C4.6862915,14 2,11.3137085 2,8 C2,4.6862915 4.6862915,2 8,2 C11.3137085,2 14,4.6862915 14,8 C14,11.3137085 11.3137085,14 8,14 Z" id="Path" fill="#000000"></path>
            <rect id="Rectangle-2" fill="#000000" x="5" y="7" width="6" height="2"></rect>
        </g>
    </g>
</svg>