<?xml version="1.0" encoding="UTF-8"?>
<svg width="20px" height="20px" viewBox="0 0 20 20" version="1.1" xmlns="http://www.w3.org/2000/svg" xmlns:xlink="http://www.w3.org/1999/xlink">
    <!-- Generator: sketchtool 48.2 (47327) - http://www.bohemiancoding.com/sketch -->
    <title>share</title>
    <desc>Created with sketchtool.</desc>
    <defs></defs>
    <g id="web-app" stroke="none" stroke-width="1" fill="none" fill-rule="evenodd">
        <g id="share" fill="#000000">
            <path d="M12.8387471,12.9193736 C13.384491,12.3526158 14.1510666,12 15,12 C16.6568542,12 18,13.3431458 18,15 C18,16.6568542 16.6568542,18 15,18 C13.3431458,18 12,16.6568542 12,15 C12,14.8359406 12.0131691,14.674957 12.0385079,14.5180487 L7.16599916,12.0756862 C6.6199581,12.6453344 5.85139735,13 5,13 C3.34314575,13 2,11.6568542 2,10 C2,8.34314575 3.34314575,7 5,7 C5.85139735,7 6.6199581,7.35466564 7.16599916,7.92431384 L12.0385079,5.48195134 C12.0131691,5.32504299 12,5.1640594 12,5 C12,3.34314575 13.3431458,2 15,2 C16.6568542,2 18,3.34314575 18,5 C18,6.65685425 16.6568542,8 15,8 C14.1510666,8 13.384491,7.64738418 12.8387471,7.08062643 L7.96167196,9.51916402 C7.98689321,9.67571986 8,9.8363293 8,10 C8,10.1636707 7.98689321,10.3242801 7.96167196,10.480836 L12.8387471,12.9193736 Z M15,6 C15.5522847,6 16,5.55228475 16,5 C16,4.44771525 15.5522847,4 15,4 C14.4477153,4 14,4.44771525 14,5 C14,5.55228475 14.4477153,6 15,6 Z M15,16 C15.5522847,16 16,15.5522847 16,15 C16,14.4477153 15.5522847,14 15,14 C14.4477153,14 14,14.4477153 14,15 C14,15.5522847 14.4477153,16 15,16 Z M5,11 C5.55228475,11 6,10.5522847 6,10 C6,9.44771525 5.55228475,9 5,9 C4.44771525,9 4,9.44771525 4,10 C4,10.5522847 4.44771525,11 5,11 Z" id="Shape"></path>
        </g>
    </g>
</svg>