<?xml version="1.0" encoding="UTF-8"?>
<svg width="24px" height="24px" viewBox="0 0 24 24" version="1.1" xmlns="http://www.w3.org/2000/svg" xmlns:xlink="http://www.w3.org/1999/xlink">
    <!-- Generator: sketchtool 49.1 (51147) - http://www.bohemiancoding.com/sketch -->
    <title>smile</title>
    <desc>Created with sketchtool.</desc>
    <defs></defs>
    <g id="people" stroke="none" stroke-width="1" fill="none" fill-rule="evenodd">
        <g id="smile" fill="#000000">
            <path d="M15,14 C15,15.6568542 13.6568542,17 12,17 C10.3431458,17 9,15.6568542 9,14 L15,14 Z M15.5,12 C14.6715729,12 14,11.3284271 14,10.5 C14,9.67157288 14.6715729,9 15.5,9 C16.3284271,9 17,9.67157288 17,10.5 C17,11.3284271 16.3284271,12 15.5,12 Z M8.5,12 C7.67157288,12 7,11.3284271 7,10.5 C7,9.67157288 7.67157288,9 8.5,9 C9.32842712,9 10,9.67157288 10,10.5 C10,11.3284271 9.32842712,12 8.5,12 Z M12,20 C16.418278,20 20,16.418278 20,12 C20,7.581722 16.418278,4 12,4 C7.581722,4 4,7.581722 4,12 C4,16.418278 7.581722,20 12,20 Z M12,22 C6.4771525,22 2,17.5228475 2,12 C2,6.4771525 6.4771525,2 12,2 C17.5228475,2 22,6.4771525 22,12 C22,17.5228475 17.5228475,22 12,22 Z" id="Shape"></path>
        </g>
    </g>
</svg>