<?xml version="1.0" encoding="UTF-8"?>
<svg width="20px" height="20px" viewBox="0 0 20 20" version="1.1" xmlns="http://www.w3.org/2000/svg" xmlns:xlink="http://www.w3.org/1999/xlink">
    <!-- Generator: sketchtool 48.2 (47327) - http://www.bohemiancoding.com/sketch -->
    <title>sync</title>
    <desc>Created with sketchtool.</desc>
    <defs></defs>
    <g id="web-app" stroke="none" stroke-width="1" fill="none" fill-rule="evenodd">
        <g id="sync" fill="#000000">
            <path d="M8.29043345,9.29043338 C9.10333701,8.68246172 10,7.64011847 10,5.99999991 C10,2.99999996 7,1.99999997 7,1.99999997 L7,0 C7,0 12,0.999999986 12,5.99999991 C12,8.35533667 10.8904777,9.82305562 9.71675262,10.7167526 L11,12 L7,11.9999998 L7,7.99999989 L8.29043345,9.29043338 Z M3.70956655,2.70956662 C2.89666299,3.31753828 2,4.35988153 2,6.00000009 C2,9.00000004 5,10 5,10 L5,12 C5,12 0,11 0,6.00000009 C0,3.64466333 1.10952228,2.17694438 2.28324738,1.28324742 L1,0 L5,1.70652182e-07 L5,4.00000011 L3.70956655,2.70956662 Z" id="Shape"></path>
        </g>
    </g>
</svg>