<?xml version="1.0" encoding="UTF-8"?>
<svg width="20px" height="20px" viewBox="0 0 20 20" version="1.1" xmlns="http://www.w3.org/2000/svg" xmlns:xlink="http://www.w3.org/1999/xlink">
    <!-- Generator: sketchtool 48.2 (47327) - http://www.bohemiancoding.com/sketch -->
    <title>tag</title>
    <desc>Created with sketchtool.</desc>
    <defs></defs>
    <g id="web-app" stroke="none" stroke-width="1" fill="none" fill-rule="evenodd">
        <g id="tag" fill="#000000" fill-rule="nonzero">
            <path d="M16,4 L12.8237639,4 L4.12579016,12.6289508 C3.95806995,12.796671 3.95806995,13.0685992 4.12579016,13.2363194 L6.76368059,15.8742098 C6.9314008,16.0419301 7.20332899,16.0419301 7.36542856,15.8798529 L16,7.17623463 L16,4 Z M18,4.00356616 C18,4.00356616 18,5.33571077 18,8 L8.78526277,17.2884234 C7.83649397,18.2371922 6.29823582,18.2371922 5.34946702,17.2884234 L2.7115766,14.650533 C1.7628078,13.7017642 1.7628078,12.163506 2.7115766,11.2147372 L12,2 C14.6662847,2 15.9994271,2 15.9994271,2 C17.1000004,2 18,2.9000001 18,4.00356616 Z M14,7 C14.5522847,7 15,6.55228475 15,6 C15,5.44771525 14.5522847,5 14,5 C13.4477153,5 13,5.44771525 13,6 C13,6.55228475 13.4477153,7 14,7 Z" id="Shape"></path>
        </g>
    </g>
</svg>